<svg xmlns="http://www.w3.org/2000/svg" xmlns:xlink="http://www.w3.org/1999/xlink" width="1366" zoomAndPan="magnify" viewBox="0 0 1024.5 576" height="768" preserveAspectRatio="xMidYMid meet" version="1.0"><defs><clipPath id="8faff0816f"><path d="M 344 332 L 560 332 L 560 575.859375 L 344 575.859375 Z M 344 332 " clip-rule="nonzero"/></clipPath><clipPath id="d7164580a7"><path d="M 32 1.835938 L 160 1.835938 L 160 146 L 32 146 Z M 32 1.835938 " clip-rule="nonzero"/></clipPath><clipPath id="a7baed9d6e"><path d="M 5.136719 229 L 110 229 L 110 349 L 5.136719 349 Z M 5.136719 229 " clip-rule="nonzero"/></clipPath><clipPath id="7a6cca593f"><path d="M 914 78 L 1018.640625 78 L 1018.640625 199 L 914 199 Z M 914 78 " clip-rule="nonzero"/></clipPath></defs><path fill="#f5f1e6" d="M 307.132812 367.800781 L 307.132812 236.621094 C 312.734375 234.957031 316.820312 229.773438 316.820312 223.628906 C 316.820312 216.148438 310.753906 210.082031 303.269531 210.082031 C 299.179688 210.082031 295.511719 211.890625 293.027344 214.757812 L 180.472656 149.773438 C 180.632812 148.941406 180.71875 148.082031 180.71875 147.203125 C 180.71875 139.722656 174.652344 133.652344 167.167969 133.652344 C 159.683594 133.652344 153.617188 139.71875 153.617188 147.203125 C 153.617188 148.050781 153.695312 148.882812 153.84375 149.6875 L 40.15625 215.328125 C 37.675781 212.136719 33.804688 210.082031 29.453125 210.082031 C 21.96875 210.082031 15.902344 216.148438 15.902344 223.632812 C 15.902344 230.292969 20.703125 235.828125 27.03125 236.96875 L 27.03125 367.457031 C 20.703125 368.597656 15.902344 374.132812 15.902344 380.792969 C 15.902344 388.273438 21.964844 394.34375 29.453125 394.34375 C 32.808594 394.34375 35.882812 393.117188 38.253906 391.09375 L 153.882812 457.851562 C 153.710938 458.714844 153.617188 459.605469 153.617188 460.523438 C 153.617188 468.003906 159.683594 474.074219 167.167969 474.074219 C 174.648438 474.074219 180.71875 468.007812 180.71875 460.523438 C 180.71875 459.578125 180.621094 458.65625 180.4375 457.765625 L 295.074219 391.578125 C 297.351562 393.3125 300.191406 394.34375 303.273438 394.34375 C 310.753906 394.34375 316.824219 388.277344 316.824219 380.792969 C 316.820312 374.648438 312.734375 369.460938 307.132812 367.800781 Z M 167.167969 446.96875 C 162.09375 446.96875 157.671875 449.757812 155.351562 453.886719 L 41.007812 387.867188 C 42.273438 385.808594 43 383.382812 43 380.789062 C 43 373.902344 37.859375 368.210938 31.203125 367.351562 L 31.203125 237.066406 C 37.859375 236.207031 43 230.519531 43 223.628906 C 43 221.988281 42.710938 220.421875 42.175781 218.96875 L 155.265625 153.675781 C 157.5625 157.890625 162.03125 160.75 167.167969 160.75 C 172.273438 160.75 176.722656 157.925781 179.03125 153.75 L 290.816406 218.292969 C 290.113281 219.929688 289.722656 221.738281 289.722656 223.628906 C 289.722656 231.011719 295.625 237.011719 302.964844 237.175781 L 302.964844 367.242188 C 295.621094 367.40625 289.722656 373.410156 289.722656 380.785156 C 289.722656 383.640625 290.605469 386.289062 292.113281 388.472656 L 178.945312 453.8125 C 176.613281 449.726562 172.210938 446.96875 167.167969 446.96875 Z M 167.167969 446.96875 " fill-opacity="1" fill-rule="nonzero"/><path fill="#f5f1e6" d="M 432.765625 240.992188 L 432.765625 147.332031 C 436.765625 146.144531 439.683594 142.441406 439.683594 138.054688 C 439.683594 132.714844 435.355469 128.382812 430.011719 128.382812 C 427.09375 128.382812 424.472656 129.679688 422.699219 131.722656 L 342.328125 85.320312 C 342.445312 84.726562 342.503906 84.113281 342.503906 83.488281 C 342.503906 78.144531 338.171875 73.8125 332.832031 73.8125 C 327.488281 73.8125 323.160156 78.144531 323.160156 83.488281 C 323.160156 84.09375 323.214844 84.683594 323.320312 85.261719 L 242.144531 132.128906 C 240.375 129.851562 237.609375 128.386719 234.503906 128.386719 C 229.160156 128.386719 224.832031 132.714844 224.832031 138.058594 C 224.832031 142.8125 228.261719 146.765625 232.777344 147.578125 L 232.777344 240.753906 C 228.257812 241.566406 224.832031 245.519531 224.832031 250.273438 C 224.832031 255.617188 229.160156 259.945312 234.503906 259.945312 C 236.902344 259.945312 239.09375 259.074219 240.789062 257.628906 L 323.347656 305.296875 C 323.222656 305.914062 323.160156 306.550781 323.160156 307.203125 C 323.160156 312.542969 327.488281 316.875 332.832031 316.875 C 338.171875 316.875 342.503906 312.542969 342.503906 307.203125 C 342.503906 306.53125 342.4375 305.871094 342.300781 305.234375 L 424.15625 257.976562 C 425.78125 259.210938 427.808594 259.945312 430.011719 259.945312 C 435.355469 259.945312 439.683594 255.617188 439.683594 250.273438 C 439.683594 245.882812 436.765625 242.183594 432.765625 240.992188 Z M 332.828125 297.523438 C 329.207031 297.523438 326.046875 299.515625 324.390625 302.460938 L 242.746094 255.324219 C 243.652344 253.855469 244.171875 252.125 244.171875 250.269531 C 244.171875 245.351562 240.5 241.289062 235.746094 240.679688 L 235.746094 147.648438 C 240.5 147.035156 244.171875 142.972656 244.171875 138.054688 C 244.171875 136.882812 243.964844 135.765625 243.585938 134.726562 L 324.332031 88.109375 C 325.972656 91.117188 329.164062 93.15625 332.832031 93.15625 C 336.476562 93.15625 339.652344 91.136719 341.300781 88.160156 L 421.117188 134.242188 C 420.617188 135.414062 420.339844 136.699219 420.339844 138.054688 C 420.339844 143.324219 424.550781 147.609375 429.796875 147.726562 L 429.796875 240.597656 C 424.554688 240.714844 420.339844 245 420.339844 250.273438 C 420.339844 252.308594 420.96875 254.199219 422.046875 255.757812 L 341.242188 302.410156 C 339.570312 299.488281 336.429688 297.523438 332.828125 297.523438 Z M 332.828125 297.523438 " fill-opacity="1" fill-rule="nonzero"/><path fill="#f5f1e6" d="M 515.714844 162.699219 L 515.714844 103.105469 C 518.261719 102.347656 520.117188 99.992188 520.117188 97.203125 C 520.117188 93.804688 517.359375 91.050781 513.964844 91.050781 C 512.105469 91.050781 510.4375 91.875 509.3125 93.175781 L 458.171875 63.648438 C 458.246094 63.269531 458.285156 62.882812 458.285156 62.480469 C 458.285156 59.082031 455.527344 56.328125 452.132812 56.328125 C 448.734375 56.328125 445.976562 59.085938 445.976562 62.480469 C 445.976562 62.867188 446.011719 63.242188 446.082031 63.609375 L 394.429688 93.433594 C 393.304688 91.984375 391.546875 91.050781 389.566406 91.050781 C 386.164062 91.050781 383.410156 93.804688 383.410156 97.203125 C 383.410156 100.226562 385.59375 102.742188 388.46875 103.257812 L 388.46875 162.542969 C 385.59375 163.0625 383.410156 165.578125 383.410156 168.601562 C 383.410156 172 386.167969 174.753906 389.566406 174.753906 C 391.09375 174.753906 392.488281 174.199219 393.566406 173.277344 L 446.097656 203.605469 C 446.019531 203.996094 445.976562 204.402344 445.976562 204.820312 C 445.976562 208.21875 448.734375 210.972656 452.132812 210.972656 C 455.527344 210.972656 458.285156 208.214844 458.285156 204.820312 C 458.285156 204.390625 458.242188 203.972656 458.160156 203.566406 L 510.238281 173.496094 C 511.273438 174.285156 512.5625 174.75 513.960938 174.75 C 517.363281 174.75 520.117188 171.996094 520.117188 168.597656 C 520.113281 165.8125 518.257812 163.457031 515.714844 162.699219 Z M 452.125 198.667969 C 449.824219 198.667969 447.8125 199.933594 446.757812 201.808594 L 394.808594 171.816406 C 395.386719 170.878906 395.71875 169.78125 395.71875 168.601562 C 395.71875 165.46875 393.382812 162.886719 390.359375 162.496094 L 390.359375 103.308594 C 393.382812 102.914062 395.71875 100.332031 395.71875 97.203125 C 395.71875 96.460938 395.582031 95.746094 395.34375 95.085938 L 446.71875 65.425781 C 447.761719 67.339844 449.792969 68.636719 452.125 68.636719 C 454.449219 68.636719 456.464844 67.355469 457.515625 65.457031 L 508.300781 94.777344 C 507.980469 95.523438 507.804688 96.34375 507.804688 97.203125 C 507.804688 100.554688 510.484375 103.28125 513.820312 103.355469 L 513.820312 162.449219 C 510.484375 162.523438 507.804688 165.25 507.804688 168.601562 C 507.804688 169.898438 508.203125 171.101562 508.886719 172.09375 L 457.472656 201.78125 C 456.414062 199.921875 454.417969 198.667969 452.125 198.667969 Z M 452.125 198.667969 " fill-opacity="1" fill-rule="nonzero"/><path fill="#f5f1e6" d="M 633.914062 268.589844 L 633.914062 208.996094 C 636.460938 208.238281 638.316406 205.882812 638.316406 203.09375 C 638.316406 199.695312 635.558594 196.941406 632.160156 196.941406 C 630.300781 196.941406 628.636719 197.761719 627.511719 199.066406 L 576.371094 169.539062 C 576.445312 169.160156 576.484375 168.773438 576.484375 168.371094 C 576.484375 164.972656 573.726562 162.21875 570.332031 162.21875 C 566.929688 162.21875 564.175781 164.976562 564.175781 168.371094 C 564.175781 168.757812 564.210938 169.132812 564.28125 169.5 L 512.625 199.324219 C 511.5 197.875 509.742188 196.941406 507.761719 196.941406 C 504.363281 196.941406 501.605469 199.695312 501.605469 203.09375 C 501.605469 206.117188 503.789062 208.632812 506.664062 209.148438 L 506.664062 268.433594 C 503.789062 268.953125 501.605469 271.464844 501.605469 274.492188 C 501.605469 277.890625 504.363281 280.644531 507.761719 280.644531 C 509.289062 280.644531 510.683594 280.089844 511.761719 279.167969 L 564.292969 309.496094 C 564.214844 309.886719 564.171875 310.292969 564.171875 310.710938 C 564.171875 314.109375 566.929688 316.863281 570.328125 316.863281 C 573.726562 316.863281 576.480469 314.105469 576.480469 310.710938 C 576.480469 310.277344 576.4375 309.859375 576.355469 309.457031 L 628.433594 279.386719 C 629.46875 280.175781 630.757812 280.640625 632.160156 280.640625 C 635.558594 280.640625 638.3125 277.882812 638.3125 274.488281 C 638.316406 271.703125 636.460938 269.347656 633.914062 268.589844 Z M 570.328125 304.5625 C 568.023438 304.5625 566.015625 305.828125 564.960938 307.703125 L 513.011719 277.710938 C 513.585938 276.773438 513.917969 275.671875 513.917969 274.492188 C 513.917969 271.363281 511.582031 268.777344 508.558594 268.390625 L 508.558594 209.199219 C 511.582031 208.808594 513.917969 206.226562 513.917969 203.097656 C 513.917969 202.351562 513.785156 201.636719 513.546875 200.980469 L 564.921875 171.320312 C 565.964844 173.234375 567.996094 174.53125 570.328125 174.53125 C 572.648438 174.53125 574.667969 173.25 575.714844 171.351562 L 626.503906 200.671875 C 626.183594 201.414062 626.003906 202.238281 626.003906 203.097656 C 626.003906 206.449219 628.683594 209.175781 632.023438 209.25 L 632.023438 268.34375 C 628.6875 268.417969 626.003906 271.144531 626.003906 274.496094 C 626.003906 275.792969 626.40625 276.996094 627.089844 277.988281 L 575.675781 307.671875 C 574.617188 305.8125 572.617188 304.5625 570.328125 304.5625 Z M 570.328125 304.5625 " fill-opacity="1" fill-rule="nonzero"/><path fill="#f5f1e6" d="M 1000.15625 252.222656 L 1000.15625 192.625 C 1002.703125 191.867188 1004.558594 189.511719 1004.558594 186.722656 C 1004.558594 183.320312 1001.804688 180.566406 998.40625 180.566406 C 996.546875 180.566406 994.882812 181.390625 993.753906 182.691406 L 942.617188 153.167969 C 942.691406 152.789062 942.730469 152.398438 942.730469 152 C 942.730469 148.597656 939.972656 145.84375 936.574219 145.84375 C 933.175781 145.84375 930.421875 148.601562 930.421875 152 C 930.421875 152.386719 930.457031 152.761719 930.523438 153.128906 L 878.875 182.949219 C 877.746094 181.5 875.988281 180.566406 874.007812 180.566406 C 870.609375 180.566406 867.855469 183.324219 867.855469 186.722656 C 867.855469 189.746094 870.039062 192.261719 872.914062 192.777344 L 872.914062 252.0625 C 870.039062 252.582031 867.855469 255.09375 867.855469 258.117188 C 867.855469 261.519531 870.613281 264.273438 874.007812 264.273438 C 875.535156 264.273438 876.933594 263.71875 878.007812 262.796875 L 930.539062 293.125 C 930.460938 293.515625 930.421875 293.921875 930.421875 294.335938 C 930.421875 297.738281 933.179688 300.492188 936.574219 300.492188 C 939.976562 300.492188 942.730469 297.734375 942.730469 294.335938 C 942.730469 293.90625 942.683594 293.488281 942.601562 293.085938 L 994.683594 263.015625 C 995.71875 263.804688 997.007812 264.269531 998.40625 264.269531 C 1001.804688 264.269531 1004.558594 261.511719 1004.558594 258.113281 C 1004.558594 255.332031 1002.703125 252.976562 1000.15625 252.222656 Z M 936.570312 288.1875 C 934.265625 288.1875 932.257812 289.453125 931.199219 291.332031 L 879.253906 261.335938 C 879.828125 260.402344 880.160156 259.300781 880.160156 258.121094 C 880.160156 254.992188 877.824219 252.40625 874.800781 252.015625 L 874.800781 192.828125 C 877.824219 192.4375 880.160156 189.855469 880.160156 186.722656 C 880.160156 185.980469 880.027344 185.265625 879.785156 184.609375 L 931.164062 154.945312 C 932.207031 156.859375 934.238281 158.160156 936.570312 158.160156 C 938.890625 158.160156 940.910156 156.875 941.957031 154.980469 L 992.746094 184.300781 C 992.425781 185.042969 992.246094 185.863281 992.246094 186.722656 C 992.246094 190.078125 994.925781 192.804688 998.265625 192.878906 L 998.265625 251.96875 C 994.929688 252.042969 992.246094 254.769531 992.246094 258.125 C 992.246094 259.417969 992.644531 260.625 993.332031 261.617188 L 941.917969 291.300781 C 940.859375 289.441406 938.859375 288.1875 936.570312 288.1875 Z M 936.570312 288.1875 " fill-opacity="1" fill-rule="nonzero"/><g clip-path="url(#8faff0816f)"><path fill="#f5f1e6" d="M 552.269531 499.976562 L 552.269531 406.3125 C 556.269531 405.128906 559.191406 401.421875 559.191406 397.039062 C 559.191406 391.695312 554.859375 387.363281 549.515625 387.363281 C 546.597656 387.363281 543.980469 388.660156 542.203125 390.707031 L 461.835938 344.304688 C 461.949219 343.707031 462.007812 343.09375 462.007812 342.46875 C 462.007812 337.128906 457.679688 332.796875 452.335938 332.796875 C 446.996094 332.796875 442.664062 337.128906 442.664062 342.46875 C 442.664062 343.074219 442.71875 343.667969 442.828125 344.246094 L 361.652344 391.113281 C 359.882812 388.835938 357.113281 387.367188 354.007812 387.367188 C 348.667969 387.367188 344.335938 391.699219 344.335938 397.039062 C 344.335938 401.796875 347.765625 405.746094 352.285156 406.5625 L 352.285156 499.734375 C 347.761719 500.546875 344.335938 504.5 344.335938 509.257812 C 344.335938 514.597656 348.667969 518.929688 354.007812 518.929688 C 356.40625 518.929688 358.601562 518.054688 360.292969 516.609375 L 442.855469 564.277344 C 442.730469 564.894531 442.664062 565.53125 442.664062 566.183594 C 442.664062 571.527344 446.996094 575.855469 452.335938 575.855469 C 457.679688 575.855469 462.007812 571.527344 462.007812 566.183594 C 462.007812 565.511719 461.941406 564.851562 461.808594 564.214844 L 543.664062 516.957031 C 545.289062 518.195312 547.316406 518.929688 549.515625 518.929688 C 554.859375 518.929688 559.191406 514.597656 559.191406 509.257812 C 559.191406 504.871094 556.273438 501.167969 552.269531 499.976562 Z M 452.335938 556.507812 C 448.714844 556.507812 445.558594 558.5 443.898438 561.445312 L 362.253906 514.3125 C 363.160156 512.839844 363.679688 511.109375 363.679688 509.257812 C 363.679688 504.335938 360.007812 500.273438 355.257812 499.664062 L 355.257812 406.640625 C 360.007812 406.023438 363.679688 401.964844 363.679688 397.046875 C 363.679688 395.875 363.472656 394.753906 363.09375 393.71875 L 443.839844 347.097656 C 445.480469 350.109375 448.671875 352.148438 452.339844 352.148438 C 455.984375 352.148438 459.160156 350.128906 460.808594 347.148438 L 540.628906 393.234375 C 540.125 394.40625 539.847656 395.691406 539.847656 397.046875 C 539.847656 402.316406 544.058594 406.601562 549.304688 406.71875 L 549.304688 499.589844 C 544.0625 499.707031 539.847656 503.992188 539.847656 509.261719 C 539.847656 511.300781 540.480469 513.191406 541.554688 514.75 L 460.75 561.402344 C 459.078125 558.472656 455.933594 556.507812 452.335938 556.507812 Z M 452.335938 556.507812 " fill-opacity="1" fill-rule="nonzero"/></g><path fill="#f5f1e6" d="M 744.730469 213.191406 L 744.730469 119.53125 C 748.730469 118.34375 751.648438 114.640625 751.648438 110.253906 C 751.648438 104.914062 747.316406 100.582031 741.976562 100.582031 C 739.054688 100.582031 736.4375 101.878906 734.664062 103.921875 L 654.292969 57.523438 C 654.410156 56.925781 654.46875 56.3125 654.46875 55.6875 C 654.46875 50.34375 650.136719 46.015625 644.796875 46.015625 C 639.453125 46.015625 635.121094 50.34375 635.121094 55.6875 C 635.121094 56.292969 635.179688 56.886719 635.285156 57.464844 L 554.109375 104.328125 C 552.339844 102.054688 549.574219 100.585938 546.46875 100.585938 C 541.125 100.585938 536.792969 104.917969 536.792969 110.257812 C 536.792969 115.011719 540.222656 118.964844 544.742188 119.78125 L 544.742188 212.953125 C 540.222656 213.765625 536.792969 217.71875 536.792969 222.472656 C 536.792969 227.816406 541.125 232.148438 546.46875 232.148438 C 548.867188 232.148438 551.058594 231.273438 552.753906 229.828125 L 635.3125 277.496094 C 635.1875 278.113281 635.121094 278.75 635.121094 279.402344 C 635.121094 284.746094 639.453125 289.074219 644.796875 289.074219 C 650.136719 289.074219 654.46875 284.746094 654.46875 279.402344 C 654.46875 278.730469 654.398438 278.070312 654.265625 277.433594 L 736.121094 230.175781 C 737.746094 231.414062 739.773438 232.148438 741.976562 232.148438 C 747.316406 232.148438 751.648438 227.816406 751.648438 222.476562 C 751.644531 218.085938 748.730469 214.382812 744.730469 213.191406 Z M 644.792969 269.722656 C 641.171875 269.722656 638.011719 271.714844 636.355469 274.664062 L 554.710938 227.527344 C 555.617188 226.054688 556.136719 224.324219 556.136719 222.472656 C 556.136719 217.550781 552.464844 213.488281 547.710938 212.878906 L 547.710938 119.847656 C 552.464844 119.234375 556.136719 115.171875 556.136719 110.253906 C 556.136719 109.085938 555.929688 107.964844 555.550781 106.925781 L 636.296875 60.308594 C 637.9375 63.316406 641.128906 65.355469 644.796875 65.355469 C 648.441406 65.355469 651.617188 63.339844 653.265625 60.359375 L 733.082031 106.441406 C 732.582031 107.613281 732.304688 108.902344 732.304688 110.253906 C 732.304688 115.527344 736.515625 119.808594 741.761719 119.929688 L 741.761719 212.800781 C 736.519531 212.914062 732.304688 217.199219 732.304688 222.472656 C 732.304688 224.507812 732.933594 226.398438 734.011719 227.957031 L 653.207031 274.613281 C 651.535156 271.6875 648.394531 269.722656 644.792969 269.722656 Z M 644.792969 269.722656 " fill-opacity="1" fill-rule="nonzero"/><path fill="#f5f1e6" d="M 959.589844 440.1875 L 959.589844 346.523438 C 963.589844 345.335938 966.507812 341.628906 966.507812 337.246094 C 966.507812 331.902344 962.179688 327.574219 956.835938 327.574219 C 953.917969 327.574219 951.300781 328.867188 949.523438 330.914062 L 869.152344 284.511719 C 869.269531 283.917969 869.328125 283.304688 869.328125 282.679688 C 869.328125 277.335938 864.996094 273.003906 859.65625 273.003906 C 854.3125 273.003906 849.984375 277.335938 849.984375 282.679688 C 849.984375 283.28125 850.039062 283.875 850.144531 284.453125 L 768.96875 331.320312 C 767.199219 329.042969 764.433594 327.578125 761.328125 327.578125 C 755.984375 327.578125 751.65625 331.90625 751.65625 337.25 C 751.65625 342.003906 755.085938 345.957031 759.601562 346.769531 L 759.601562 439.945312 C 755.082031 440.757812 751.65625 444.710938 751.65625 449.464844 C 751.65625 454.808594 755.984375 459.136719 761.328125 459.136719 C 763.726562 459.136719 765.917969 458.261719 767.613281 456.820312 L 850.171875 504.488281 C 850.046875 505.105469 849.984375 505.742188 849.984375 506.394531 C 849.984375 511.734375 854.3125 516.066406 859.65625 516.066406 C 864.996094 516.066406 869.328125 511.734375 869.328125 506.394531 C 869.328125 505.71875 869.261719 505.0625 869.128906 504.425781 L 950.980469 457.167969 C 952.605469 458.402344 954.632812 459.136719 956.835938 459.136719 C 962.179688 459.136719 966.507812 454.808594 966.507812 449.464844 C 966.507812 445.078125 963.589844 441.371094 959.589844 440.1875 Z M 859.652344 496.714844 C 856.03125 496.714844 852.875 498.707031 851.214844 501.652344 L 769.570312 454.515625 C 770.476562 453.046875 770.996094 451.316406 770.996094 449.460938 C 770.996094 444.542969 767.324219 440.480469 762.574219 439.871094 L 762.574219 346.84375 C 767.324219 346.230469 770.996094 342.167969 770.996094 337.253906 C 770.996094 336.082031 770.789062 334.960938 770.410156 333.921875 L 851.15625 287.304688 C 852.796875 290.3125 855.988281 292.355469 859.65625 292.355469 C 863.300781 292.355469 866.476562 290.335938 868.125 287.355469 L 947.945312 333.441406 C 947.441406 334.609375 947.164062 335.898438 947.164062 337.253906 C 947.164062 342.523438 951.375 346.804688 956.621094 346.925781 L 956.621094 439.796875 C 951.378906 439.910156 947.164062 444.199219 947.164062 449.46875 C 947.164062 451.503906 947.796875 453.394531 948.871094 454.957031 L 868.066406 501.609375 C 866.394531 498.683594 863.253906 496.714844 859.652344 496.714844 Z M 859.652344 496.714844 " fill-opacity="1" fill-rule="nonzero"/><path fill="#f5f1e6" d="M 503.109375 363.445312 L 503.109375 316.074219 C 505.132812 315.472656 506.609375 313.601562 506.609375 311.386719 C 506.609375 308.679688 504.417969 306.492188 501.714844 306.492188 C 500.238281 306.492188 498.914062 307.144531 498.015625 308.179688 L 457.367188 284.710938 C 457.421875 284.410156 457.457031 284.101562 457.457031 283.785156 C 457.457031 281.082031 455.265625 278.890625 452.5625 278.890625 C 449.859375 278.890625 447.667969 281.082031 447.667969 283.785156 C 447.667969 284.089844 447.699219 284.390625 447.75 284.683594 L 406.695312 308.386719 C 405.800781 307.230469 404.398438 306.492188 402.828125 306.492188 C 400.125 306.492188 397.933594 308.679688 397.933594 311.386719 C 397.933594 313.789062 399.667969 315.785156 401.953125 316.199219 L 401.953125 363.320312 C 399.667969 363.734375 397.933594 365.730469 397.933594 368.132812 C 397.933594 370.839844 400.125 373.027344 402.828125 373.027344 C 404.042969 373.027344 405.152344 372.585938 406.007812 371.855469 L 447.761719 395.964844 C 447.699219 396.277344 447.667969 396.597656 447.667969 396.925781 C 447.667969 399.632812 449.859375 401.820312 452.5625 401.820312 C 455.265625 401.820312 457.457031 399.632812 457.457031 396.925781 C 457.457031 396.585938 457.421875 396.253906 457.355469 395.933594 L 498.753906 372.03125 C 499.574219 372.65625 500.597656 373.027344 501.714844 373.027344 C 504.417969 373.027344 506.609375 370.835938 506.609375 368.132812 C 506.609375 365.917969 505.136719 364.046875 503.109375 363.445312 Z M 452.566406 392.035156 C 450.734375 392.035156 449.136719 393.042969 448.300781 394.535156 L 407.007812 370.695312 C 407.464844 369.953125 407.730469 369.078125 407.730469 368.140625 C 407.730469 365.652344 405.875 363.597656 403.46875 363.289062 L 403.46875 316.242188 C 405.875 315.929688 407.730469 313.875 407.730469 311.386719 C 407.730469 310.796875 407.625 310.230469 407.433594 309.703125 L 448.269531 286.125 C 449.097656 287.644531 450.710938 288.679688 452.566406 288.679688 C 454.410156 288.679688 456.019531 287.65625 456.851562 286.148438 L 497.21875 309.453125 C 496.964844 310.046875 496.824219 310.695312 496.824219 311.382812 C 496.824219 314.046875 498.957031 316.214844 501.605469 316.273438 L 501.605469 363.242188 C 498.957031 363.304688 496.824219 365.46875 496.824219 368.132812 C 496.824219 369.167969 497.144531 370.121094 497.6875 370.910156 L 456.820312 394.503906 C 455.976562 393.03125 454.386719 392.035156 452.566406 392.035156 Z M 452.566406 392.035156 " fill-opacity="1" fill-rule="nonzero"/><path fill="#f5f1e6" d="M 239.539062 476.199219 L 239.539062 408.007812 C 242.449219 407.144531 244.574219 404.449219 244.574219 401.253906 C 244.574219 397.367188 241.421875 394.210938 237.53125 394.210938 C 235.40625 394.210938 233.5 395.15625 232.207031 396.644531 L 173.695312 362.859375 C 173.777344 362.429688 173.820312 361.980469 173.820312 361.523438 C 173.820312 357.636719 170.667969 354.480469 166.777344 354.480469 C 162.890625 354.480469 159.734375 357.636719 159.734375 361.523438 C 159.734375 361.964844 159.777344 362.394531 159.855469 362.816406 L 100.753906 396.941406 C 99.464844 395.28125 97.449219 394.214844 95.1875 394.214844 C 91.300781 394.214844 88.144531 397.371094 88.144531 401.257812 C 88.144531 404.722656 90.640625 407.597656 93.933594 408.1875 L 93.933594 476.023438 C 90.640625 476.617188 88.144531 479.496094 88.144531 482.953125 C 88.144531 486.84375 91.300781 489.996094 95.1875 489.996094 C 96.933594 489.996094 98.53125 489.359375 99.761719 488.308594 L 159.871094 523.011719 C 159.78125 523.457031 159.734375 523.925781 159.734375 524.398438 C 159.734375 528.289062 162.890625 531.441406 166.777344 531.441406 C 170.667969 531.441406 173.820312 528.289062 173.820312 524.398438 C 173.820312 523.90625 173.773438 523.429688 173.675781 522.964844 L 233.269531 488.558594 C 234.453125 489.460938 235.929688 489.992188 237.53125 489.992188 C 241.421875 489.992188 244.574219 486.839844 244.574219 482.949219 C 244.574219 479.761719 242.453125 477.0625 239.539062 476.199219 Z M 166.78125 517.355469 C 164.144531 517.355469 161.847656 518.804688 160.640625 520.949219 L 101.199219 486.632812 C 101.855469 485.5625 102.234375 484.300781 102.234375 482.949219 C 102.234375 479.371094 99.5625 476.410156 96.101562 475.964844 L 96.101562 408.238281 C 99.5625 407.792969 102.234375 404.835938 102.234375 401.253906 C 102.234375 400.40625 102.085938 399.585938 101.808594 398.832031 L 160.59375 364.894531 C 161.789062 367.085938 164.113281 368.570312 166.78125 368.570312 C 169.4375 368.570312 171.746094 367.101562 172.949219 364.933594 L 231.058594 398.484375 C 230.695312 399.335938 230.488281 400.273438 230.488281 401.257812 C 230.488281 405.09375 233.558594 408.214844 237.371094 408.300781 L 237.371094 475.914062 C 233.558594 476 230.488281 479.117188 230.488281 482.953125 C 230.488281 484.4375 230.949219 485.8125 231.730469 486.949219 L 172.898438 520.914062 C 171.691406 518.789062 169.402344 517.355469 166.78125 517.355469 Z M 166.78125 517.355469 " fill-opacity="1" fill-rule="nonzero"/><g clip-path="url(#d7164580a7)"><path fill="#f5f1e6" d="M 155.332031 100.890625 L 155.332031 45.398438 C 157.703125 44.695312 159.433594 42.5 159.433594 39.902344 C 159.433594 36.734375 156.867188 34.167969 153.699219 34.167969 C 151.96875 34.167969 150.417969 34.9375 149.371094 36.148438 L 101.753906 8.65625 C 101.820312 8.304688 101.855469 7.941406 101.855469 7.570312 C 101.855469 4.402344 99.289062 1.835938 96.125 1.835938 C 92.957031 1.835938 90.390625 4.402344 90.390625 7.570312 C 90.390625 7.929688 90.421875 8.28125 90.488281 8.621094 L 42.394531 36.390625 C 41.34375 35.039062 39.707031 34.171875 37.863281 34.171875 C 34.699219 34.171875 32.132812 36.738281 32.132812 39.90625 C 32.132812 42.722656 34.160156 45.0625 36.839844 45.546875 L 36.839844 100.75 C 34.164062 101.230469 32.132812 103.574219 32.132812 106.390625 C 32.132812 109.554688 34.699219 112.121094 37.863281 112.121094 C 39.285156 112.121094 40.585938 111.605469 41.585938 110.75 L 90.503906 138.992188 C 90.429688 139.355469 90.390625 139.734375 90.390625 140.121094 C 90.390625 143.289062 92.957031 145.855469 96.125 145.855469 C 99.289062 145.855469 101.855469 143.289062 101.855469 140.121094 C 101.855469 139.722656 101.816406 139.332031 101.738281 138.957031 L 150.234375 110.957031 C 151.199219 111.691406 152.398438 112.125 153.703125 112.125 C 156.867188 112.125 159.4375 109.558594 159.4375 106.394531 C 159.433594 103.789062 157.703125 101.59375 155.332031 100.890625 Z M 96.125 134.382812 C 93.976562 134.382812 92.105469 135.5625 91.125 137.308594 L 42.753906 109.382812 C 43.289062 108.507812 43.597656 107.484375 43.597656 106.386719 C 43.597656 103.472656 41.421875 101.066406 38.605469 100.703125 L 38.605469 45.585938 C 41.421875 45.222656 43.597656 42.816406 43.597656 39.902344 C 43.597656 39.207031 43.476562 38.542969 43.25 37.929688 L 91.089844 10.3125 C 92.0625 12.09375 93.953125 13.300781 96.125 13.300781 C 98.289062 13.300781 100.167969 12.109375 101.144531 10.339844 L 148.433594 37.644531 C 148.140625 38.335938 147.972656 39.097656 147.972656 39.902344 C 147.972656 43.023438 150.46875 45.5625 153.574219 45.632812 L 153.574219 100.65625 C 150.46875 100.726562 147.972656 103.265625 147.972656 106.386719 C 147.972656 107.59375 148.347656 108.714844 148.984375 109.640625 L 101.109375 137.277344 C 100.117188 135.546875 98.257812 134.382812 96.125 134.382812 Z M 96.125 134.382812 " fill-opacity="1" fill-rule="nonzero"/></g><path fill="#f5f1e6" d="M 697.867188 402.914062 L 697.867188 347.417969 C 700.234375 346.71875 701.964844 344.523438 701.964844 341.925781 C 701.964844 338.757812 699.398438 336.191406 696.234375 336.191406 C 694.503906 336.191406 692.953125 336.957031 691.90625 338.171875 L 644.289062 310.679688 C 644.355469 310.328125 644.390625 309.964844 644.390625 309.589844 C 644.390625 306.425781 641.824219 303.859375 638.660156 303.859375 C 635.492188 303.859375 632.929688 306.425781 632.929688 309.589844 C 632.929688 309.949219 632.960938 310.304688 633.027344 310.644531 L 584.933594 338.410156 C 583.882812 337.0625 582.246094 336.195312 580.402344 336.195312 C 577.238281 336.195312 574.671875 338.761719 574.671875 341.925781 C 574.671875 344.742188 576.699219 347.085938 579.378906 347.566406 L 579.378906 402.769531 C 576.703125 403.253906 574.671875 405.59375 574.671875 408.410156 C 574.671875 411.578125 577.238281 414.144531 580.402344 414.144531 C 581.824219 414.144531 583.125 413.625 584.125 412.773438 L 633.042969 441.015625 C 632.96875 441.378906 632.929688 441.757812 632.929688 442.144531 C 632.929688 445.308594 635.496094 447.875 638.660156 447.875 C 641.820312 447.875 644.390625 445.308594 644.390625 442.144531 C 644.390625 441.742188 644.351562 441.355469 644.273438 440.976562 L 692.769531 412.980469 C 693.734375 413.710938 694.933594 414.148438 696.238281 414.148438 C 699.40625 414.148438 701.96875 411.582031 701.96875 408.414062 C 701.964844 405.808594 700.238281 403.617188 697.867188 402.914062 Z M 638.65625 436.402344 C 636.511719 436.402344 634.640625 437.585938 633.660156 439.328125 L 585.285156 411.402344 C 585.820312 410.53125 586.128906 409.503906 586.128906 408.410156 C 586.128906 405.496094 583.953125 403.085938 581.136719 402.726562 L 581.136719 347.609375 C 583.953125 347.246094 586.128906 344.839844 586.128906 341.925781 C 586.128906 341.234375 586.007812 340.570312 585.785156 339.957031 L 633.621094 312.335938 C 634.59375 314.117188 636.484375 315.328125 638.660156 315.328125 C 640.820312 315.328125 642.699219 314.132812 643.679688 312.367188 L 690.96875 339.667969 C 690.671875 340.363281 690.507812 341.125 690.507812 341.925781 C 690.507812 345.046875 693 347.589844 696.109375 347.65625 L 696.109375 402.679688 C 693 402.746094 690.507812 405.289062 690.507812 408.410156 C 690.507812 409.613281 690.878906 410.734375 691.515625 411.660156 L 643.640625 439.300781 C 642.652344 437.570312 640.789062 436.402344 638.65625 436.402344 Z M 638.65625 436.402344 " fill-opacity="1" fill-rule="nonzero"/><path fill="#f5f1e6" d="M 195.039062 327.546875 L 195.039062 272.054688 C 197.40625 271.351562 199.136719 269.15625 199.136719 266.558594 C 199.136719 263.390625 196.570312 260.824219 193.40625 260.824219 C 191.671875 260.824219 190.125 261.59375 189.074219 262.800781 L 141.457031 235.308594 C 141.527344 234.957031 141.5625 234.597656 141.5625 234.222656 C 141.5625 231.054688 138.992188 228.488281 135.828125 228.488281 C 132.660156 228.488281 130.09375 231.054688 130.09375 234.222656 C 130.09375 234.582031 130.128906 234.933594 130.191406 235.273438 L 82.097656 263.042969 C 81.050781 261.691406 79.414062 260.824219 77.570312 260.824219 C 74.402344 260.824219 71.835938 263.390625 71.835938 266.558594 C 71.835938 269.375 73.867188 271.714844 76.546875 272.199219 L 76.546875 327.402344 C 73.871094 327.882812 71.835938 330.226562 71.835938 333.042969 C 71.835938 336.207031 74.402344 338.777344 77.570312 338.777344 C 78.988281 338.777344 80.289062 338.257812 81.292969 337.402344 L 130.207031 365.644531 C 130.132812 366.007812 130.09375 366.390625 130.09375 366.773438 C 130.09375 369.941406 132.660156 372.507812 135.828125 372.507812 C 138.992188 372.507812 141.5625 369.941406 141.5625 366.773438 C 141.5625 366.375 141.519531 365.984375 141.441406 365.609375 L 189.941406 337.609375 C 190.902344 338.34375 192.101562 338.777344 193.40625 338.777344 C 196.574219 338.777344 199.140625 336.210938 199.140625 333.046875 C 199.136719 330.445312 197.40625 328.253906 195.039062 327.546875 Z M 135.828125 361.042969 C 133.683594 361.042969 131.8125 362.222656 130.828125 363.96875 L 82.457031 336.039062 C 82.992188 335.167969 83.300781 334.140625 83.300781 333.046875 C 83.300781 330.132812 81.125 327.722656 78.308594 327.363281 L 78.308594 272.246094 C 81.125 271.882812 83.300781 269.476562 83.300781 266.5625 C 83.300781 265.871094 83.179688 265.207031 82.957031 264.59375 L 130.792969 236.96875 C 131.765625 238.75 133.65625 239.957031 135.828125 239.957031 C 137.988281 239.957031 139.867188 238.765625 140.847656 236.996094 L 188.136719 264.300781 C 187.839844 264.992188 187.675781 265.753906 187.675781 266.558594 C 187.675781 269.679688 190.171875 272.21875 193.277344 272.289062 L 193.277344 327.3125 C 190.171875 327.378906 187.675781 329.921875 187.675781 333.042969 C 187.675781 334.25 188.046875 335.371094 188.6875 336.292969 L 140.8125 363.933594 C 139.820312 362.207031 137.960938 361.042969 135.828125 361.042969 Z M 135.828125 361.042969 " fill-opacity="1" fill-rule="nonzero"/><path fill="#f5f1e6" d="M 795.023438 266.59375 L 795.023438 211.101562 C 797.390625 210.398438 799.125 208.203125 799.125 205.605469 C 799.125 202.4375 796.554688 199.871094 793.390625 199.871094 C 791.660156 199.871094 790.109375 200.640625 789.058594 201.847656 L 741.441406 174.355469 C 741.511719 174.003906 741.546875 173.640625 741.546875 173.269531 C 741.546875 170.101562 738.980469 167.535156 735.816406 167.535156 C 732.652344 167.535156 730.082031 170.101562 730.082031 173.269531 C 730.082031 173.628906 730.117188 173.980469 730.179688 174.320312 L 682.085938 202.089844 C 681.039062 200.738281 679.402344 199.871094 677.558594 199.871094 C 674.390625 199.871094 671.824219 202.4375 671.824219 205.605469 C 671.824219 208.421875 673.855469 210.761719 676.535156 211.246094 L 676.535156 266.449219 C 673.859375 266.929688 671.824219 269.273438 671.824219 272.089844 C 671.824219 275.253906 674.390625 277.824219 677.558594 277.824219 C 678.976562 277.824219 680.277344 277.304688 681.28125 276.449219 L 730.195312 304.691406 C 730.121094 305.054688 730.082031 305.433594 730.082031 305.820312 C 730.082031 308.988281 732.648438 311.554688 735.816406 311.554688 C 738.980469 311.554688 741.546875 308.988281 741.546875 305.820312 C 741.546875 305.421875 741.503906 305.03125 741.429688 304.65625 L 789.925781 276.65625 C 790.886719 277.390625 792.089844 277.824219 793.394531 277.824219 C 796.558594 277.824219 799.125 275.257812 799.125 272.09375 C 799.125 269.488281 797.394531 267.296875 795.023438 266.59375 Z M 735.8125 300.085938 C 733.667969 300.085938 731.796875 301.265625 730.816406 303.011719 L 682.441406 275.082031 C 682.980469 274.210938 683.289062 273.1875 683.289062 272.089844 C 683.289062 269.175781 681.113281 266.769531 678.296875 266.40625 L 678.296875 211.285156 C 681.113281 210.925781 683.289062 208.519531 683.289062 205.605469 C 683.289062 204.910156 683.167969 204.246094 682.941406 203.632812 L 730.78125 176.011719 C 731.753906 177.792969 733.644531 179.003906 735.816406 179.003906 C 737.976562 179.003906 739.855469 177.808594 740.835938 176.039062 L 788.125 203.34375 C 787.828125 204.035156 787.664062 204.796875 787.664062 205.601562 C 787.664062 208.722656 790.160156 211.261719 793.265625 211.332031 L 793.265625 266.355469 C 790.160156 266.425781 787.664062 268.964844 787.664062 272.085938 C 787.664062 273.292969 788.035156 274.414062 788.675781 275.339844 L 740.800781 302.976562 C 739.808594 301.25 737.949219 300.085938 735.8125 300.085938 Z M 735.8125 300.085938 " fill-opacity="1" fill-rule="nonzero"/><path fill="#f5f1e6" d="M 811.472656 466.734375 L 811.472656 418.765625 C 813.347656 418.496094 814.789062 416.882812 814.789062 414.933594 C 814.789062 412.792969 813.054688 411.058594 810.914062 411.058594 C 809.597656 411.058594 808.441406 411.714844 807.738281 412.714844 L 766.226562 388.746094 C 766.523438 388.199219 766.691406 387.570312 766.691406 386.90625 C 766.691406 384.765625 764.960938 383.03125 762.820312 383.03125 C 760.679688 383.03125 758.945312 384.765625 758.945312 386.90625 C 758.945312 387.570312 759.113281 388.199219 759.410156 388.746094 L 717.539062 412.921875 C 716.859375 411.804688 715.628906 411.058594 714.226562 411.058594 C 712.085938 411.058594 710.351562 412.792969 710.351562 414.933594 C 710.351562 417.050781 712.050781 418.769531 714.160156 418.804688 L 714.160156 466.695312 C 712.050781 466.734375 710.351562 468.453125 710.351562 470.570312 C 710.351562 472.707031 712.085938 474.441406 714.226562 474.441406 C 715.5 474.441406 716.625 473.828125 717.332031 472.882812 L 759.410156 497.175781 C 759.113281 497.726562 758.945312 498.351562 758.945312 499.019531 C 758.945312 501.15625 760.679688 502.890625 762.820312 502.890625 C 764.960938 502.890625 766.691406 501.15625 766.691406 499.019531 C 766.691406 498.351562 766.523438 497.726562 766.226562 497.175781 L 807.96875 473.078125 C 808.679688 473.914062 809.734375 474.441406 810.917969 474.441406 C 813.058594 474.441406 814.792969 472.707031 814.792969 470.570312 C 814.789062 468.621094 813.347656 467.007812 811.472656 466.734375 Z M 766.113281 496.984375 C 765.433594 495.878906 764.210938 495.144531 762.820312 495.144531 C 761.425781 495.144531 760.203125 495.878906 759.523438 496.984375 L 717.460938 472.699219 C 717.863281 472.089844 718.101562 471.355469 718.101562 470.570312 C 718.101562 468.480469 716.453125 466.78125 714.386719 466.699219 L 714.386719 418.804688 C 716.453125 418.722656 718.101562 417.019531 718.101562 414.9375 C 718.101562 414.277344 717.9375 413.660156 717.648438 413.117188 L 759.523438 388.941406 C 760.203125 390.046875 761.425781 390.78125 762.820312 390.78125 C 764.210938 390.78125 765.433594 390.046875 766.113281 388.941406 L 807.621094 412.902344 C 807.253906 413.492188 807.042969 414.1875 807.042969 414.9375 C 807.042969 417.078125 808.777344 418.8125 810.917969 418.8125 C 811.03125 418.8125 811.144531 418.804688 811.253906 418.796875 L 811.253906 466.714844 C 811.144531 466.707031 811.03125 466.699219 810.917969 466.699219 C 808.777344 466.699219 807.042969 468.433594 807.042969 470.574219 C 807.042969 471.453125 807.335938 472.257812 807.828125 472.90625 Z M 766.113281 496.984375 " fill-opacity="1" fill-rule="nonzero"/><g clip-path="url(#a7baed9d6e)"><path fill="#f5f1e6" d="M 106.414062 312.847656 L 106.414062 264.875 C 108.289062 264.605469 109.730469 262.996094 109.730469 261.042969 C 109.730469 258.902344 107.996094 257.167969 105.855469 257.167969 C 104.542969 257.167969 103.382812 257.824219 102.679688 258.824219 L 61.164062 234.855469 C 61.460938 234.304688 61.628906 233.679688 61.628906 233.011719 C 61.628906 230.871094 59.894531 229.136719 57.753906 229.136719 C 55.613281 229.136719 53.882812 230.871094 53.882812 233.011719 C 53.882812 233.679688 54.050781 234.304688 54.347656 234.855469 L 12.472656 259.027344 C 11.796875 257.914062 10.566406 257.167969 9.164062 257.167969 C 7.023438 257.167969 5.289062 258.902344 5.289062 261.039062 C 5.289062 263.15625 6.988281 264.875 9.097656 264.914062 L 9.097656 312.804688 C 6.988281 312.839844 5.289062 314.558594 5.289062 316.675781 C 5.289062 318.816406 7.023438 320.550781 9.164062 320.550781 C 10.433594 320.550781 11.5625 319.9375 12.269531 318.992188 L 54.347656 343.285156 C 54.050781 343.832031 53.882812 344.457031 53.882812 345.125 C 53.882812 347.265625 55.613281 349 57.753906 349 C 59.894531 349 61.628906 347.265625 61.628906 345.125 C 61.628906 344.457031 61.460938 343.832031 61.164062 343.285156 L 102.90625 319.1875 C 103.617188 320.019531 104.671875 320.550781 105.855469 320.550781 C 107.996094 320.550781 109.730469 318.816406 109.730469 316.675781 C 109.730469 314.730469 108.289062 313.117188 106.414062 312.847656 Z M 61.054688 343.09375 C 60.371094 341.984375 59.152344 341.25 57.757812 341.25 C 56.363281 341.25 55.144531 341.984375 54.460938 343.09375 L 12.402344 318.808594 C 12.804688 318.195312 13.039062 317.464844 13.039062 316.675781 C 13.039062 314.589844 11.390625 312.890625 9.328125 312.808594 L 9.328125 264.914062 C 11.390625 264.828125 13.039062 263.128906 13.039062 261.042969 C 13.039062 260.386719 12.878906 259.765625 12.585938 259.226562 L 54.460938 235.050781 C 55.144531 236.15625 56.363281 236.890625 57.757812 236.890625 C 59.152344 236.890625 60.371094 236.15625 61.054688 235.050781 L 102.558594 259.011719 C 102.195312 259.601562 101.984375 260.296875 101.984375 261.042969 C 101.984375 263.183594 103.71875 264.917969 105.859375 264.917969 C 105.972656 264.917969 106.082031 264.914062 106.191406 264.902344 L 106.191406 312.824219 C 106.082031 312.8125 105.972656 312.808594 105.859375 312.808594 C 103.71875 312.808594 101.984375 314.542969 101.984375 316.683594 C 101.984375 317.558594 102.273438 318.367188 102.765625 319.015625 Z M 61.054688 343.09375 " fill-opacity="1" fill-rule="nonzero"/></g><path fill="#f5f1e6" d="M 687.523438 480.441406 L 687.523438 432.46875 C 689.398438 432.199219 690.839844 430.589844 690.839844 428.636719 C 690.839844 426.496094 689.105469 424.761719 686.964844 424.761719 C 685.648438 424.761719 684.492188 425.417969 683.789062 426.417969 L 642.273438 402.449219 C 642.570312 401.898438 642.738281 401.273438 642.738281 400.605469 C 642.738281 398.464844 641.003906 396.730469 638.863281 396.730469 C 636.722656 396.730469 634.988281 398.464844 634.988281 400.605469 C 634.988281 401.273438 635.160156 401.898438 635.453125 402.449219 L 593.582031 426.621094 C 592.902344 425.507812 591.675781 424.761719 590.273438 424.761719 C 588.132812 424.761719 586.398438 426.496094 586.398438 428.632812 C 586.398438 430.75 588.097656 432.46875 590.207031 432.507812 L 590.207031 480.398438 C 588.097656 480.433594 586.398438 482.152344 586.398438 484.269531 C 586.398438 486.410156 588.132812 488.144531 590.273438 488.144531 C 591.542969 488.144531 592.667969 487.53125 593.378906 486.585938 L 635.453125 510.878906 C 635.160156 511.425781 634.988281 512.050781 634.988281 512.71875 C 634.988281 514.859375 636.722656 516.59375 638.863281 516.59375 C 641.003906 516.59375 642.738281 514.859375 642.738281 512.71875 C 642.738281 512.050781 642.570312 511.425781 642.273438 510.878906 L 684.015625 486.78125 C 684.726562 487.613281 685.78125 488.144531 686.964844 488.144531 C 689.105469 488.144531 690.839844 486.410156 690.839844 484.269531 C 690.839844 482.324219 689.398438 480.710938 687.523438 480.441406 Z M 642.167969 510.6875 C 641.484375 509.582031 640.261719 508.847656 638.871094 508.847656 C 637.476562 508.847656 636.253906 509.582031 635.574219 510.6875 L 593.511719 486.402344 C 593.914062 485.792969 594.152344 485.0625 594.152344 484.273438 C 594.152344 482.1875 592.503906 480.488281 590.4375 480.40625 L 590.4375 432.507812 C 592.503906 432.425781 594.152344 430.722656 594.152344 428.640625 C 594.152344 427.984375 593.988281 427.363281 593.699219 426.824219 L 635.574219 402.644531 C 636.253906 403.75 637.476562 404.488281 638.871094 404.488281 C 640.261719 404.488281 641.484375 403.75 642.167969 402.644531 L 683.671875 426.605469 C 683.304688 427.195312 683.09375 427.894531 683.09375 428.640625 C 683.09375 430.78125 684.828125 432.515625 686.96875 432.515625 C 687.082031 432.515625 687.195312 432.507812 687.304688 432.5 L 687.304688 480.417969 C 687.195312 480.410156 687.082031 480.40625 686.96875 480.40625 C 684.828125 480.40625 683.09375 482.136719 683.09375 484.277344 C 683.09375 485.15625 683.386719 485.960938 683.878906 486.613281 Z M 642.167969 510.6875 " fill-opacity="1" fill-rule="nonzero"/><path fill="#f5f1e6" d="M 707.035156 216.375 L 707.035156 168.40625 C 708.910156 168.132812 710.347656 166.523438 710.347656 164.570312 C 710.347656 162.429688 708.617188 160.695312 706.476562 160.695312 C 705.160156 160.695312 704.003906 161.351562 703.300781 162.351562 L 661.785156 138.382812 C 662.082031 137.832031 662.25 137.207031 662.25 136.539062 C 662.25 134.398438 660.515625 132.664062 658.375 132.664062 C 656.234375 132.664062 654.5 134.398438 654.5 136.539062 C 654.5 137.207031 654.667969 137.832031 654.964844 138.382812 L 613.09375 162.554688 C 612.414062 161.441406 611.183594 160.695312 609.78125 160.695312 C 607.644531 160.695312 605.910156 162.429688 605.910156 164.570312 C 605.910156 166.683594 607.605469 168.40625 609.71875 168.441406 L 609.71875 216.332031 C 607.605469 216.367188 605.910156 218.085938 605.910156 220.203125 C 605.910156 222.34375 607.644531 224.078125 609.78125 224.078125 C 611.054688 224.078125 612.179688 223.464844 612.890625 222.519531 L 654.964844 246.8125 C 654.667969 247.359375 654.5 247.984375 654.5 248.652344 C 654.5 250.792969 656.234375 252.527344 658.375 252.527344 C 660.515625 252.527344 662.25 250.792969 662.25 248.652344 C 662.25 247.984375 662.082031 247.359375 661.785156 246.8125 L 703.527344 222.714844 C 704.238281 223.546875 705.292969 224.078125 706.476562 224.078125 C 708.617188 224.078125 710.347656 222.34375 710.347656 220.203125 C 710.351562 218.257812 708.910156 216.644531 707.035156 216.375 Z M 661.675781 246.621094 C 660.996094 245.515625 659.773438 244.78125 658.382812 244.78125 C 656.988281 244.78125 655.765625 245.515625 655.085938 246.621094 L 613.023438 222.339844 C 613.425781 221.726562 613.664062 220.996094 613.664062 220.207031 C 613.664062 218.121094 612.015625 216.421875 609.949219 216.339844 L 609.949219 168.441406 C 612.015625 168.359375 613.664062 166.660156 613.664062 164.574219 C 613.664062 163.917969 613.5 163.296875 613.210938 162.757812 L 655.085938 138.578125 C 655.765625 139.6875 656.988281 140.421875 658.382812 140.421875 C 659.773438 140.421875 660.996094 139.6875 661.675781 138.578125 L 703.179688 162.539062 C 702.816406 163.128906 702.605469 163.828125 702.605469 164.574219 C 702.605469 166.714844 704.339844 168.449219 706.480469 168.449219 C 706.59375 168.449219 706.707031 168.441406 706.816406 168.433594 L 706.816406 216.351562 C 706.707031 216.34375 706.59375 216.339844 706.480469 216.339844 C 704.339844 216.339844 702.605469 218.074219 702.605469 220.210938 C 702.605469 221.089844 702.898438 221.898438 703.390625 222.546875 Z M 661.675781 246.621094 " fill-opacity="1" fill-rule="nonzero"/><path fill="#f5f1e6" d="M 790.65625 111.882812 L 790.65625 63.914062 C 792.53125 63.644531 793.972656 62.03125 793.972656 60.082031 C 793.972656 57.941406 792.238281 56.207031 790.097656 56.207031 C 788.785156 56.207031 787.625 56.859375 786.921875 57.859375 L 745.40625 33.890625 C 745.703125 33.34375 745.871094 32.714844 745.871094 32.050781 C 745.871094 29.910156 744.136719 28.175781 741.996094 28.175781 C 739.855469 28.175781 738.121094 29.910156 738.121094 32.050781 C 738.121094 32.714844 738.292969 33.34375 738.589844 33.890625 L 696.714844 58.066406 C 696.039062 56.949219 694.808594 56.203125 693.40625 56.203125 C 691.265625 56.203125 689.53125 57.9375 689.53125 60.078125 C 689.53125 62.195312 691.230469 63.914062 693.339844 63.949219 L 693.339844 111.84375 C 691.230469 111.878906 689.53125 113.597656 689.53125 115.714844 C 689.53125 117.855469 691.265625 119.589844 693.40625 119.589844 C 694.675781 119.589844 695.804688 118.976562 696.511719 118.03125 L 738.589844 142.324219 C 738.292969 142.871094 738.121094 143.496094 738.121094 144.164062 C 738.121094 146.304688 739.855469 148.039062 741.996094 148.039062 C 744.136719 148.039062 745.871094 146.304688 745.871094 144.164062 C 745.871094 143.496094 745.703125 142.871094 745.40625 142.324219 L 787.148438 118.226562 C 787.859375 119.058594 788.914062 119.589844 790.097656 119.589844 C 792.238281 119.589844 793.972656 117.855469 793.972656 115.714844 C 793.972656 113.765625 792.535156 112.152344 790.65625 111.882812 Z M 745.300781 142.132812 C 744.617188 141.027344 743.394531 140.289062 742.003906 140.289062 C 740.609375 140.289062 739.386719 141.027344 738.707031 142.132812 L 696.644531 117.847656 C 697.046875 117.238281 697.285156 116.503906 697.285156 115.714844 C 697.285156 113.628906 695.636719 111.929688 693.570312 111.847656 L 693.570312 63.949219 C 695.636719 63.867188 697.285156 62.164062 697.285156 60.082031 C 697.285156 59.421875 697.121094 58.804688 696.832031 58.261719 L 738.707031 34.085938 C 739.386719 35.191406 740.609375 35.925781 742.003906 35.925781 C 743.394531 35.925781 744.617188 35.191406 745.300781 34.085938 L 786.804688 58.046875 C 786.4375 58.636719 786.226562 59.332031 786.226562 60.082031 C 786.226562 62.222656 787.960938 63.953125 790.101562 63.953125 C 790.214844 63.953125 790.328125 63.949219 790.4375 63.941406 L 790.4375 111.859375 C 790.328125 111.851562 790.214844 111.84375 790.101562 111.84375 C 787.960938 111.84375 786.226562 113.578125 786.226562 115.71875 C 786.226562 116.597656 786.519531 117.402344 787.011719 118.050781 Z M 745.300781 142.132812 " fill-opacity="1" fill-rule="nonzero"/><path fill="#f5f1e6" d="M 596.617188 520.757812 L 596.617188 472.789062 C 598.488281 472.519531 599.929688 470.90625 599.929688 468.957031 C 599.929688 466.816406 598.195312 465.082031 596.054688 465.082031 C 594.742188 465.082031 593.582031 465.738281 592.878906 466.734375 L 551.363281 442.765625 C 551.660156 442.21875 551.828125 441.59375 551.828125 440.925781 C 551.828125 438.785156 550.09375 437.050781 547.957031 437.050781 C 545.816406 437.050781 544.082031 438.785156 544.082031 440.925781 C 544.082031 441.59375 544.25 442.21875 544.546875 442.765625 L 502.675781 466.941406 C 501.996094 465.824219 500.765625 465.078125 499.363281 465.078125 C 497.222656 465.078125 495.488281 466.8125 495.488281 468.953125 C 495.488281 471.070312 497.1875 472.789062 499.296875 472.824219 L 499.296875 520.71875 C 497.1875 520.753906 495.488281 522.472656 495.488281 524.589844 C 495.488281 526.730469 497.222656 528.460938 499.363281 528.460938 C 500.636719 528.460938 501.761719 527.847656 502.46875 526.902344 L 544.546875 551.195312 C 544.25 551.746094 544.082031 552.371094 544.082031 553.039062 C 544.082031 555.175781 545.816406 556.910156 547.957031 556.910156 C 550.09375 556.910156 551.828125 555.175781 551.828125 553.039062 C 551.828125 552.371094 551.660156 551.746094 551.363281 551.195312 L 593.105469 527.097656 C 593.816406 527.933594 594.871094 528.460938 596.054688 528.460938 C 598.195312 528.460938 599.929688 526.730469 599.929688 524.589844 C 599.929688 522.644531 598.488281 521.03125 596.617188 520.757812 Z M 551.253906 551.007812 C 550.574219 549.902344 549.351562 549.164062 547.957031 549.164062 C 546.566406 549.164062 545.34375 549.902344 544.660156 551.007812 L 502.601562 526.722656 C 503.003906 526.113281 503.242188 525.378906 503.242188 524.589844 C 503.242188 522.503906 501.59375 520.804688 499.527344 520.722656 L 499.527344 472.828125 C 501.59375 472.746094 503.242188 471.042969 503.242188 468.960938 C 503.242188 468.300781 503.078125 467.679688 502.789062 467.140625 L 544.660156 442.964844 C 545.34375 444.070312 546.566406 444.804688 547.957031 444.804688 C 549.351562 444.804688 550.574219 444.070312 551.253906 442.964844 L 592.757812 466.925781 C 592.394531 467.515625 592.183594 468.210938 592.183594 468.960938 C 592.183594 471.097656 593.917969 472.832031 596.058594 472.832031 C 596.171875 472.832031 596.285156 472.828125 596.394531 472.820312 L 596.394531 520.738281 C 596.285156 520.730469 596.171875 520.722656 596.058594 520.722656 C 593.917969 520.722656 592.183594 522.457031 592.183594 524.597656 C 592.183594 525.476562 592.472656 526.28125 592.964844 526.929688 Z M 551.253906 551.007812 " fill-opacity="1" fill-rule="nonzero"/><path fill="#f5f1e6" d="M 458.527344 497.839844 L 458.527344 449.871094 C 460.398438 449.601562 461.839844 447.988281 461.839844 446.039062 C 461.839844 443.898438 460.105469 442.164062 457.964844 442.164062 C 456.652344 442.164062 455.492188 442.820312 454.792969 443.816406 L 413.273438 419.847656 C 413.570312 419.300781 413.742188 418.675781 413.742188 418.007812 C 413.742188 415.867188 412.007812 414.132812 409.867188 414.132812 C 407.726562 414.132812 405.992188 415.867188 405.992188 418.007812 C 405.992188 418.675781 406.160156 419.300781 406.457031 419.847656 L 364.585938 444.023438 C 363.90625 442.90625 362.675781 442.160156 361.273438 442.160156 C 359.132812 442.160156 357.398438 443.894531 357.398438 446.035156 C 357.398438 448.152344 359.097656 449.871094 361.207031 449.90625 L 361.207031 497.800781 C 359.097656 497.835938 357.398438 499.554688 357.398438 501.671875 C 357.398438 503.8125 359.132812 505.546875 361.273438 505.546875 C 362.546875 505.546875 363.671875 504.929688 364.378906 503.984375 L 406.457031 528.277344 C 406.160156 528.828125 405.992188 529.453125 405.992188 530.121094 C 405.992188 532.261719 407.726562 533.996094 409.867188 533.996094 C 412.007812 533.996094 413.742188 532.261719 413.742188 530.121094 C 413.742188 529.453125 413.570312 528.828125 413.273438 528.277344 L 455.015625 504.179688 C 455.726562 505.015625 456.78125 505.546875 457.964844 505.546875 C 460.105469 505.546875 461.839844 503.8125 461.839844 501.671875 C 461.839844 499.726562 460.398438 498.113281 458.527344 497.839844 Z M 413.164062 528.089844 C 412.484375 526.984375 411.261719 526.25 409.867188 526.25 C 408.476562 526.25 407.253906 526.984375 406.574219 528.089844 L 364.511719 503.804688 C 364.914062 503.195312 365.152344 502.460938 365.152344 501.671875 C 365.152344 499.585938 363.503906 497.886719 361.4375 497.804688 L 361.4375 449.910156 C 363.503906 449.828125 365.152344 448.125 365.152344 446.042969 C 365.152344 445.382812 364.988281 444.765625 364.699219 444.222656 L 406.574219 420.046875 C 407.253906 421.152344 408.476562 421.886719 409.867188 421.886719 C 411.261719 421.886719 412.484375 421.152344 413.164062 420.046875 L 454.667969 444.007812 C 454.304688 444.597656 454.09375 445.292969 454.09375 446.042969 C 454.09375 448.183594 455.828125 449.914062 457.96875 449.914062 C 458.082031 449.914062 458.195312 449.910156 458.304688 449.902344 L 458.304688 497.820312 C 458.195312 497.8125 458.082031 497.804688 457.96875 497.804688 C 455.828125 497.804688 454.09375 499.539062 454.09375 501.679688 C 454.09375 502.558594 454.386719 503.363281 454.878906 504.011719 Z M 413.164062 528.089844 " fill-opacity="1" fill-rule="nonzero"/><path fill="#f5f1e6" d="M 566.292969 216.375 L 566.292969 168.40625 C 568.167969 168.132812 569.605469 166.523438 569.605469 164.570312 C 569.605469 162.429688 567.871094 160.695312 565.734375 160.695312 C 564.417969 160.695312 563.261719 161.351562 562.558594 162.351562 L 521.042969 138.382812 C 521.339844 137.832031 521.507812 137.207031 521.507812 136.539062 C 521.507812 134.398438 519.773438 132.664062 517.632812 132.664062 C 515.492188 132.664062 513.757812 134.398438 513.757812 136.539062 C 513.757812 137.207031 513.925781 137.832031 514.222656 138.382812 L 472.351562 162.554688 C 471.671875 161.441406 470.441406 160.695312 469.039062 160.695312 C 466.902344 160.695312 465.167969 162.429688 465.167969 164.570312 C 465.167969 166.683594 466.863281 168.40625 468.976562 168.441406 L 468.976562 216.332031 C 466.863281 216.367188 465.167969 218.085938 465.167969 220.203125 C 465.167969 222.34375 466.902344 224.078125 469.039062 224.078125 C 470.3125 224.078125 471.4375 223.464844 472.148438 222.519531 L 514.222656 246.8125 C 513.925781 247.359375 513.757812 247.984375 513.757812 248.652344 C 513.757812 250.792969 515.492188 252.527344 517.632812 252.527344 C 519.773438 252.527344 521.507812 250.792969 521.507812 248.652344 C 521.507812 247.984375 521.339844 247.359375 521.042969 246.8125 L 562.78125 222.714844 C 563.496094 223.546875 564.550781 224.078125 565.734375 224.078125 C 567.871094 224.078125 569.605469 222.34375 569.605469 220.203125 C 569.609375 218.257812 568.167969 216.648438 566.292969 216.375 Z M 520.933594 246.621094 C 520.253906 245.515625 519.03125 244.78125 517.640625 244.78125 C 516.246094 244.78125 515.023438 245.515625 514.34375 246.621094 L 472.28125 222.339844 C 472.683594 221.726562 472.921875 220.996094 472.921875 220.207031 C 472.921875 218.121094 471.273438 216.421875 469.207031 216.339844 L 469.207031 168.441406 C 471.273438 168.359375 472.921875 166.660156 472.921875 164.574219 C 472.921875 163.917969 472.757812 163.296875 472.46875 162.757812 L 514.34375 138.578125 C 515.023438 139.6875 516.246094 140.421875 517.640625 140.421875 C 519.03125 140.421875 520.253906 139.6875 520.933594 138.578125 L 562.4375 162.539062 C 562.074219 163.128906 561.863281 163.828125 561.863281 164.574219 C 561.863281 166.714844 563.597656 168.449219 565.738281 168.449219 C 565.851562 168.449219 565.964844 168.441406 566.074219 168.433594 L 566.074219 216.351562 C 565.964844 216.34375 565.851562 216.339844 565.738281 216.339844 C 563.597656 216.339844 561.863281 218.074219 561.863281 220.210938 C 561.863281 221.089844 562.15625 221.898438 562.648438 222.546875 Z M 520.933594 246.621094 " fill-opacity="1" fill-rule="nonzero"/><g clip-path="url(#7a6cca593f)"><path fill="#f5f1e6" d="M 1015.410156 162.351562 L 1015.410156 114.382812 C 1017.285156 114.113281 1018.722656 112.503906 1018.722656 110.550781 C 1018.722656 108.410156 1016.988281 106.675781 1014.847656 106.675781 C 1013.535156 106.675781 1012.378906 107.332031 1011.675781 108.332031 L 970.160156 84.363281 C 970.457031 83.8125 970.625 83.1875 970.625 82.519531 C 970.625 80.378906 968.890625 78.644531 966.75 78.644531 C 964.609375 78.644531 962.875 80.378906 962.875 82.519531 C 962.875 83.1875 963.042969 83.8125 963.339844 84.363281 L 921.46875 108.535156 C 920.789062 107.421875 919.558594 106.675781 918.15625 106.675781 C 916.015625 106.675781 914.285156 108.410156 914.285156 110.550781 C 914.285156 112.664062 915.980469 114.382812 918.09375 114.421875 L 918.09375 162.3125 C 915.980469 162.347656 914.285156 164.066406 914.285156 166.183594 C 914.285156 168.324219 916.015625 170.058594 918.15625 170.058594 C 919.429688 170.058594 920.554688 169.445312 921.265625 168.5 L 963.339844 192.792969 C 963.042969 193.339844 962.875 193.964844 962.875 194.632812 C 962.875 196.773438 964.609375 198.507812 966.75 198.507812 C 968.890625 198.507812 970.625 196.773438 970.625 194.632812 C 970.625 193.964844 970.457031 193.339844 970.160156 192.792969 L 1011.898438 168.695312 C 1012.613281 169.527344 1013.667969 170.058594 1014.847656 170.058594 C 1016.988281 170.058594 1018.722656 168.324219 1018.722656 166.183594 C 1018.726562 164.238281 1017.285156 162.625 1015.410156 162.351562 Z M 970.050781 192.601562 C 969.371094 191.492188 968.148438 190.757812 966.753906 190.757812 C 965.363281 190.757812 964.140625 191.492188 963.460938 192.601562 L 921.398438 168.316406 C 921.800781 167.703125 922.039062 166.972656 922.039062 166.183594 C 922.039062 164.097656 920.390625 162.398438 918.324219 162.316406 L 918.324219 114.421875 C 920.390625 114.335938 922.039062 112.636719 922.039062 110.550781 C 922.039062 109.894531 921.875 109.273438 921.585938 108.734375 L 963.460938 84.558594 C 964.140625 85.664062 965.363281 86.398438 966.753906 86.398438 C 968.148438 86.398438 969.371094 85.664062 970.050781 84.558594 L 1011.554688 108.519531 C 1011.191406 109.109375 1010.980469 109.804688 1010.980469 110.550781 C 1010.980469 112.691406 1012.714844 114.425781 1014.855469 114.425781 C 1014.96875 114.425781 1015.082031 114.421875 1015.191406 114.410156 L 1015.191406 162.328125 C 1015.082031 162.320312 1014.96875 162.3125 1014.855469 162.3125 C 1012.714844 162.3125 1010.980469 164.046875 1010.980469 166.1875 C 1010.980469 167.066406 1011.273438 167.871094 1011.761719 168.519531 Z M 970.050781 192.601562 " fill-opacity="1" fill-rule="nonzero"/></g><path fill="#f5f1e6" d="M 923.703125 298.4375 L 923.703125 250.46875 C 925.578125 250.199219 927.019531 248.585938 927.019531 246.632812 C 927.019531 244.492188 925.285156 242.757812 923.144531 242.757812 C 921.832031 242.757812 920.671875 243.414062 919.96875 244.414062 L 878.453125 220.445312 C 878.75 219.894531 878.917969 219.269531 878.917969 218.601562 C 878.917969 216.460938 877.183594 214.730469 875.042969 214.730469 C 872.902344 214.730469 871.167969 216.460938 871.167969 218.601562 C 871.167969 219.269531 871.339844 219.894531 871.636719 220.445312 L 829.761719 244.617188 C 829.085938 243.503906 827.855469 242.757812 826.453125 242.757812 C 824.3125 242.757812 822.578125 244.492188 822.578125 246.632812 C 822.578125 248.746094 824.277344 250.46875 826.386719 250.503906 L 826.386719 298.394531 C 824.277344 298.429688 822.578125 300.148438 822.578125 302.265625 C 822.578125 304.40625 824.3125 306.140625 826.453125 306.140625 C 827.722656 306.140625 828.851562 305.527344 829.558594 304.582031 L 871.636719 328.875 C 871.339844 329.421875 871.167969 330.046875 871.167969 330.714844 C 871.167969 332.855469 872.902344 334.589844 875.042969 334.589844 C 877.183594 334.589844 878.917969 332.855469 878.917969 330.714844 C 878.917969 330.046875 878.75 329.421875 878.453125 328.875 L 920.195312 304.777344 C 920.90625 305.609375 921.960938 306.140625 923.144531 306.140625 C 925.285156 306.140625 927.019531 304.40625 927.019531 302.265625 C 927.019531 300.320312 925.578125 298.707031 923.703125 298.4375 Z M 878.34375 328.683594 C 877.660156 327.578125 876.441406 326.839844 875.046875 326.839844 C 873.652344 326.839844 872.433594 327.578125 871.75 328.683594 L 829.6875 304.398438 C 830.09375 303.789062 830.328125 303.054688 830.328125 302.265625 C 830.328125 300.179688 828.679688 298.480469 826.613281 298.398438 L 826.613281 250.503906 C 828.679688 250.417969 830.328125 248.71875 830.328125 246.632812 C 830.328125 245.976562 830.167969 245.355469 829.875 244.816406 L 871.75 220.640625 C 872.433594 221.746094 873.652344 222.480469 875.046875 222.480469 C 876.441406 222.480469 877.660156 221.746094 878.34375 220.640625 L 919.847656 244.601562 C 919.484375 245.191406 919.273438 245.886719 919.273438 246.632812 C 919.273438 248.773438 921.007812 250.507812 923.148438 250.507812 C 923.257812 250.507812 923.371094 250.503906 923.480469 250.492188 L 923.480469 298.414062 C 923.371094 298.402344 923.257812 298.398438 923.148438 298.398438 C 921.007812 298.398438 919.273438 300.132812 919.273438 302.273438 C 919.273438 303.148438 919.5625 303.957031 920.054688 304.605469 Z M 878.34375 328.683594 " fill-opacity="1" fill-rule="nonzero"/><path fill="#f5f1e6" d="M 1005.519531 477.660156 L 1005.519531 429.691406 C 1007.390625 429.421875 1008.832031 427.808594 1008.832031 425.855469 C 1008.832031 423.714844 1007.097656 421.984375 1004.957031 421.984375 C 1003.644531 421.984375 1002.484375 422.636719 1001.78125 423.636719 L 960.265625 399.667969 C 960.5625 399.117188 960.730469 398.492188 960.730469 397.824219 C 960.730469 395.6875 958.996094 393.953125 956.859375 393.953125 C 954.71875 393.953125 952.984375 395.6875 952.984375 397.824219 C 952.984375 398.492188 953.152344 399.117188 953.449219 399.667969 L 911.578125 423.839844 C 910.898438 422.726562 909.667969 421.980469 908.265625 421.980469 C 906.125 421.980469 904.390625 423.714844 904.390625 425.855469 C 904.390625 427.96875 906.089844 429.691406 908.199219 429.726562 L 908.199219 477.617188 C 906.089844 477.652344 904.390625 479.371094 904.390625 481.488281 C 904.390625 483.628906 906.125 485.363281 908.265625 485.363281 C 909.539062 485.363281 910.664062 484.75 911.371094 483.804688 L 953.449219 508.097656 C 953.152344 508.644531 952.984375 509.269531 952.984375 509.9375 C 952.984375 512.078125 954.71875 513.8125 956.859375 513.8125 C 958.996094 513.8125 960.730469 512.078125 960.730469 509.9375 C 960.730469 509.269531 960.5625 508.644531 960.265625 508.097656 L 1002.007812 484 C 1002.71875 484.832031 1003.773438 485.363281 1004.957031 485.363281 C 1007.097656 485.363281 1008.832031 483.628906 1008.832031 481.488281 C 1008.835938 479.542969 1007.390625 477.933594 1005.519531 477.660156 Z M 960.160156 507.90625 C 959.476562 506.800781 958.257812 506.066406 956.863281 506.066406 C 955.46875 506.066406 954.25 506.800781 953.566406 507.90625 L 911.503906 483.625 C 911.910156 483.011719 912.144531 482.28125 912.144531 481.492188 C 912.144531 479.40625 910.496094 477.707031 908.429688 477.625 L 908.429688 429.726562 C 910.496094 429.644531 912.144531 427.945312 912.144531 425.859375 C 912.144531 425.203125 911.984375 424.582031 911.691406 424.042969 L 953.566406 399.867188 C 954.25 400.972656 955.46875 401.707031 956.863281 401.707031 C 958.257812 401.707031 959.476562 400.972656 960.160156 399.867188 L 1001.664062 423.828125 C 1001.300781 424.417969 1001.089844 425.113281 1001.089844 425.859375 C 1001.089844 428 1002.824219 429.734375 1004.964844 429.734375 C 1005.074219 429.734375 1005.1875 429.726562 1005.296875 429.71875 L 1005.296875 477.636719 C 1005.1875 477.628906 1005.074219 477.625 1004.964844 477.625 C 1002.824219 477.625 1001.089844 479.359375 1001.089844 481.5 C 1001.089844 482.375 1001.378906 483.183594 1001.871094 483.832031 Z M 960.160156 507.90625 " fill-opacity="1" fill-rule="nonzero"/><path fill="#f5f1e6" d="M 144.683594 434.628906 L 144.683594 386.660156 C 146.558594 386.390625 148 384.777344 148 382.828125 C 148 380.6875 146.265625 378.953125 144.125 378.953125 C 142.8125 378.953125 141.652344 379.605469 140.949219 380.605469 L 99.433594 356.636719 C 99.730469 356.085938 99.898438 355.460938 99.898438 354.796875 C 99.898438 352.65625 98.164062 350.921875 96.023438 350.921875 C 93.886719 350.921875 92.152344 352.65625 92.152344 354.796875 C 92.152344 355.460938 92.320312 356.085938 92.617188 356.636719 L 50.746094 380.808594 C 50.066406 379.695312 48.835938 378.949219 47.433594 378.949219 C 45.292969 378.949219 43.558594 380.683594 43.558594 382.824219 C 43.558594 384.941406 45.257812 386.660156 47.367188 386.695312 L 47.367188 434.585938 C 45.257812 434.621094 43.558594 436.34375 43.558594 438.457031 C 43.558594 440.597656 45.292969 442.332031 47.433594 442.332031 C 48.703125 442.332031 49.832031 441.71875 50.539062 440.773438 L 92.617188 465.066406 C 92.320312 465.613281 92.152344 466.242188 92.152344 466.90625 C 92.152344 469.046875 93.886719 470.78125 96.023438 470.78125 C 98.164062 470.78125 99.898438 469.046875 99.898438 466.90625 C 99.898438 466.242188 99.730469 465.613281 99.433594 465.066406 L 141.175781 440.96875 C 141.886719 441.800781 142.941406 442.332031 144.125 442.332031 C 146.265625 442.332031 148 440.597656 148 438.457031 C 148.003906 436.511719 146.5625 434.898438 144.683594 434.628906 Z M 99.328125 464.875 C 98.644531 463.769531 97.425781 463.035156 96.03125 463.035156 C 94.636719 463.035156 93.417969 463.769531 92.734375 464.875 L 50.671875 440.589844 C 51.078125 439.980469 51.3125 439.246094 51.3125 438.457031 C 51.3125 436.371094 49.664062 434.671875 47.597656 434.589844 L 47.597656 386.695312 C 49.664062 386.613281 51.3125 384.910156 51.3125 382.828125 C 51.3125 382.167969 51.152344 381.546875 50.859375 381.007812 L 92.734375 356.832031 C 93.417969 357.9375 94.636719 358.671875 96.03125 358.671875 C 97.425781 358.671875 98.644531 357.9375 99.328125 356.832031 L 140.832031 380.792969 C 140.46875 381.382812 140.257812 382.078125 140.257812 382.828125 C 140.257812 384.964844 141.992188 386.699219 144.132812 386.699219 C 144.242188 386.699219 144.355469 386.695312 144.464844 386.6875 L 144.464844 434.605469 C 144.355469 434.597656 144.242188 434.589844 144.132812 434.589844 C 141.992188 434.589844 140.257812 436.324219 140.257812 438.464844 C 140.257812 439.34375 140.546875 440.148438 141.039062 440.796875 Z M 99.328125 464.875 " fill-opacity="1" fill-rule="nonzero"/><path fill="#f5f1e6" d="M 215.988281 195.089844 L 215.988281 147.121094 C 217.859375 146.851562 219.300781 145.238281 219.300781 143.289062 C 219.300781 141.148438 217.566406 139.414062 215.425781 139.414062 C 214.113281 139.414062 212.953125 140.066406 212.253906 141.066406 L 170.738281 117.097656 C 171.03125 116.546875 171.203125 115.921875 171.203125 115.257812 C 171.203125 113.117188 169.46875 111.382812 167.328125 111.382812 C 165.1875 111.382812 163.453125 113.117188 163.453125 115.257812 C 163.453125 115.921875 163.621094 116.546875 163.917969 117.097656 L 122.046875 141.273438 C 121.367188 140.15625 120.136719 139.410156 118.734375 139.410156 C 116.59375 139.410156 114.859375 141.144531 114.859375 143.285156 C 114.859375 145.402344 116.558594 147.121094 118.671875 147.15625 L 118.671875 195.046875 C 116.558594 195.082031 114.859375 196.804688 114.859375 198.917969 C 114.859375 201.058594 116.59375 202.792969 118.734375 202.792969 C 120.007812 202.792969 121.132812 202.179688 121.84375 201.234375 L 163.917969 225.527344 C 163.621094 226.078125 163.453125 226.703125 163.453125 227.367188 C 163.453125 229.507812 165.1875 231.242188 167.328125 231.242188 C 169.46875 231.242188 171.203125 229.507812 171.203125 227.367188 C 171.203125 226.703125 171.03125 226.078125 170.738281 225.527344 L 212.476562 201.429688 C 213.1875 202.261719 214.246094 202.792969 215.425781 202.792969 C 217.566406 202.792969 219.300781 201.058594 219.300781 198.917969 C 219.304688 196.972656 217.863281 195.359375 215.988281 195.089844 Z M 170.628906 225.339844 C 169.949219 224.234375 168.726562 223.496094 167.332031 223.496094 C 165.941406 223.496094 164.71875 224.234375 164.035156 225.339844 L 121.976562 201.054688 C 122.378906 200.445312 122.617188 199.710938 122.617188 198.921875 C 122.617188 196.835938 120.96875 195.136719 118.902344 195.054688 L 118.902344 147.15625 C 120.96875 147.074219 122.617188 145.371094 122.617188 143.289062 C 122.617188 142.628906 122.453125 142.007812 122.164062 141.46875 L 164.035156 117.292969 C 164.71875 118.398438 165.941406 119.132812 167.332031 119.132812 C 168.726562 119.132812 169.949219 118.398438 170.628906 117.292969 L 212.132812 141.253906 C 211.769531 141.84375 211.558594 142.539062 211.558594 143.289062 C 211.558594 145.425781 213.292969 147.160156 215.433594 147.160156 C 215.546875 147.160156 215.660156 147.15625 215.769531 147.148438 L 215.769531 195.066406 C 215.660156 195.058594 215.546875 195.050781 215.433594 195.050781 C 213.292969 195.050781 211.558594 196.785156 211.558594 198.925781 C 211.558594 199.804688 211.847656 200.609375 212.339844 201.257812 Z M 170.628906 225.339844 " fill-opacity="1" fill-rule="nonzero"/><path fill="#f5f1e6" d="M 381.917969 97.582031 L 381.917969 49.613281 C 383.792969 49.34375 385.230469 47.730469 385.230469 45.78125 C 385.230469 43.640625 383.5 41.90625 381.359375 41.90625 C 380.042969 41.90625 378.886719 42.5625 378.183594 43.558594 L 336.667969 19.589844 C 336.964844 19.042969 337.132812 18.417969 337.132812 17.75 C 337.132812 15.609375 335.398438 13.875 333.257812 13.875 C 331.117188 13.875 329.382812 15.609375 329.382812 17.75 C 329.382812 18.417969 329.550781 19.042969 329.847656 19.589844 L 287.976562 43.765625 C 287.296875 42.648438 286.066406 41.902344 284.664062 41.902344 C 282.527344 41.902344 280.792969 43.636719 280.792969 45.777344 C 280.792969 47.894531 282.488281 49.613281 284.601562 49.648438 L 284.601562 97.542969 C 282.488281 97.578125 280.792969 99.296875 280.792969 101.414062 C 280.792969 103.554688 282.527344 105.285156 284.664062 105.285156 C 285.9375 105.285156 287.0625 104.671875 287.773438 103.726562 L 329.847656 128.019531 C 329.550781 128.570312 329.382812 129.195312 329.382812 129.863281 C 329.382812 132.003906 331.117188 133.734375 333.257812 133.734375 C 335.398438 133.734375 337.132812 132.003906 337.132812 129.863281 C 337.132812 129.195312 336.964844 128.570312 336.667969 128.019531 L 378.410156 103.921875 C 379.121094 104.757812 380.175781 105.285156 381.359375 105.285156 C 383.5 105.285156 385.230469 103.554688 385.230469 101.414062 C 385.234375 99.464844 383.792969 97.851562 381.917969 97.582031 Z M 336.558594 127.832031 C 335.878906 126.726562 334.65625 125.992188 333.265625 125.992188 C 331.871094 125.992188 330.648438 126.726562 329.96875 127.832031 L 287.902344 103.546875 C 288.304688 102.9375 288.542969 102.203125 288.542969 101.414062 C 288.542969 99.328125 286.894531 97.628906 284.828125 97.546875 L 284.828125 49.652344 C 286.894531 49.570312 288.542969 47.867188 288.542969 45.785156 C 288.542969 45.125 288.378906 44.503906 288.089844 43.964844 L 329.964844 19.789062 C 330.644531 20.894531 331.867188 21.628906 333.261719 21.628906 C 334.652344 21.628906 335.875 20.894531 336.558594 19.789062 L 378.0625 43.75 C 377.695312 44.339844 377.484375 45.035156 377.484375 45.785156 C 377.484375 47.921875 379.21875 49.65625 381.359375 49.65625 C 381.472656 49.65625 381.585938 49.652344 381.695312 49.644531 L 381.695312 97.5625 C 381.585938 97.554688 381.472656 97.546875 381.359375 97.546875 C 379.21875 97.546875 377.484375 99.28125 377.484375 101.421875 C 377.484375 102.300781 377.777344 103.105469 378.269531 103.753906 Z M 336.558594 127.832031 " fill-opacity="1" fill-rule="nonzero"/><path fill="#f5f1e6" d="M 381.671875 497.839844 L 381.671875 449.871094 C 383.546875 449.601562 384.984375 447.988281 384.984375 446.039062 C 384.984375 443.898438 383.253906 442.164062 381.113281 442.164062 C 379.796875 442.164062 378.640625 442.820312 377.9375 443.816406 L 336.421875 419.847656 C 336.71875 419.300781 336.886719 418.675781 336.886719 418.007812 C 336.886719 415.867188 335.152344 414.132812 333.011719 414.132812 C 330.871094 414.132812 329.136719 415.867188 329.136719 418.007812 C 329.136719 418.675781 329.304688 419.300781 329.601562 419.847656 L 287.730469 444.023438 C 287.050781 442.90625 285.820312 442.160156 284.421875 442.160156 C 282.28125 442.160156 280.546875 443.894531 280.546875 446.035156 C 280.546875 448.152344 282.242188 449.871094 284.355469 449.90625 L 284.355469 497.800781 C 282.242188 497.835938 280.546875 499.554688 280.546875 501.671875 C 280.546875 503.8125 282.28125 505.546875 284.421875 505.546875 C 285.691406 505.546875 286.816406 504.929688 287.527344 503.984375 L 329.601562 528.277344 C 329.304688 528.828125 329.136719 529.453125 329.136719 530.121094 C 329.136719 532.261719 330.871094 533.996094 333.011719 533.996094 C 335.152344 533.996094 336.886719 532.261719 336.886719 530.121094 C 336.886719 529.453125 336.71875 528.828125 336.421875 528.277344 L 378.164062 504.179688 C 378.875 505.015625 379.929688 505.546875 381.113281 505.546875 C 383.253906 505.546875 384.984375 503.8125 384.984375 501.671875 C 384.984375 499.726562 383.546875 498.113281 381.671875 497.839844 Z M 336.3125 528.089844 C 335.628906 526.984375 334.40625 526.25 333.015625 526.25 C 331.621094 526.25 330.398438 526.984375 329.71875 528.089844 L 287.65625 503.804688 C 288.058594 503.195312 288.296875 502.460938 288.296875 501.671875 C 288.296875 499.585938 286.648438 497.886719 284.582031 497.804688 L 284.582031 449.910156 C 286.648438 449.828125 288.296875 448.125 288.296875 446.042969 C 288.296875 445.382812 288.132812 444.765625 287.84375 444.222656 L 329.71875 420.046875 C 330.398438 421.152344 331.621094 421.886719 333.015625 421.886719 C 334.40625 421.886719 335.628906 421.152344 336.3125 420.046875 L 377.816406 444.007812 C 377.449219 444.597656 377.242188 445.292969 377.242188 446.042969 C 377.242188 448.183594 378.972656 449.914062 381.113281 449.914062 C 381.226562 449.914062 381.339844 449.910156 381.449219 449.902344 L 381.449219 497.820312 C 381.339844 497.8125 381.226562 497.804688 381.113281 497.804688 C 378.972656 497.804688 377.242188 499.539062 377.242188 501.679688 C 377.242188 502.558594 377.53125 503.363281 378.023438 504.011719 Z M 336.3125 528.089844 " fill-opacity="1" fill-rule="nonzero"/><path fill="#f5f1e6" d="M 370.164062 426.417969 L 370.164062 378.449219 C 372.039062 378.179688 373.476562 376.566406 373.476562 374.613281 C 373.476562 372.476562 371.746094 370.742188 369.605469 370.742188 C 368.289062 370.742188 367.132812 371.394531 366.429688 372.394531 L 324.914062 348.425781 C 325.210938 347.875 325.378906 347.25 325.378906 346.582031 C 325.378906 344.445312 323.644531 342.710938 321.503906 342.710938 C 319.363281 342.710938 317.628906 344.445312 317.628906 346.582031 C 317.628906 347.25 317.796875 347.875 318.09375 348.425781 L 276.222656 372.597656 C 275.542969 371.484375 274.3125 370.738281 272.914062 370.738281 C 270.773438 370.738281 269.039062 372.472656 269.039062 374.613281 C 269.039062 376.726562 270.738281 378.449219 272.847656 378.484375 L 272.847656 426.375 C 270.738281 426.410156 269.039062 428.128906 269.039062 430.246094 C 269.039062 432.386719 270.773438 434.121094 272.914062 434.121094 C 274.183594 434.121094 275.308594 433.507812 276.019531 432.5625 L 318.09375 456.855469 C 317.796875 457.402344 317.628906 458.027344 317.628906 458.695312 C 317.628906 460.835938 319.363281 462.570312 321.503906 462.570312 C 323.644531 462.570312 325.378906 460.835938 325.378906 458.695312 C 325.378906 458.027344 325.210938 457.402344 324.914062 456.855469 L 366.65625 432.757812 C 367.367188 433.589844 368.421875 434.121094 369.605469 434.121094 C 371.746094 434.121094 373.476562 432.386719 373.476562 430.246094 C 373.476562 428.300781 372.039062 426.6875 370.164062 426.417969 Z M 324.804688 456.664062 C 324.121094 455.558594 322.898438 454.824219 321.507812 454.824219 C 320.113281 454.824219 318.894531 455.558594 318.210938 456.664062 L 276.148438 432.382812 C 276.550781 431.769531 276.789062 431.039062 276.789062 430.25 C 276.789062 428.164062 275.140625 426.464844 273.074219 426.382812 L 273.074219 378.488281 C 275.140625 378.402344 276.789062 376.703125 276.789062 374.617188 C 276.789062 373.960938 276.625 373.339844 276.335938 372.800781 L 318.210938 348.625 C 318.890625 349.730469 320.113281 350.464844 321.507812 350.464844 C 322.898438 350.464844 324.121094 349.730469 324.804688 348.625 L 366.308594 372.585938 C 365.941406 373.175781 365.734375 373.871094 365.734375 374.617188 C 365.734375 376.757812 367.464844 378.492188 369.605469 378.492188 C 369.71875 378.492188 369.832031 378.484375 369.941406 378.476562 L 369.941406 426.394531 C 369.832031 426.386719 369.71875 426.382812 369.605469 426.382812 C 367.464844 426.382812 365.734375 428.117188 365.734375 430.257812 C 365.734375 431.132812 366.023438 431.941406 366.515625 432.589844 Z M 324.804688 456.664062 " fill-opacity="1" fill-rule="nonzero"/><path fill="#f5f1e6" d="M 438.074219 313.128906 L 438.074219 279.179688 C 439.402344 278.988281 440.421875 277.847656 440.421875 276.46875 C 440.421875 274.953125 439.195312 273.726562 437.679688 273.726562 C 436.75 273.726562 435.929688 274.1875 435.433594 274.894531 L 406.054688 257.933594 C 406.265625 257.546875 406.382812 257.105469 406.382812 256.632812 C 406.382812 255.117188 405.15625 253.890625 403.640625 253.890625 C 402.125 253.890625 400.898438 255.117188 400.898438 256.632812 C 400.898438 257.105469 401.015625 257.550781 401.226562 257.933594 L 371.597656 275.042969 C 371.117188 274.253906 370.246094 273.726562 369.253906 273.726562 C 367.738281 273.726562 366.511719 274.953125 366.511719 276.46875 C 366.511719 277.96875 367.714844 279.183594 369.207031 279.207031 L 369.207031 313.097656 C 367.710938 313.121094 366.511719 314.339844 366.511719 315.835938 C 366.511719 317.351562 367.738281 318.578125 369.253906 318.578125 C 370.152344 318.578125 370.953125 318.148438 371.449219 317.476562 L 401.226562 334.671875 C 401.015625 335.058594 400.898438 335.5 400.898438 335.972656 C 400.898438 337.484375 402.125 338.714844 403.640625 338.714844 C 405.15625 338.714844 406.382812 337.484375 406.382812 335.972656 C 406.382812 335.5 406.265625 335.054688 406.054688 334.671875 L 435.59375 317.617188 C 436.097656 318.207031 436.84375 318.582031 437.679688 318.582031 C 439.195312 318.582031 440.421875 317.355469 440.421875 315.839844 C 440.421875 314.460938 439.402344 313.320312 438.074219 313.128906 Z M 405.976562 334.535156 C 405.492188 333.75 404.632812 333.230469 403.644531 333.230469 C 402.65625 333.230469 401.792969 333.753906 401.3125 334.535156 L 371.546875 317.347656 C 371.832031 316.917969 372 316.398438 372 315.839844 C 372 314.363281 370.832031 313.160156 369.371094 313.101562 L 369.371094 279.207031 C 370.832031 279.148438 372 277.945312 372 276.46875 C 372 276.003906 371.882812 275.5625 371.679688 275.179688 L 401.3125 258.070312 C 401.796875 258.851562 402.660156 259.371094 403.648438 259.371094 C 404.632812 259.371094 405.496094 258.851562 405.980469 258.070312 L 435.351562 275.03125 C 435.09375 275.449219 434.941406 275.941406 434.941406 276.46875 C 434.941406 277.980469 436.167969 279.210938 437.683594 279.210938 C 437.765625 279.210938 437.84375 279.207031 437.921875 279.199219 L 437.921875 313.109375 C 437.84375 313.105469 437.765625 313.097656 437.683594 313.097656 C 436.167969 313.097656 434.941406 314.324219 434.941406 315.839844 C 434.941406 316.460938 435.148438 317.03125 435.496094 317.492188 Z M 405.976562 334.535156 " fill-opacity="1" fill-rule="nonzero"/><path fill="#f5f1e6" d="M 737.9375 428.339844 L 737.9375 393.054688 C 739.3125 392.859375 740.375 391.671875 740.375 390.238281 C 740.375 388.664062 739.101562 387.386719 737.527344 387.386719 C 736.558594 387.386719 735.707031 387.867188 735.191406 388.605469 L 704.65625 370.976562 C 704.871094 370.570312 704.996094 370.113281 704.996094 369.621094 C 704.996094 368.046875 703.722656 366.773438 702.148438 366.773438 C 700.574219 366.773438 699.296875 368.050781 699.296875 369.621094 C 699.296875 370.113281 699.421875 370.574219 699.640625 370.976562 L 668.839844 388.753906 C 668.339844 387.933594 667.4375 387.386719 666.40625 387.386719 C 664.832031 387.386719 663.558594 388.660156 663.558594 390.234375 C 663.558594 391.789062 664.808594 393.054688 666.359375 393.082031 L 666.359375 428.308594 C 664.808594 428.335938 663.558594 429.597656 663.558594 431.15625 C 663.558594 432.730469 664.832031 434.007812 666.40625 434.007812 C 667.339844 434.007812 668.167969 433.554688 668.691406 432.859375 L 699.640625 450.726562 C 699.421875 451.132812 699.296875 451.589844 699.296875 452.078125 C 699.296875 453.652344 700.574219 454.929688 702.148438 454.929688 C 703.722656 454.929688 704.996094 453.652344 704.996094 452.078125 C 704.996094 451.589844 704.871094 451.128906 704.65625 450.726562 L 735.355469 433.003906 C 735.878906 433.617188 736.660156 434.007812 737.527344 434.007812 C 739.101562 434.007812 740.375 432.730469 740.375 431.15625 C 740.371094 429.726562 739.3125 428.539062 737.9375 428.339844 Z M 704.570312 450.589844 C 704.070312 449.777344 703.171875 449.234375 702.148438 449.234375 C 701.121094 449.234375 700.222656 449.777344 699.722656 450.589844 L 668.785156 432.726562 C 669.082031 432.277344 669.257812 431.742188 669.257812 431.160156 C 669.257812 429.625 668.046875 428.375 666.523438 428.316406 L 666.523438 393.085938 C 668.046875 393.023438 669.257812 391.773438 669.257812 390.238281 C 669.257812 389.757812 669.136719 389.300781 668.925781 388.902344 L 699.726562 371.121094 C 700.226562 371.933594 701.125 372.476562 702.148438 372.476562 C 703.175781 372.476562 704.074219 371.933594 704.574219 371.121094 L 735.101562 388.746094 C 734.832031 389.183594 734.679688 389.691406 734.679688 390.238281 C 734.679688 391.8125 735.953125 393.089844 737.527344 393.089844 C 737.609375 393.089844 737.691406 393.085938 737.773438 393.078125 L 737.773438 428.324219 C 737.691406 428.316406 737.609375 428.3125 737.527344 428.3125 C 735.953125 428.3125 734.679688 429.585938 734.679688 431.160156 C 734.679688 431.804688 734.890625 432.398438 735.253906 432.875 Z M 704.570312 450.589844 " fill-opacity="1" fill-rule="nonzero"/><path fill="#f5f1e6" d="M 787.617188 334.355469 L 787.617188 299.074219 C 788.996094 298.875 790.054688 297.691406 790.054688 296.253906 C 790.054688 294.679688 788.78125 293.40625 787.207031 293.40625 C 786.242188 293.40625 785.386719 293.886719 784.871094 294.621094 L 754.335938 276.992188 C 754.550781 276.589844 754.675781 276.128906 754.675781 275.640625 C 754.675781 274.066406 753.402344 272.792969 751.828125 272.792969 C 750.253906 272.792969 748.976562 274.066406 748.976562 275.640625 C 748.976562 276.128906 749.101562 276.59375 749.320312 276.992188 L 718.519531 294.773438 C 718.019531 293.953125 717.117188 293.402344 716.085938 293.402344 C 714.511719 293.402344 713.238281 294.675781 713.238281 296.25 C 713.238281 297.808594 714.488281 299.074219 716.039062 299.101562 L 716.039062 334.324219 C 714.488281 334.351562 713.238281 335.617188 713.238281 337.175781 C 713.238281 338.75 714.511719 340.023438 716.085938 340.023438 C 717.019531 340.023438 717.847656 339.574219 718.371094 338.875 L 749.320312 356.746094 C 749.101562 357.148438 748.976562 357.609375 748.976562 358.097656 C 748.976562 359.671875 750.253906 360.945312 751.828125 360.945312 C 753.402344 360.945312 754.675781 359.671875 754.675781 358.097656 C 754.675781 357.609375 754.550781 357.144531 754.335938 356.746094 L 785.035156 339.023438 C 785.558594 339.636719 786.339844 340.023438 787.207031 340.023438 C 788.78125 340.023438 790.054688 338.75 790.054688 337.175781 C 790.054688 335.742188 788.996094 334.558594 787.617188 334.355469 Z M 754.253906 356.605469 C 753.753906 355.792969 752.855469 355.25 751.828125 355.25 C 750.804688 355.25 749.90625 355.792969 749.40625 356.605469 L 718.46875 338.746094 C 718.765625 338.296875 718.941406 337.757812 718.941406 337.179688 C 718.941406 335.640625 717.726562 334.394531 716.207031 334.332031 L 716.207031 299.105469 C 717.726562 299.042969 718.941406 297.789062 718.941406 296.257812 C 718.941406 295.773438 718.820312 295.316406 718.609375 294.921875 L 749.40625 277.136719 C 749.910156 277.949219 750.808594 278.492188 751.832031 278.492188 C 752.859375 278.492188 753.757812 277.949219 754.257812 277.136719 L 784.785156 294.765625 C 784.515625 295.199219 784.359375 295.710938 784.359375 296.257812 C 784.359375 297.832031 785.636719 299.105469 787.210938 299.105469 C 787.292969 299.105469 787.375 299.105469 787.457031 299.09375 L 787.457031 334.339844 C 787.375 334.335938 787.292969 334.328125 787.210938 334.328125 C 785.636719 334.328125 784.359375 335.605469 784.359375 337.179688 C 784.359375 337.820312 784.574219 338.417969 784.9375 338.894531 Z M 754.253906 356.605469 " fill-opacity="1" fill-rule="nonzero"/><path fill="#f5f1e6" d="M 835.09375 212.773438 L 835.09375 177.488281 C 836.472656 177.289062 837.53125 176.101562 837.53125 174.667969 C 837.53125 173.09375 836.257812 171.820312 834.683594 171.820312 C 833.71875 171.820312 832.863281 172.300781 832.347656 173.035156 L 801.8125 155.40625 C 802.027344 155.003906 802.152344 154.542969 802.152344 154.054688 C 802.152344 152.480469 800.878906 151.207031 799.304688 151.207031 C 797.730469 151.207031 796.457031 152.480469 796.457031 154.054688 C 796.457031 154.542969 796.578125 155.003906 796.796875 155.40625 L 765.996094 173.1875 C 765.496094 172.363281 764.59375 171.816406 763.5625 171.816406 C 761.988281 171.816406 760.714844 173.089844 760.714844 174.664062 C 760.714844 176.222656 761.964844 177.488281 763.515625 177.515625 L 763.515625 212.738281 C 761.964844 212.765625 760.714844 214.027344 760.714844 215.589844 C 760.714844 217.164062 761.988281 218.4375 763.5625 218.4375 C 764.496094 218.4375 765.328125 217.988281 765.847656 217.289062 L 796.796875 235.160156 C 796.578125 235.5625 796.457031 236.023438 796.457031 236.511719 C 796.457031 238.085938 797.730469 239.359375 799.304688 239.359375 C 800.878906 239.359375 802.152344 238.085938 802.152344 236.511719 C 802.152344 236.023438 802.027344 235.558594 801.8125 235.160156 L 832.515625 217.433594 C 833.035156 218.046875 833.816406 218.4375 834.683594 218.4375 C 836.257812 218.4375 837.53125 217.164062 837.53125 215.589844 C 837.53125 214.15625 836.472656 212.972656 835.09375 212.773438 Z M 801.730469 235.019531 C 801.226562 234.207031 800.328125 233.664062 799.304688 233.664062 C 798.277344 233.664062 797.378906 234.207031 796.878906 235.019531 L 765.941406 217.160156 C 766.238281 216.707031 766.414062 216.171875 766.414062 215.589844 C 766.414062 214.054688 765.203125 212.808594 763.679688 212.746094 L 763.679688 177.515625 C 765.203125 177.453125 766.414062 176.203125 766.414062 174.671875 C 766.414062 174.1875 766.292969 173.730469 766.082031 173.335938 L 796.882812 155.550781 C 797.382812 156.363281 798.28125 156.90625 799.308594 156.90625 C 800.332031 156.90625 801.230469 156.363281 801.730469 155.550781 L 832.257812 173.175781 C 831.988281 173.613281 831.835938 174.121094 831.835938 174.671875 C 831.835938 176.246094 833.109375 177.519531 834.683594 177.519531 C 834.765625 177.519531 834.851562 177.515625 834.929688 177.507812 L 834.929688 212.753906 C 834.851562 212.75 834.765625 212.742188 834.683594 212.742188 C 833.109375 212.742188 831.835938 214.015625 831.835938 215.589844 C 831.835938 216.234375 832.046875 216.832031 832.410156 217.308594 Z M 801.730469 235.019531 " fill-opacity="1" fill-rule="nonzero"/><path fill="#f5f1e6" d="M 895.046875 188.800781 L 895.046875 153.519531 C 896.425781 153.320312 897.488281 152.136719 897.488281 150.703125 C 897.488281 149.128906 896.210938 147.851562 894.636719 147.851562 C 893.671875 147.851562 892.816406 148.332031 892.300781 149.066406 L 861.765625 131.4375 C 861.984375 131.035156 862.109375 130.574219 862.109375 130.085938 C 862.109375 128.511719 860.832031 127.238281 859.257812 127.238281 C 857.683594 127.238281 856.410156 128.511719 856.410156 130.085938 C 856.410156 130.574219 856.535156 131.039062 856.75 131.4375 L 825.949219 149.21875 C 825.449219 148.398438 824.546875 147.847656 823.515625 147.847656 C 821.941406 147.847656 820.667969 149.125 820.667969 150.699219 C 820.667969 152.253906 821.917969 153.519531 823.46875 153.546875 L 823.46875 188.773438 C 821.917969 188.800781 820.667969 190.0625 820.667969 191.621094 C 820.667969 193.195312 821.941406 194.46875 823.515625 194.46875 C 824.449219 194.46875 825.28125 194.019531 825.804688 193.324219 L 856.75 211.191406 C 856.535156 211.59375 856.410156 212.054688 856.410156 212.542969 C 856.410156 214.117188 857.683594 215.394531 859.257812 215.394531 C 860.832031 215.394531 862.109375 214.117188 862.109375 212.542969 C 862.109375 212.054688 861.984375 211.59375 861.765625 211.191406 L 892.46875 193.46875 C 892.992188 194.082031 893.769531 194.46875 894.636719 194.46875 C 896.210938 194.46875 897.488281 193.195312 897.488281 191.621094 C 897.484375 190.1875 896.425781 189 895.046875 188.800781 Z M 861.683594 211.050781 C 861.183594 210.238281 860.285156 209.695312 859.257812 209.695312 C 858.234375 209.695312 857.335938 210.238281 856.832031 211.050781 L 825.898438 193.191406 C 826.195312 192.738281 826.367188 192.203125 826.367188 191.621094 C 826.367188 190.085938 825.15625 188.835938 823.636719 188.777344 L 823.636719 153.546875 C 825.152344 153.484375 826.367188 152.234375 826.367188 150.703125 C 826.367188 150.21875 826.246094 149.761719 826.035156 149.363281 L 856.835938 131.582031 C 857.335938 132.394531 858.234375 132.9375 859.261719 132.9375 C 860.289062 132.9375 861.183594 132.394531 861.6875 131.582031 L 892.214844 149.207031 C 891.945312 149.644531 891.789062 150.152344 891.789062 150.703125 C 891.789062 152.273438 893.0625 153.550781 894.636719 153.550781 C 894.722656 153.550781 894.804688 153.546875 894.882812 153.539062 L 894.882812 188.785156 C 894.804688 188.777344 894.722656 188.773438 894.636719 188.773438 C 893.0625 188.773438 891.789062 190.046875 891.789062 191.621094 C 891.789062 192.265625 892.003906 192.859375 892.363281 193.335938 Z M 861.683594 211.050781 " fill-opacity="1" fill-rule="nonzero"/><path fill="#f5f1e6" d="M 338.9375 240.621094 L 338.9375 205.339844 C 340.316406 205.140625 341.378906 203.957031 341.378906 202.519531 C 341.378906 200.949219 340.101562 199.671875 338.527344 199.671875 C 337.5625 199.671875 336.707031 200.152344 336.191406 200.886719 L 305.65625 183.257812 C 305.875 182.855469 305.996094 182.394531 305.996094 181.90625 C 305.996094 180.332031 304.722656 179.058594 303.148438 179.058594 C 301.574219 179.058594 300.300781 180.332031 300.300781 181.90625 C 300.300781 182.394531 300.425781 182.859375 300.640625 183.257812 L 269.839844 201.039062 C 269.339844 200.21875 268.4375 199.667969 267.40625 199.667969 C 265.832031 199.667969 264.558594 200.945312 264.558594 202.519531 C 264.558594 204.074219 265.808594 205.339844 267.359375 205.367188 L 267.359375 240.59375 C 265.808594 240.621094 264.558594 241.882812 264.558594 243.441406 C 264.558594 245.015625 265.832031 246.289062 267.40625 246.289062 C 268.339844 246.289062 269.171875 245.839844 269.691406 245.144531 L 300.640625 263.011719 C 300.425781 263.414062 300.300781 263.875 300.300781 264.363281 C 300.300781 265.9375 301.574219 267.210938 303.148438 267.210938 C 304.722656 267.210938 305.996094 265.9375 305.996094 264.363281 C 305.996094 263.875 305.875 263.414062 305.65625 263.011719 L 336.359375 245.289062 C 336.878906 245.902344 337.660156 246.289062 338.527344 246.289062 C 340.101562 246.289062 341.378906 245.015625 341.378906 243.441406 C 341.375 242.007812 340.316406 240.824219 338.9375 240.621094 Z M 305.574219 262.871094 C 305.074219 262.0625 304.175781 261.519531 303.148438 261.519531 C 302.125 261.519531 301.226562 262.0625 300.722656 262.871094 L 269.789062 245.011719 C 270.085938 244.5625 270.257812 244.027344 270.257812 243.445312 C 270.257812 241.910156 269.046875 240.660156 267.527344 240.597656 L 267.527344 205.367188 C 269.042969 205.304688 270.257812 204.054688 270.257812 202.519531 C 270.257812 202.039062 270.136719 201.582031 269.925781 201.183594 L 300.726562 183.402344 C 301.226562 184.214844 302.125 184.757812 303.152344 184.757812 C 304.175781 184.757812 305.074219 184.214844 305.578125 183.402344 L 336.105469 201.027344 C 335.832031 201.464844 335.679688 201.972656 335.679688 202.519531 C 335.679688 204.09375 336.953125 205.371094 338.527344 205.371094 C 338.613281 205.371094 338.695312 205.367188 338.773438 205.359375 L 338.773438 240.605469 C 338.695312 240.597656 338.613281 240.59375 338.527344 240.59375 C 336.953125 240.59375 335.679688 241.867188 335.679688 243.441406 C 335.679688 244.085938 335.894531 244.679688 336.253906 245.15625 Z M 305.574219 262.871094 " fill-opacity="1" fill-rule="nonzero"/><path fill="#f5f1e6" d="M 610.636719 340.457031 L 610.636719 305.175781 C 612.015625 304.976562 613.078125 303.789062 613.078125 302.355469 C 613.078125 300.78125 611.800781 299.507812 610.226562 299.507812 C 609.261719 299.507812 608.40625 299.988281 607.890625 300.722656 L 577.355469 283.09375 C 577.574219 282.691406 577.695312 282.230469 577.695312 281.742188 C 577.695312 280.167969 576.421875 278.890625 574.847656 278.890625 C 573.273438 278.890625 572 280.167969 572 281.742188 C 572 282.230469 572.125 282.691406 572.339844 283.09375 L 541.539062 300.875 C 541.039062 300.050781 540.136719 299.503906 539.105469 299.503906 C 537.53125 299.503906 536.257812 300.777344 536.257812 302.351562 C 536.257812 303.910156 537.507812 305.175781 539.058594 305.203125 L 539.058594 340.425781 C 537.507812 340.453125 536.257812 341.714844 536.257812 343.277344 C 536.257812 344.851562 537.53125 346.125 539.105469 346.125 C 540.039062 346.125 540.871094 345.671875 541.390625 344.976562 L 572.339844 362.847656 C 572.125 363.25 572 363.710938 572 364.199219 C 572 365.773438 573.273438 367.046875 574.847656 367.046875 C 576.421875 367.046875 577.695312 365.773438 577.695312 364.199219 C 577.695312 363.710938 577.574219 363.246094 577.355469 362.847656 L 608.058594 345.121094 C 608.578125 345.734375 609.359375 346.125 610.226562 346.125 C 611.800781 346.125 613.078125 344.851562 613.078125 343.277344 C 613.074219 341.839844 612.015625 340.65625 610.636719 340.457031 Z M 577.273438 362.703125 C 576.773438 361.890625 575.875 361.347656 574.847656 361.347656 C 573.824219 361.347656 572.925781 361.890625 572.421875 362.703125 L 541.488281 344.84375 C 541.785156 344.394531 541.957031 343.855469 541.957031 343.277344 C 541.957031 341.738281 540.746094 340.492188 539.226562 340.429688 L 539.226562 305.203125 C 540.742188 305.140625 541.957031 303.886719 541.957031 302.355469 C 541.957031 301.871094 541.835938 301.414062 541.625 301.019531 L 572.425781 283.234375 C 572.925781 284.046875 573.824219 284.589844 574.851562 284.589844 C 575.875 284.589844 576.773438 284.046875 577.277344 283.234375 L 607.804688 300.863281 C 607.535156 301.296875 607.378906 301.808594 607.378906 302.355469 C 607.378906 303.929688 608.652344 305.203125 610.226562 305.203125 C 610.3125 305.203125 610.394531 305.203125 610.472656 305.191406 L 610.472656 340.4375 C 610.394531 340.433594 610.3125 340.425781 610.226562 340.425781 C 608.652344 340.425781 607.378906 341.703125 607.378906 343.277344 C 607.378906 343.917969 607.59375 344.515625 607.953125 344.992188 Z M 577.273438 362.703125 " fill-opacity="1" fill-rule="nonzero"/></svg>