<svg xmlns="http://www.w3.org/2000/svg" xmlns:xlink="http://www.w3.org/1999/xlink" width="1366" zoomAndPan="magnify" viewBox="0 0 1024.5 576" height="768" preserveAspectRatio="xMidYMid meet" version="1.0"><defs><clipPath id="12bcbd5ee8"><path d="M 319 371 L 556 371 L 556 575.859375 L 319 575.859375 Z M 319 371 " clip-rule="nonzero"/></clipPath><clipPath id="e650b98081"><path d="M 343 0.140625 L 348 0.140625 L 348 5 L 343 5 Z M 343 0.140625 " clip-rule="nonzero"/></clipPath><clipPath id="f8d765fdf7"><path d="M 381 0.140625 L 386 0.140625 L 386 5 L 381 5 Z M 381 0.140625 " clip-rule="nonzero"/></clipPath><clipPath id="fc543f1604"><path d="M 281.089844 468 L 286 468 L 286 473 L 281.089844 473 Z M 281.089844 468 " clip-rule="nonzero"/></clipPath><clipPath id="2892d8fc6d"><path d="M 755 257 L 760.855469 257 L 760.855469 263 L 755 263 Z M 755 257 " clip-rule="nonzero"/></clipPath></defs><path fill="#f5f1e6" d="M 448.195312 253.582031 L 448.085938 253.554688 L 377.253906 234.578125 L 377.222656 234.46875 L 358.246094 163.640625 L 410.175781 111.710938 L 410.285156 111.738281 L 481.113281 130.714844 L 481.140625 130.824219 L 500.121094 201.652344 L 448.191406 253.582031 Z M 377.570312 234.261719 L 448.078125 253.15625 L 499.695312 201.539062 L 480.800781 131.03125 L 410.292969 112.136719 L 358.675781 163.753906 Z M 377.570312 234.261719 " fill-opacity="1" fill-rule="nonzero"/><path fill="#f5f1e6" d="M 431.949219 375.539062 L 431.84375 375.511719 L 386.585938 363.386719 L 386.554688 363.28125 L 374.429688 318.023438 L 407.636719 284.8125 L 407.746094 284.839844 L 453.003906 296.964844 L 453.035156 297.074219 L 465.160156 342.332031 Z M 386.898438 363.074219 L 431.835938 375.113281 L 464.730469 342.21875 L 452.6875 297.285156 L 407.753906 285.242188 L 374.859375 318.136719 Z M 386.898438 363.074219 " fill-opacity="1" fill-rule="nonzero"/><path fill="#f5f1e6" d="M 334.253906 274.046875 L 334.148438 274.019531 L 311.464844 267.941406 L 311.433594 267.832031 L 305.355469 245.148438 L 322.039062 228.46875 L 322.144531 228.496094 L 344.828125 234.574219 L 344.859375 234.679688 L 350.9375 257.363281 Z M 311.777344 267.625 L 334.140625 273.617188 L 350.511719 257.246094 L 344.519531 234.882812 L 322.160156 228.894531 L 305.789062 245.265625 Z M 311.777344 267.625 " fill-opacity="1" fill-rule="nonzero"/><g clip-path="url(#12bcbd5ee8)"><path fill="#f5f1e6" d="M 496.625 575.867188 L 378.632812 575.867188 L 378.578125 575.769531 L 319.636719 473.679688 L 319.691406 473.585938 L 378.632812 371.496094 L 496.625 371.496094 L 496.675781 371.589844 L 555.617188 473.679688 L 555.5625 473.777344 Z M 378.851562 575.480469 L 496.402344 575.480469 L 555.175781 473.679688 L 496.402344 371.878906 L 378.851562 371.878906 L 320.078125 473.679688 Z M 378.851562 575.480469 " fill-opacity="1" fill-rule="nonzero"/></g><path fill="#f5f1e6" d="M 653.8125 381.867188 L 578.402344 381.867188 L 578.351562 381.773438 L 540.699219 316.5625 L 540.753906 316.464844 L 578.398438 251.253906 L 653.808594 251.253906 L 653.859375 251.351562 L 691.511719 316.5625 L 691.457031 316.65625 Z M 578.625 381.484375 L 653.59375 381.484375 L 691.074219 316.5625 L 653.59375 251.636719 L 578.625 251.636719 L 541.144531 316.5625 Z M 578.625 381.484375 " fill-opacity="1" fill-rule="nonzero"/><path fill="#f5f1e6" d="M 649.488281 543.308594 L 611.675781 543.308594 L 611.621094 543.210938 L 592.769531 510.558594 L 592.824219 510.464844 L 611.675781 477.808594 L 649.488281 477.808594 L 649.542969 477.90625 L 668.394531 510.558594 L 668.339844 510.65625 Z M 611.898438 542.925781 L 649.265625 542.925781 L 667.953125 510.558594 L 649.265625 478.195312 L 611.898438 478.195312 L 593.210938 510.558594 Z M 611.898438 542.925781 " fill-opacity="1" fill-rule="nonzero"/><path fill="#f5f1e6" d="M 602.804688 320.839844 L 541.292969 320.839844 L 541.238281 320.746094 L 510.535156 267.566406 L 510.589844 267.472656 L 541.292969 214.296875 L 602.804688 214.296875 L 602.859375 214.390625 L 633.558594 267.566406 L 633.507812 267.664062 Z M 541.511719 320.457031 L 602.582031 320.457031 L 633.117188 267.566406 L 602.582031 214.679688 L 541.511719 214.679688 L 510.976562 267.566406 Z M 541.511719 320.457031 " fill-opacity="1" fill-rule="nonzero"/><path fill="#f5f1e6" d="M 684.613281 219.878906 L 645.261719 219.878906 L 645.207031 219.78125 L 625.585938 185.800781 L 625.640625 185.703125 L 645.261719 151.71875 L 684.613281 151.71875 L 684.667969 151.816406 L 704.285156 185.800781 L 704.230469 185.894531 Z M 645.480469 219.496094 L 684.390625 219.496094 L 703.84375 185.800781 L 684.390625 152.101562 L 645.480469 152.101562 L 626.027344 185.800781 Z M 645.480469 219.496094 " fill-opacity="1" fill-rule="nonzero"/><path fill="#f5f1e6" d="M 682.367188 303.898438 L 662.578125 303.898438 L 662.523438 303.804688 L 652.6875 286.765625 L 662.582031 269.632812 L 682.367188 269.632812 L 682.421875 269.726562 L 692.257812 286.765625 Z M 662.800781 303.515625 L 682.144531 303.515625 L 691.8125 286.765625 L 682.144531 270.015625 L 662.800781 270.015625 L 653.128906 286.765625 Z M 662.800781 303.515625 " fill-opacity="1" fill-rule="nonzero"/><path fill="#f5f1e6" d="M 429.257812 363.035156 L 428.25 361.289062 L 426.234375 361.289062 L 426.234375 360.523438 L 428.695312 360.523438 L 429.921875 362.65625 Z M 429.257812 363.035156 " fill-opacity="1" fill-rule="nonzero"/><path fill="#f5f1e6" d="M 421.546875 361.289062 L 416.71875 361.289062 L 416.71875 360.523438 L 421.546875 360.523438 Z M 411.894531 361.289062 L 407.066406 361.289062 L 407.066406 360.523438 L 411.894531 360.523438 Z M 402.238281 361.289062 L 397.410156 361.289062 L 397.410156 360.523438 L 402.238281 360.523438 Z M 402.238281 361.289062 " fill-opacity="1" fill-rule="nonzero"/><path fill="#f5f1e6" d="M 390.378906 363.035156 L 389.714844 362.65625 L 390.941406 360.523438 L 393.398438 360.523438 L 393.398438 361.289062 L 391.386719 361.289062 Z M 390.378906 363.035156 " fill-opacity="1" fill-rule="nonzero"/><path fill="#f5f1e6" d="M 375.960938 388.050781 L 375.296875 387.667969 L 377.710938 383.476562 L 378.375 383.863281 Z M 380.789062 379.675781 L 380.125 379.289062 L 382.539062 375.101562 L 383.203125 375.488281 Z M 385.617188 371.300781 L 384.953125 370.914062 L 387.367188 366.726562 L 388.03125 367.113281 Z M 385.617188 371.300781 " fill-opacity="1" fill-rule="nonzero"/><path fill="#f5f1e6" d="M 373.292969 395.40625 L 372.066406 393.277344 L 373.292969 391.148438 L 373.957031 391.527344 L 372.949219 393.277344 L 373.957031 395.019531 Z M 373.292969 395.40625 " fill-opacity="1" fill-rule="nonzero"/><path fill="#f5f1e6" d="M 387.707031 420.414062 L 385.296875 416.226562 L 385.960938 415.84375 L 388.371094 420.03125 Z M 382.878906 412.039062 L 380.46875 407.851562 L 381.132812 407.46875 L 383.542969 411.65625 Z M 378.050781 403.664062 L 375.640625 399.476562 L 376.304688 399.09375 L 378.714844 403.28125 Z M 378.050781 403.664062 " fill-opacity="1" fill-rule="nonzero"/><path fill="#f5f1e6" d="M 393.398438 426.027344 L 390.941406 426.027344 L 389.714844 423.894531 L 390.378906 423.511719 L 391.386719 425.257812 L 393.398438 425.257812 Z M 393.398438 426.027344 " fill-opacity="1" fill-rule="nonzero"/><path fill="#f5f1e6" d="M 422.226562 426.027344 L 417.398438 426.027344 L 417.398438 425.257812 L 422.226562 425.257812 Z M 412.570312 426.027344 L 407.742188 426.027344 L 407.742188 425.257812 L 412.570312 425.257812 Z M 402.917969 426.027344 L 398.089844 426.027344 L 398.089844 425.257812 L 402.917969 425.257812 Z M 402.917969 426.027344 " fill-opacity="1" fill-rule="nonzero"/><path fill="#f5f1e6" d="M 428.695312 426.027344 L 426.234375 426.027344 L 426.234375 425.257812 L 428.25 425.257812 L 429.257812 423.511719 L 429.921875 423.894531 Z M 428.695312 426.027344 " fill-opacity="1" fill-rule="nonzero"/><path fill="#f5f1e6" d="M 432.269531 419.824219 L 431.605469 419.441406 L 434.015625 415.253906 L 434.679688 415.636719 Z M 437.097656 411.449219 L 436.433594 411.066406 L 438.84375 406.878906 L 439.507812 407.261719 Z M 441.925781 403.074219 L 441.261719 402.691406 L 443.671875 398.503906 L 444.335938 398.886719 Z M 441.925781 403.074219 " fill-opacity="1" fill-rule="nonzero"/><path fill="#f5f1e6" d="M 446.34375 395.40625 L 445.679688 395.019531 L 446.683594 393.277344 L 445.679688 391.527344 L 446.34375 391.148438 L 447.570312 393.277344 Z M 446.34375 395.40625 " fill-opacity="1" fill-rule="nonzero"/><path fill="#f5f1e6" d="M 443.332031 387.460938 L 440.917969 383.269531 L 441.582031 382.886719 L 443.996094 387.074219 Z M 438.503906 379.082031 L 436.089844 374.894531 L 436.753906 374.511719 L 439.167969 378.699219 Z M 433.675781 370.707031 L 431.261719 366.519531 L 431.925781 366.136719 L 434.339844 370.324219 Z M 433.675781 370.707031 " fill-opacity="1" fill-rule="nonzero"/><path fill="#f5f1e6" d="M 391.101562 363.03125 C 393.738281 363.03125 393.742188 358.933594 391.101562 358.933594 C 388.460938 358.933594 388.460938 363.03125 391.101562 363.03125 Z M 391.101562 363.03125 " fill-opacity="1" fill-rule="nonzero"/><path fill="#f5f1e6" d="M 428.464844 362.867188 C 431.101562 362.867188 431.105469 358.765625 428.464844 358.765625 C 425.820312 358.765625 425.820312 362.867188 428.464844 362.867188 Z M 428.464844 362.867188 " fill-opacity="1" fill-rule="nonzero"/><path fill="#f5f1e6" d="M 447.0625 395.015625 C 449.699219 395.015625 449.703125 390.917969 447.0625 390.917969 C 444.421875 390.917969 444.421875 395.015625 447.0625 395.015625 Z M 447.0625 395.015625 " fill-opacity="1" fill-rule="nonzero"/><path fill="#f5f1e6" d="M 428.132812 427.664062 C 430.773438 427.664062 430.777344 423.5625 428.132812 423.5625 C 425.492188 423.5625 425.492188 427.664062 428.132812 427.664062 Z M 428.132812 427.664062 " fill-opacity="1" fill-rule="nonzero"/><path fill="#f5f1e6" d="M 390.9375 427.828125 C 393.574219 427.828125 393.578125 423.726562 390.9375 423.726562 C 388.292969 423.726562 388.292969 427.828125 390.9375 427.828125 Z M 390.9375 427.828125 " fill-opacity="1" fill-rule="nonzero"/><path fill="#f5f1e6" d="M 372.339844 395.511719 C 374.976562 395.511719 374.980469 391.414062 372.339844 391.414062 C 369.695312 391.414062 369.695312 395.511719 372.339844 395.511719 Z M 372.339844 395.511719 " fill-opacity="1" fill-rule="nonzero"/><path fill="#f5f1e6" d="M 383.988281 4.410156 L 382.984375 2.664062 L 380.96875 2.664062 L 380.96875 1.898438 L 383.425781 1.898438 L 384.65625 4.03125 Z M 383.988281 4.410156 " fill-opacity="1" fill-rule="nonzero"/><path fill="#f5f1e6" d="M 376.277344 2.664062 L 371.449219 2.664062 L 371.449219 1.898438 L 376.277344 1.898438 Z M 366.625 2.664062 L 361.796875 2.664062 L 361.796875 1.898438 L 366.625 1.898438 Z M 356.96875 2.664062 L 352.140625 2.664062 L 352.140625 1.898438 L 356.96875 1.898438 Z M 356.96875 2.664062 " fill-opacity="1" fill-rule="nonzero"/><path fill="#f5f1e6" d="M 345.109375 4.410156 L 344.449219 4.03125 L 345.671875 1.898438 L 348.128906 1.898438 L 348.128906 2.664062 L 346.117188 2.664062 Z M 345.109375 4.410156 " fill-opacity="1" fill-rule="nonzero"/><path fill="#f5f1e6" d="M 330.695312 29.425781 L 330.03125 29.039062 L 332.445312 24.851562 L 333.109375 25.238281 Z M 335.523438 21.050781 L 334.859375 20.664062 L 337.273438 16.476562 L 337.9375 16.863281 Z M 340.351562 12.675781 L 339.6875 12.289062 L 342.101562 8.101562 L 342.765625 8.484375 Z M 340.351562 12.675781 " fill-opacity="1" fill-rule="nonzero"/><path fill="#f5f1e6" d="M 328.023438 36.78125 L 326.796875 34.652344 L 328.023438 32.523438 L 328.6875 32.902344 L 327.683594 34.652344 L 328.6875 36.394531 Z M 328.023438 36.78125 " fill-opacity="1" fill-rule="nonzero"/><path fill="#f5f1e6" d="M 342.4375 61.789062 L 340.027344 57.601562 L 340.691406 57.21875 L 343.101562 61.40625 Z M 337.609375 53.414062 L 335.199219 49.226562 L 335.863281 48.84375 L 338.273438 53.03125 Z M 332.78125 45.039062 L 330.371094 40.851562 L 331.035156 40.46875 L 333.445312 44.65625 Z M 332.78125 45.039062 " fill-opacity="1" fill-rule="nonzero"/><path fill="#f5f1e6" d="M 348.128906 67.398438 L 345.671875 67.398438 L 344.449219 65.269531 L 345.109375 64.886719 L 346.117188 66.632812 L 348.128906 66.632812 Z M 348.128906 67.398438 " fill-opacity="1" fill-rule="nonzero"/><path fill="#f5f1e6" d="M 376.960938 67.398438 L 372.132812 67.398438 L 372.132812 66.632812 L 376.960938 66.632812 Z M 367.304688 67.398438 L 362.476562 67.398438 L 362.476562 66.632812 L 367.304688 66.632812 Z M 357.652344 67.398438 L 352.824219 67.398438 L 352.824219 66.632812 L 357.652344 66.632812 Z M 357.652344 67.398438 " fill-opacity="1" fill-rule="nonzero"/><path fill="#f5f1e6" d="M 383.425781 67.398438 L 380.96875 67.398438 L 380.96875 66.632812 L 382.984375 66.632812 L 383.988281 64.886719 L 384.65625 65.269531 Z M 383.425781 67.398438 " fill-opacity="1" fill-rule="nonzero"/><path fill="#f5f1e6" d="M 387 61.199219 L 386.335938 60.816406 L 388.746094 56.628906 L 389.410156 57.011719 Z M 391.828125 52.824219 L 391.164062 52.441406 L 393.574219 48.253906 L 394.238281 48.636719 Z M 396.65625 44.449219 L 395.992188 44.066406 L 398.402344 39.878906 L 399.066406 40.261719 Z M 396.65625 44.449219 " fill-opacity="1" fill-rule="nonzero"/><path fill="#f5f1e6" d="M 401.074219 36.78125 L 400.414062 36.394531 L 401.417969 34.652344 L 400.414062 32.902344 L 401.074219 32.523438 L 402.304688 34.652344 Z M 401.074219 36.78125 " fill-opacity="1" fill-rule="nonzero"/><path fill="#f5f1e6" d="M 398.066406 28.832031 L 395.652344 24.644531 L 396.316406 24.261719 L 398.730469 28.449219 Z M 393.238281 20.457031 L 390.824219 16.269531 L 391.488281 15.886719 L 393.902344 20.074219 Z M 388.410156 12.082031 L 385.996094 7.894531 L 386.660156 7.511719 L 389.074219 11.699219 Z M 388.410156 12.082031 " fill-opacity="1" fill-rule="nonzero"/><g clip-path="url(#e650b98081)"><path fill="#f5f1e6" d="M 345.835938 4.40625 C 348.472656 4.40625 348.476562 0.308594 345.835938 0.308594 C 343.195312 0.308594 343.195312 4.40625 345.835938 4.40625 Z M 345.835938 4.40625 " fill-opacity="1" fill-rule="nonzero"/></g><g clip-path="url(#f8d765fdf7)"><path fill="#f5f1e6" d="M 383.199219 4.242188 C 385.835938 4.242188 385.839844 0.140625 383.199219 0.140625 C 380.554688 0.140625 380.554688 4.242188 383.199219 4.242188 Z M 383.199219 4.242188 " fill-opacity="1" fill-rule="nonzero"/></g><path fill="#f5f1e6" d="M 401.796875 36.390625 C 404.433594 36.390625 404.4375 32.292969 401.796875 32.292969 C 399.15625 32.292969 399.15625 36.390625 401.796875 36.390625 Z M 401.796875 36.390625 " fill-opacity="1" fill-rule="nonzero"/><path fill="#f5f1e6" d="M 382.867188 69.039062 C 385.507812 69.039062 385.511719 64.9375 382.867188 64.9375 C 380.226562 64.9375 380.226562 69.039062 382.867188 69.039062 Z M 382.867188 69.039062 " fill-opacity="1" fill-rule="nonzero"/><path fill="#f5f1e6" d="M 345.671875 69.203125 C 348.308594 69.203125 348.3125 65.101562 345.671875 65.101562 C 343.027344 65.101562 343.027344 69.203125 345.671875 69.203125 Z M 345.671875 69.203125 " fill-opacity="1" fill-rule="nonzero"/><path fill="#f5f1e6" d="M 327.074219 36.886719 C 329.710938 36.886719 329.714844 32.789062 327.074219 32.789062 C 324.429688 32.789062 324.429688 36.886719 327.074219 36.886719 Z M 327.074219 36.886719 " fill-opacity="1" fill-rule="nonzero"/><path fill="#f5f1e6" d="M 639.128906 64.9375 L 638.121094 63.195312 L 636.105469 63.195312 L 636.105469 62.425781 L 638.5625 62.425781 L 639.792969 64.554688 Z M 639.128906 64.9375 " fill-opacity="1" fill-rule="nonzero"/><path fill="#f5f1e6" d="M 631.417969 63.195312 L 626.589844 63.195312 L 626.589844 62.425781 L 631.417969 62.425781 Z M 621.765625 63.195312 L 616.9375 63.195312 L 616.9375 62.425781 L 621.765625 62.425781 Z M 612.109375 63.195312 L 607.28125 63.195312 L 607.28125 62.425781 L 612.109375 62.425781 Z M 612.109375 63.195312 " fill-opacity="1" fill-rule="nonzero"/><path fill="#f5f1e6" d="M 600.246094 64.9375 L 599.582031 64.554688 L 600.8125 62.425781 L 603.269531 62.425781 L 603.269531 63.195312 L 601.253906 63.195312 Z M 600.246094 64.9375 " fill-opacity="1" fill-rule="nonzero"/><path fill="#f5f1e6" d="M 585.832031 89.949219 L 585.167969 89.566406 L 587.582031 85.378906 L 588.246094 85.761719 Z M 590.660156 81.574219 L 589.996094 81.191406 L 592.410156 77.003906 L 593.074219 77.386719 Z M 595.488281 73.199219 L 594.824219 72.816406 L 597.238281 68.628906 L 597.898438 69.011719 Z M 595.488281 73.199219 " fill-opacity="1" fill-rule="nonzero"/><path fill="#f5f1e6" d="M 583.164062 97.304688 L 581.9375 95.175781 L 583.164062 93.046875 L 583.828125 93.429688 L 582.820312 95.175781 L 583.828125 96.925781 Z M 583.164062 97.304688 " fill-opacity="1" fill-rule="nonzero"/><path fill="#f5f1e6" d="M 597.578125 122.316406 L 595.167969 118.128906 L 595.828125 117.746094 L 598.242188 121.933594 Z M 592.75 113.941406 L 590.339844 109.753906 L 591 109.371094 L 593.414062 113.558594 Z M 587.921875 105.566406 L 585.511719 101.378906 L 586.171875 100.996094 L 588.585938 105.183594 Z M 587.921875 105.566406 " fill-opacity="1" fill-rule="nonzero"/><path fill="#f5f1e6" d="M 603.269531 127.929688 L 600.8125 127.929688 L 599.582031 125.796875 L 600.246094 125.414062 L 601.253906 127.160156 L 603.269531 127.160156 Z M 603.269531 127.929688 " fill-opacity="1" fill-rule="nonzero"/><path fill="#f5f1e6" d="M 632.09375 127.929688 L 627.265625 127.929688 L 627.265625 127.160156 L 632.09375 127.160156 Z M 622.4375 127.929688 L 617.609375 127.929688 L 617.609375 127.160156 L 622.4375 127.160156 Z M 612.785156 127.929688 L 607.957031 127.929688 L 607.957031 127.160156 L 612.785156 127.160156 Z M 612.785156 127.929688 " fill-opacity="1" fill-rule="nonzero"/><path fill="#f5f1e6" d="M 638.5625 127.929688 L 636.105469 127.929688 L 636.105469 127.160156 L 638.121094 127.160156 L 639.128906 125.414062 L 639.792969 125.796875 Z M 638.5625 127.929688 " fill-opacity="1" fill-rule="nonzero"/><path fill="#f5f1e6" d="M 642.136719 121.726562 L 641.476562 121.34375 L 643.886719 117.15625 L 644.550781 117.539062 Z M 646.964844 113.351562 L 646.304688 112.96875 L 648.714844 108.78125 L 649.378906 109.164062 Z M 651.792969 104.976562 L 651.132812 104.59375 L 653.542969 100.40625 L 654.207031 100.789062 Z M 651.792969 104.976562 " fill-opacity="1" fill-rule="nonzero"/><path fill="#f5f1e6" d="M 656.210938 97.304688 L 655.546875 96.925781 L 656.558594 95.175781 L 655.546875 93.429688 L 656.210938 93.046875 L 657.4375 95.175781 Z M 656.210938 97.304688 " fill-opacity="1" fill-rule="nonzero"/><path fill="#f5f1e6" d="M 653.203125 89.363281 L 650.789062 85.175781 L 651.453125 84.789062 L 653.863281 88.976562 Z M 648.375 80.988281 L 645.960938 76.800781 L 646.625 76.414062 L 649.035156 80.601562 Z M 643.546875 72.613281 L 641.132812 68.425781 L 641.796875 68.039062 L 644.210938 72.226562 Z M 643.546875 72.613281 " fill-opacity="1" fill-rule="nonzero"/><path fill="#f5f1e6" d="M 600.972656 64.933594 C 603.609375 64.933594 603.613281 60.835938 600.972656 60.835938 C 598.328125 60.835938 598.328125 64.933594 600.972656 64.933594 Z M 600.972656 64.933594 " fill-opacity="1" fill-rule="nonzero"/><path fill="#f5f1e6" d="M 638.335938 64.769531 C 640.972656 64.769531 640.976562 60.671875 638.335938 60.671875 C 635.691406 60.671875 635.691406 64.769531 638.335938 64.769531 Z M 638.335938 64.769531 " fill-opacity="1" fill-rule="nonzero"/><path fill="#f5f1e6" d="M 656.933594 96.921875 C 659.570312 96.921875 659.574219 92.820312 656.933594 92.820312 C 654.289062 92.820312 654.289062 96.921875 656.933594 96.921875 Z M 656.933594 96.921875 " fill-opacity="1" fill-rule="nonzero"/><path fill="#f5f1e6" d="M 638.007812 129.5625 C 640.648438 129.5625 640.652344 125.460938 638.007812 125.460938 C 635.367188 125.460938 635.367188 129.5625 638.007812 129.5625 Z M 638.007812 129.5625 " fill-opacity="1" fill-rule="nonzero"/><path fill="#f5f1e6" d="M 600.808594 129.726562 C 603.445312 129.726562 603.449219 125.628906 600.808594 125.628906 C 598.164062 125.628906 598.164062 129.726562 600.808594 129.726562 Z M 600.808594 129.726562 " fill-opacity="1" fill-rule="nonzero"/><path fill="#f5f1e6" d="M 582.207031 97.410156 C 584.847656 97.410156 584.851562 93.3125 582.207031 93.3125 C 579.566406 93.3125 579.566406 97.410156 582.207031 97.410156 Z M 582.207031 97.410156 " fill-opacity="1" fill-rule="nonzero"/><path fill="#f5f1e6" d="M 612.605469 339.300781 L 611.601562 337.558594 L 609.589844 337.558594 L 609.589844 336.789062 L 612.046875 336.789062 L 613.273438 338.917969 Z M 612.605469 339.300781 " fill-opacity="1" fill-rule="nonzero"/><path fill="#f5f1e6" d="M 604.894531 337.558594 L 600.066406 337.558594 L 600.066406 336.789062 L 604.894531 336.789062 Z M 595.242188 337.558594 L 590.414062 337.558594 L 590.414062 336.789062 L 595.242188 336.789062 Z M 585.585938 337.558594 L 580.757812 337.558594 L 580.757812 336.789062 L 585.585938 336.789062 Z M 585.585938 337.558594 " fill-opacity="1" fill-rule="nonzero"/><path fill="#f5f1e6" d="M 573.730469 339.300781 L 573.066406 338.917969 L 574.292969 336.789062 L 576.75 336.789062 L 576.75 337.558594 L 574.734375 337.558594 Z M 573.730469 339.300781 " fill-opacity="1" fill-rule="nonzero"/><path fill="#f5f1e6" d="M 559.316406 364.3125 L 558.652344 363.929688 L 561.0625 359.742188 L 561.726562 360.125 Z M 564.144531 355.9375 L 563.480469 355.554688 L 565.890625 351.367188 L 566.554688 351.75 Z M 568.96875 347.5625 L 568.308594 347.179688 L 570.71875 342.992188 L 571.382812 343.375 Z M 568.96875 347.5625 " fill-opacity="1" fill-rule="nonzero"/><path fill="#f5f1e6" d="M 556.640625 371.667969 L 555.414062 369.539062 L 556.640625 367.410156 L 557.308594 367.792969 L 556.300781 369.539062 L 557.308594 371.285156 Z M 556.640625 371.667969 " fill-opacity="1" fill-rule="nonzero"/><path fill="#f5f1e6" d="M 571.058594 396.679688 L 568.644531 392.492188 L 569.308594 392.105469 L 571.71875 396.292969 Z M 566.230469 388.300781 L 563.816406 384.113281 L 564.480469 383.730469 L 566.890625 387.917969 Z M 561.402344 379.925781 L 558.988281 375.738281 L 559.652344 375.355469 L 562.0625 379.542969 Z M 561.402344 379.925781 " fill-opacity="1" fill-rule="nonzero"/><path fill="#f5f1e6" d="M 576.75 402.289062 L 574.292969 402.289062 L 573.066406 400.160156 L 573.730469 399.777344 L 574.734375 401.519531 L 576.75 401.519531 Z M 576.75 402.289062 " fill-opacity="1" fill-rule="nonzero"/><path fill="#f5f1e6" d="M 605.578125 402.289062 L 600.75 402.289062 L 600.75 401.519531 L 605.578125 401.519531 Z M 595.921875 402.289062 L 591.09375 402.289062 L 591.09375 401.519531 L 595.921875 401.519531 Z M 586.269531 402.289062 L 581.441406 402.289062 L 581.441406 401.519531 L 586.269531 401.519531 Z M 586.269531 402.289062 " fill-opacity="1" fill-rule="nonzero"/><path fill="#f5f1e6" d="M 612.046875 402.289062 L 609.589844 402.289062 L 609.589844 401.519531 L 611.601562 401.519531 L 612.605469 399.777344 L 613.273438 400.160156 Z M 612.046875 402.289062 " fill-opacity="1" fill-rule="nonzero"/><path fill="#f5f1e6" d="M 615.617188 396.089844 L 614.953125 395.707031 L 617.367188 391.519531 L 618.027344 391.902344 Z M 620.445312 387.714844 L 619.78125 387.332031 L 622.195312 383.144531 L 622.855469 383.527344 Z M 625.273438 379.339844 L 624.609375 378.957031 L 627.023438 374.769531 L 627.683594 375.152344 Z M 625.273438 379.339844 " fill-opacity="1" fill-rule="nonzero"/><path fill="#f5f1e6" d="M 629.695312 371.667969 L 629.03125 371.285156 L 630.035156 369.539062 L 629.03125 367.792969 L 629.695312 367.410156 L 630.921875 369.539062 Z M 629.695312 371.667969 " fill-opacity="1" fill-rule="nonzero"/><path fill="#f5f1e6" d="M 626.683594 363.722656 L 624.273438 359.535156 L 624.933594 359.152344 L 627.347656 363.339844 Z M 621.855469 355.347656 L 619.445312 351.160156 L 620.109375 350.777344 L 622.519531 354.964844 Z M 617.027344 346.972656 L 614.617188 342.785156 L 615.28125 342.398438 L 617.691406 346.585938 Z M 617.027344 346.972656 " fill-opacity="1" fill-rule="nonzero"/><path fill="#f5f1e6" d="M 574.453125 339.292969 C 577.09375 339.292969 577.097656 335.195312 574.453125 335.195312 C 571.8125 335.195312 571.8125 339.292969 574.453125 339.292969 Z M 574.453125 339.292969 " fill-opacity="1" fill-rule="nonzero"/><path fill="#f5f1e6" d="M 611.816406 339.128906 C 614.453125 339.128906 614.457031 335.03125 611.816406 335.03125 C 609.175781 335.03125 609.175781 339.128906 611.816406 339.128906 Z M 611.816406 339.128906 " fill-opacity="1" fill-rule="nonzero"/><path fill="#f5f1e6" d="M 630.414062 371.28125 C 633.054688 371.28125 633.058594 367.179688 630.414062 367.179688 C 627.773438 367.179688 627.773438 371.28125 630.414062 371.28125 Z M 630.414062 371.28125 " fill-opacity="1" fill-rule="nonzero"/><path fill="#f5f1e6" d="M 611.488281 403.925781 C 614.125 403.925781 614.128906 399.828125 611.488281 399.828125 C 608.84375 399.828125 608.84375 403.925781 611.488281 403.925781 Z M 611.488281 403.925781 " fill-opacity="1" fill-rule="nonzero"/><path fill="#f5f1e6" d="M 574.289062 404.089844 C 576.929688 404.089844 576.933594 399.992188 574.289062 399.992188 C 571.648438 399.992188 571.648438 404.089844 574.289062 404.089844 Z M 574.289062 404.089844 " fill-opacity="1" fill-rule="nonzero"/><path fill="#f5f1e6" d="M 555.691406 371.773438 C 558.328125 371.773438 558.332031 367.675781 555.691406 367.675781 C 553.046875 367.675781 553.046875 371.773438 555.691406 371.773438 Z M 555.691406 371.773438 " fill-opacity="1" fill-rule="nonzero"/><path fill="#f5f1e6" d="M 596.554688 492.261719 L 595.550781 490.515625 L 593.535156 490.515625 L 593.535156 489.75 L 595.996094 489.75 L 597.21875 491.875 Z M 596.554688 492.261719 " fill-opacity="1" fill-rule="nonzero"/><path fill="#f5f1e6" d="M 588.84375 490.515625 L 584.015625 490.515625 L 584.015625 489.75 L 588.84375 489.75 Z M 579.191406 490.515625 L 574.363281 490.515625 L 574.363281 489.75 L 579.191406 489.75 Z M 569.535156 490.515625 L 564.707031 490.515625 L 564.707031 489.75 L 569.535156 489.75 Z M 569.535156 490.515625 " fill-opacity="1" fill-rule="nonzero"/><path fill="#f5f1e6" d="M 557.675781 492.261719 L 557.015625 491.875 L 558.242188 489.75 L 560.695312 489.75 L 560.695312 490.515625 L 558.683594 490.515625 Z M 557.675781 492.261719 " fill-opacity="1" fill-rule="nonzero"/><path fill="#f5f1e6" d="M 543.257812 517.269531 L 542.59375 516.886719 L 545.007812 512.699219 L 545.671875 513.082031 Z M 548.085938 508.894531 L 547.421875 508.511719 L 549.835938 504.324219 L 550.5 504.707031 Z M 552.914062 500.519531 L 552.25 500.136719 L 554.664062 495.949219 L 555.328125 496.332031 Z M 552.914062 500.519531 " fill-opacity="1" fill-rule="nonzero"/><path fill="#f5f1e6" d="M 540.589844 524.625 L 539.363281 522.496094 L 540.589844 520.367188 L 541.253906 520.753906 L 540.25 522.496094 L 541.253906 524.242188 Z M 540.589844 524.625 " fill-opacity="1" fill-rule="nonzero"/><path fill="#f5f1e6" d="M 555.003906 549.636719 L 552.59375 545.449219 L 553.253906 545.066406 L 555.667969 549.253906 Z M 550.175781 541.261719 L 547.765625 537.074219 L 548.425781 536.691406 L 550.839844 540.878906 Z M 545.347656 532.886719 L 542.9375 528.699219 L 543.601562 528.316406 L 546.011719 532.503906 Z M 545.347656 532.886719 " fill-opacity="1" fill-rule="nonzero"/><path fill="#f5f1e6" d="M 560.695312 555.246094 L 558.242188 555.246094 L 557.015625 553.117188 L 557.675781 552.734375 L 558.683594 554.480469 L 560.695312 554.480469 Z M 560.695312 555.246094 " fill-opacity="1" fill-rule="nonzero"/><path fill="#f5f1e6" d="M 589.523438 555.246094 L 584.695312 555.246094 L 584.695312 554.480469 L 589.523438 554.480469 Z M 579.867188 555.246094 L 575.042969 555.246094 L 575.042969 554.480469 L 579.867188 554.480469 Z M 570.21875 555.246094 L 565.390625 555.246094 L 565.390625 554.480469 L 570.21875 554.480469 Z M 570.21875 555.246094 " fill-opacity="1" fill-rule="nonzero"/><path fill="#f5f1e6" d="M 595.996094 555.246094 L 593.535156 555.246094 L 593.535156 554.480469 L 595.550781 554.480469 L 596.554688 552.734375 L 597.21875 553.117188 Z M 595.996094 555.246094 " fill-opacity="1" fill-rule="nonzero"/><path fill="#f5f1e6" d="M 599.566406 549.050781 L 598.902344 548.664062 L 601.3125 544.476562 L 601.976562 544.863281 Z M 604.390625 540.675781 L 603.730469 540.289062 L 606.140625 536.101562 L 606.804688 536.488281 Z M 609.21875 532.300781 L 608.558594 531.914062 L 610.96875 527.726562 L 611.632812 528.109375 Z M 609.21875 532.300781 " fill-opacity="1" fill-rule="nonzero"/><path fill="#f5f1e6" d="M 613.640625 524.625 L 612.980469 524.242188 L 613.984375 522.496094 L 612.980469 520.753906 L 613.640625 520.367188 L 614.871094 522.496094 Z M 613.640625 524.625 " fill-opacity="1" fill-rule="nonzero"/><path fill="#f5f1e6" d="M 610.632812 516.679688 L 608.21875 512.492188 L 608.882812 512.109375 L 611.296875 516.296875 Z M 605.804688 508.304688 L 603.390625 504.117188 L 604.054688 503.734375 L 606.46875 507.921875 Z M 600.976562 499.929688 L 598.5625 495.742188 L 599.226562 495.359375 L 601.640625 499.546875 Z M 600.976562 499.929688 " fill-opacity="1" fill-rule="nonzero"/><path fill="#f5f1e6" d="M 558.402344 492.257812 C 561.039062 492.257812 561.042969 488.15625 558.402344 488.15625 C 555.761719 488.15625 555.761719 492.257812 558.402344 492.257812 Z M 558.402344 492.257812 " fill-opacity="1" fill-rule="nonzero"/><path fill="#f5f1e6" d="M 595.765625 492.089844 C 598.402344 492.089844 598.40625 487.992188 595.765625 487.992188 C 593.121094 487.992188 593.121094 492.089844 595.765625 492.089844 Z M 595.765625 492.089844 " fill-opacity="1" fill-rule="nonzero"/><path fill="#f5f1e6" d="M 614.363281 524.238281 C 617 524.238281 617.003906 520.140625 614.363281 520.140625 C 611.722656 520.140625 611.722656 524.238281 614.363281 524.238281 Z M 614.363281 524.238281 " fill-opacity="1" fill-rule="nonzero"/><path fill="#f5f1e6" d="M 595.433594 556.882812 C 598.074219 556.882812 598.078125 552.785156 595.433594 552.785156 C 592.792969 552.785156 592.792969 556.882812 595.433594 556.882812 Z M 595.433594 556.882812 " fill-opacity="1" fill-rule="nonzero"/><path fill="#f5f1e6" d="M 558.238281 557.046875 C 560.875 557.046875 560.878906 552.949219 558.238281 552.949219 C 555.59375 552.949219 555.59375 557.046875 558.238281 557.046875 Z M 558.238281 557.046875 " fill-opacity="1" fill-rule="nonzero"/><path fill="#f5f1e6" d="M 539.636719 524.734375 C 542.277344 524.734375 542.28125 520.632812 539.636719 520.632812 C 536.996094 520.632812 536.996094 524.734375 539.636719 524.734375 Z M 539.636719 524.734375 " fill-opacity="1" fill-rule="nonzero"/><path fill="#f5f1e6" d="M 340.640625 440.492188 L 339.632812 438.75 L 337.617188 438.75 L 337.617188 437.980469 L 340.074219 437.980469 L 341.304688 440.109375 Z M 340.640625 440.492188 " fill-opacity="1" fill-rule="nonzero"/><path fill="#f5f1e6" d="M 332.929688 438.75 L 328.101562 438.75 L 328.101562 437.980469 L 332.929688 437.980469 Z M 323.277344 438.75 L 318.449219 438.75 L 318.449219 437.980469 L 323.277344 437.980469 Z M 313.621094 438.75 L 308.792969 438.75 L 308.792969 437.980469 L 313.621094 437.980469 Z M 313.621094 438.75 " fill-opacity="1" fill-rule="nonzero"/><path fill="#f5f1e6" d="M 301.757812 440.492188 L 301.09375 440.109375 L 302.324219 437.980469 L 304.78125 437.980469 L 304.78125 438.75 L 302.765625 438.75 Z M 301.757812 440.492188 " fill-opacity="1" fill-rule="nonzero"/><path fill="#f5f1e6" d="M 287.34375 465.503906 L 286.679688 465.121094 L 289.09375 460.933594 L 289.757812 461.316406 Z M 292.171875 457.128906 L 291.507812 456.746094 L 293.921875 452.558594 L 294.585938 452.941406 Z M 297 448.753906 L 296.335938 448.371094 L 298.75 444.183594 L 299.410156 444.566406 Z M 297 448.753906 " fill-opacity="1" fill-rule="nonzero"/><path fill="#f5f1e6" d="M 284.675781 472.859375 L 283.449219 470.730469 L 284.675781 468.601562 L 285.339844 468.988281 L 284.332031 470.730469 L 285.339844 472.480469 Z M 284.675781 472.859375 " fill-opacity="1" fill-rule="nonzero"/><path fill="#f5f1e6" d="M 299.089844 497.875 L 296.679688 493.6875 L 297.339844 493.304688 L 299.753906 497.492188 Z M 294.261719 489.5 L 291.851562 485.3125 L 292.511719 484.925781 L 294.925781 489.117188 Z M 289.433594 481.125 L 287.023438 476.9375 L 287.683594 476.550781 L 290.097656 480.738281 Z M 289.433594 481.125 " fill-opacity="1" fill-rule="nonzero"/><path fill="#f5f1e6" d="M 304.78125 503.480469 L 302.324219 503.480469 L 301.09375 501.351562 L 301.757812 500.96875 L 302.765625 502.714844 L 304.78125 502.714844 Z M 304.78125 503.480469 " fill-opacity="1" fill-rule="nonzero"/><path fill="#f5f1e6" d="M 333.605469 503.480469 L 328.777344 503.480469 L 328.777344 502.714844 L 333.605469 502.714844 Z M 323.949219 503.480469 L 319.121094 503.480469 L 319.121094 502.714844 L 323.949219 502.714844 Z M 314.296875 503.480469 L 309.472656 503.480469 L 309.472656 502.714844 L 314.296875 502.714844 Z M 314.296875 503.480469 " fill-opacity="1" fill-rule="nonzero"/><path fill="#f5f1e6" d="M 340.074219 503.480469 L 337.617188 503.480469 L 337.617188 502.714844 L 339.632812 502.714844 L 340.640625 500.96875 L 341.304688 501.351562 Z M 340.074219 503.480469 " fill-opacity="1" fill-rule="nonzero"/><path fill="#f5f1e6" d="M 343.648438 497.285156 L 342.988281 496.898438 L 345.398438 492.710938 L 346.0625 493.097656 Z M 348.476562 488.910156 L 347.816406 488.523438 L 350.226562 484.335938 L 350.890625 484.71875 Z M 353.304688 480.53125 L 352.644531 480.148438 L 355.054688 475.960938 L 355.71875 476.34375 Z M 353.304688 480.53125 " fill-opacity="1" fill-rule="nonzero"/><path fill="#f5f1e6" d="M 357.722656 472.859375 L 357.058594 472.480469 L 358.070312 470.730469 L 357.058594 468.988281 L 357.722656 468.601562 L 358.949219 470.730469 Z M 357.722656 472.859375 " fill-opacity="1" fill-rule="nonzero"/><path fill="#f5f1e6" d="M 354.714844 464.917969 L 352.300781 460.730469 L 352.964844 460.347656 L 355.375 464.535156 Z M 349.886719 456.542969 L 347.472656 452.355469 L 348.136719 451.972656 L 350.550781 456.160156 Z M 345.058594 448.167969 L 342.644531 443.980469 L 343.308594 443.597656 L 345.722656 447.785156 Z M 345.058594 448.167969 " fill-opacity="1" fill-rule="nonzero"/><path fill="#f5f1e6" d="M 302.484375 440.492188 C 305.121094 440.492188 305.125 436.390625 302.484375 436.390625 C 299.839844 436.390625 299.839844 440.492188 302.484375 440.492188 Z M 302.484375 440.492188 " fill-opacity="1" fill-rule="nonzero"/><path fill="#f5f1e6" d="M 339.847656 440.324219 C 342.484375 440.324219 342.488281 436.226562 339.847656 436.226562 C 337.203125 436.226562 337.203125 440.324219 339.847656 440.324219 Z M 339.847656 440.324219 " fill-opacity="1" fill-rule="nonzero"/><path fill="#f5f1e6" d="M 358.445312 472.476562 C 361.082031 472.476562 361.085938 468.375 358.445312 468.375 C 355.800781 468.375 355.800781 472.476562 358.445312 472.476562 Z M 358.445312 472.476562 " fill-opacity="1" fill-rule="nonzero"/><path fill="#f5f1e6" d="M 339.519531 505.117188 C 342.160156 505.117188 342.164062 501.019531 339.519531 501.019531 C 336.878906 501.019531 336.878906 505.117188 339.519531 505.117188 Z M 339.519531 505.117188 " fill-opacity="1" fill-rule="nonzero"/><path fill="#f5f1e6" d="M 302.320312 505.28125 C 304.957031 505.28125 304.960938 501.183594 302.320312 501.183594 C 299.675781 501.183594 299.675781 505.28125 302.320312 505.28125 Z M 302.320312 505.28125 " fill-opacity="1" fill-rule="nonzero"/><g clip-path="url(#fc543f1604)"><path fill="#f5f1e6" d="M 283.71875 472.972656 C 286.359375 472.972656 286.363281 468.871094 283.71875 468.871094 C 281.078125 468.871094 281.078125 472.972656 283.71875 472.972656 Z M 283.71875 472.972656 " fill-opacity="1" fill-rule="nonzero"/></g><path fill="#f5f1e6" d="M 512.792969 366.027344 L 468.960938 366.027344 L 468.847656 365.835938 L 447.042969 328.003906 L 447.15625 327.8125 L 468.960938 289.984375 L 512.792969 289.984375 L 512.902344 290.175781 L 534.707031 328.003906 L 534.59375 328.195312 Z M 469.402344 365.257812 L 512.351562 365.257812 L 533.824219 328.003906 L 512.351562 290.75 L 469.402344 290.75 L 447.929688 328.003906 Z M 469.402344 365.257812 " fill-opacity="1" fill-rule="nonzero"/><path fill="#f5f1e6" d="M 469.109375 292.835938 C 472.175781 292.835938 472.179688 288.070312 469.109375 288.070312 C 466.039062 288.070312 466.039062 292.835938 469.109375 292.835938 Z M 469.109375 292.835938 " fill-opacity="1" fill-rule="nonzero"/><path fill="#f5f1e6" d="M 512.5625 292.644531 C 515.628906 292.644531 515.632812 287.878906 512.5625 287.878906 C 509.488281 287.878906 509.488281 292.644531 512.5625 292.644531 Z M 512.5625 292.644531 " fill-opacity="1" fill-rule="nonzero"/><path fill="#f5f1e6" d="M 534.1875 330.027344 C 537.257812 330.027344 537.261719 325.261719 534.1875 325.261719 C 531.117188 325.261719 531.117188 330.027344 534.1875 330.027344 Z M 534.1875 330.027344 " fill-opacity="1" fill-rule="nonzero"/><path fill="#f5f1e6" d="M 512.175781 367.992188 C 515.246094 367.992188 515.25 363.226562 512.175781 363.226562 C 509.105469 363.226562 509.105469 367.992188 512.175781 367.992188 Z M 512.175781 367.992188 " fill-opacity="1" fill-rule="nonzero"/><path fill="#f5f1e6" d="M 468.917969 368.183594 C 471.984375 368.183594 471.988281 363.417969 468.917969 363.417969 C 465.84375 363.417969 465.84375 368.183594 468.917969 368.183594 Z M 468.917969 368.183594 " fill-opacity="1" fill-rule="nonzero"/><path fill="#f5f1e6" d="M 447.289062 330.605469 C 450.355469 330.605469 450.359375 325.835938 447.289062 325.835938 C 444.21875 325.835938 444.21875 330.605469 447.289062 330.605469 Z M 447.289062 330.605469 " fill-opacity="1" fill-rule="nonzero"/><path fill="#f5f1e6" d="M 736.613281 298.640625 L 692.78125 298.640625 L 692.667969 298.449219 L 670.863281 260.621094 L 670.976562 260.429688 L 692.78125 222.597656 L 736.613281 222.597656 L 736.722656 222.789062 L 758.527344 260.621094 L 758.417969 260.8125 Z M 693.226562 297.875 L 736.171875 297.875 L 757.644531 260.621094 L 736.171875 223.363281 L 693.226562 223.363281 L 671.75 260.621094 Z M 693.226562 297.875 " fill-opacity="1" fill-rule="nonzero"/><path fill="#f5f1e6" d="M 692.929688 225.449219 C 695.996094 225.449219 696 220.683594 692.929688 220.683594 C 689.859375 220.683594 689.859375 225.449219 692.929688 225.449219 Z M 692.929688 225.449219 " fill-opacity="1" fill-rule="nonzero"/><path fill="#f5f1e6" d="M 736.382812 225.257812 C 739.449219 225.257812 739.453125 220.492188 736.382812 220.492188 C 733.308594 220.492188 733.308594 225.257812 736.382812 225.257812 Z M 736.382812 225.257812 " fill-opacity="1" fill-rule="nonzero"/><g clip-path="url(#2892d8fc6d)"><path fill="#f5f1e6" d="M 758.011719 262.644531 C 761.078125 262.644531 761.082031 257.878906 758.011719 257.878906 C 754.9375 257.878906 754.9375 262.644531 758.011719 262.644531 Z M 758.011719 262.644531 " fill-opacity="1" fill-rule="nonzero"/></g><path fill="#f5f1e6" d="M 736 300.609375 C 739.066406 300.609375 739.070312 295.84375 736 295.84375 C 732.925781 295.84375 732.925781 300.609375 736 300.609375 Z M 736 300.609375 " fill-opacity="1" fill-rule="nonzero"/><path fill="#f5f1e6" d="M 692.738281 300.800781 C 695.804688 300.800781 695.808594 296.035156 692.738281 296.035156 C 689.667969 296.035156 689.667969 300.800781 692.738281 300.800781 Z M 692.738281 300.800781 " fill-opacity="1" fill-rule="nonzero"/><path fill="#f5f1e6" d="M 671.109375 263.21875 C 674.179688 263.21875 674.183594 258.453125 671.109375 258.453125 C 668.039062 258.453125 668.039062 263.21875 671.109375 263.21875 Z M 671.109375 263.21875 " fill-opacity="1" fill-rule="nonzero"/><path fill="#f5f1e6" d="M 561.421875 493.824219 L 517.589844 493.824219 L 517.476562 493.632812 L 495.671875 455.800781 L 495.785156 455.609375 L 517.589844 417.78125 L 561.421875 417.78125 L 561.53125 417.972656 L 583.335938 455.800781 L 583.222656 455.996094 Z M 518.03125 493.058594 L 560.980469 493.058594 L 582.453125 455.800781 L 560.980469 418.546875 L 518.03125 418.546875 L 496.558594 455.800781 Z M 518.03125 493.058594 " fill-opacity="1" fill-rule="nonzero"/><path fill="#f5f1e6" d="M 517.742188 420.632812 C 520.808594 420.632812 520.8125 415.867188 517.742188 415.867188 C 514.671875 415.867188 514.671875 420.632812 517.742188 420.632812 Z M 517.742188 420.632812 " fill-opacity="1" fill-rule="nonzero"/><path fill="#f5f1e6" d="M 561.191406 420.441406 C 564.257812 420.441406 564.261719 415.675781 561.191406 415.675781 C 558.117188 415.675781 558.117188 420.441406 561.191406 420.441406 Z M 561.191406 420.441406 " fill-opacity="1" fill-rule="nonzero"/><path fill="#f5f1e6" d="M 582.816406 457.828125 C 585.886719 457.828125 585.890625 453.0625 582.816406 453.0625 C 579.746094 453.0625 579.746094 457.828125 582.816406 457.828125 Z M 582.816406 457.828125 " fill-opacity="1" fill-rule="nonzero"/><path fill="#f5f1e6" d="M 560.804688 495.792969 C 563.875 495.792969 563.878906 491.023438 560.804688 491.023438 C 557.734375 491.023438 557.734375 495.792969 560.804688 495.792969 Z M 560.804688 495.792969 " fill-opacity="1" fill-rule="nonzero"/><path fill="#f5f1e6" d="M 517.550781 495.984375 C 520.617188 495.984375 520.621094 491.214844 517.550781 491.214844 C 514.476562 491.214844 514.476562 495.984375 517.550781 495.984375 Z M 517.550781 495.984375 " fill-opacity="1" fill-rule="nonzero"/><path fill="#f5f1e6" d="M 495.917969 458.402344 C 498.984375 458.402344 498.988281 453.636719 495.917969 453.636719 C 492.847656 453.636719 492.847656 458.402344 495.917969 458.402344 Z M 495.917969 458.402344 " fill-opacity="1" fill-rule="nonzero"/></svg>