<svg xmlns="http://www.w3.org/2000/svg" xmlns:xlink="http://www.w3.org/1999/xlink" width="1366" zoomAndPan="magnify" viewBox="0 0 1024.5 576" height="768" preserveAspectRatio="xMidYMid meet" version="1.0"><defs><filter x="0%" y="0%" width="100%" height="100%" id="3299efb754"><feColorMatrix values="0 0 0 0 1 0 0 0 0 1 0 0 0 0 1 0 0 0 1 0" color-interpolation-filters="sRGB"/></filter><clipPath id="8f229d43c4"><path d="M 199.535156 0.140625 L 824.730469 0.140625 L 824.730469 575.859375 L 199.535156 575.859375 Z M 199.535156 0.140625 " clip-rule="nonzero"/></clipPath><mask id="96b071f8da"><g filter="url(#3299efb754)"><rect x="-102.45" width="1229.4" fill="#000000" y="-57.6" height="691.2" fill-opacity="0.31"/></g></mask><clipPath id="3db24787b5"><path d="M 341 0.378906 L 416 0.378906 L 416 53 L 341 53 Z M 341 0.378906 " clip-rule="nonzero"/></clipPath><clipPath id="b4f332e9f0"><path d="M 343 138 L 625.71875 138 L 625.71875 575.621094 L 343 575.621094 Z M 343 138 " clip-rule="nonzero"/></clipPath><clipPath id="f962733eff"><path d="M 0.535156 0.378906 L 509 0.378906 L 509 305 L 0.535156 305 Z M 0.535156 0.378906 " clip-rule="nonzero"/></clipPath><clipPath id="71b6ab315e"><rect x="0" width="626" y="0" height="576"/></clipPath></defs><g clip-path="url(#8f229d43c4)"><g mask="url(#96b071f8da)"><g transform="matrix(1, 0, 0, 1, 199, 0.000000000000055234)"><g clip-path="url(#71b6ab315e)"><path fill="#8c92ac" d="M 338.960938 425.371094 L 267.316406 406.171875 L 214.867188 458.625 L 234.0625 530.265625 L 305.710938 549.460938 L 358.164062 497.011719 Z M 304.835938 546.214844 L 236.445312 527.886719 L 218.117188 459.492188 L 268.1875 409.425781 L 336.582031 427.753906 L 354.90625 496.144531 Z M 304.835938 546.214844 " fill-opacity="1" fill-rule="nonzero"/><g clip-path="url(#3db24787b5)"><path fill="#8c92ac" d="M 408.476562 0.394531 L 405.457031 0.394531 L 412.019531 24.871094 L 387.253906 49.640625 L 353.414062 40.605469 L 344.351562 6.804688 L 350.726562 0.394531 L 346.605469 0.394531 L 341.117188 5.882812 L 351.023438 42.953125 L 388.101562 52.863281 L 415.246094 25.722656 Z M 408.476562 0.394531 " fill-opacity="1" fill-rule="nonzero"/></g><g clip-path="url(#b4f332e9f0)"><path fill="#8c92ac" d="M 575.875 356.769531 L 543.710938 267.632812 L 569.628906 241.738281 L 560.128906 206.285156 L 589.761719 176.652344 L 609.707031 181.992188 L 625.488281 166.207031 L 619.710938 144.644531 L 598.148438 138.863281 L 582.363281 154.652344 L 587.695312 174.589844 L 558.058594 204.222656 L 522.609375 194.730469 L 495.449219 221.851562 L 504.949219 257.304688 L 465.785156 296.46875 L 395.769531 277.707031 L 343.320312 330.160156 L 362.515625 401.800781 L 434.164062 421 L 486.617188 368.546875 L 467.855469 298.523438 L 507.019531 259.363281 L 540.914062 268.476562 L 573.082031 357.613281 L 547.191406 383.507812 L 556.691406 418.957031 L 477.6875 497.949219 L 442.234375 488.449219 L 415.09375 515.578125 L 425.003906 552.65625 L 462.078125 562.59375 L 488.0625 536.613281 L 546.585938 549.90625 L 551.917969 569.808594 L 573.480469 575.582031 L 589.269531 559.800781 L 583.488281 538.238281 L 561.921875 532.457031 L 547.300781 547.078125 L 488.777344 533.792969 L 479.722656 499.988281 L 558.722656 420.988281 L 594.175781 430.484375 L 621.316406 403.347656 L 611.40625 366.269531 Z M 585.589844 155.519531 L 598.996094 142.117188 L 617.3125 147.023438 L 622.21875 165.335938 L 608.816406 178.738281 L 590.503906 173.832031 Z M 483.375 367.695312 L 433.308594 417.765625 L 364.917969 399.433594 L 346.589844 331.039062 L 396.65625 280.972656 L 465.050781 299.300781 Z M 507.78125 256.5625 L 498.71875 222.761719 L 523.464844 197.960938 L 557.265625 207.019531 L 566.328125 240.851562 L 541.574219 265.613281 Z M 562.839844 535.71875 L 581.148438 540.628906 L 586.058594 558.9375 L 572.652344 572.34375 L 554.316406 567.449219 L 549.410156 549.128906 Z M 486.015625 534.589844 L 461.230469 559.351562 L 427.425781 550.289062 L 418.363281 516.488281 L 443.105469 491.683594 L 476.90625 500.746094 Z M 593.347656 427.257812 L 559.546875 418.195312 L 550.476562 384.394531 L 575.242188 359.628906 L 609.042969 368.691406 L 618.105469 402.496094 Z M 593.347656 427.257812 " fill-opacity="1" fill-rule="nonzero"/></g><g clip-path="url(#f962733eff)"><path fill="#8c92ac" d="M 503.15625 138.398438 L 481.589844 132.621094 L 466.957031 147.257812 L 425.441406 138.515625 L 415.957031 103.117188 L 378.882812 93.207031 L 352.957031 119.128906 L 293.617188 100.480469 L 274.847656 30.378906 L 204.714844 11.582031 L 200.140625 0.394531 L 196.988281 0.394531 L 201.929688 12.460938 L 150.757812 63.625 L 169.523438 133.648438 L 123 180.167969 L 52.984375 161.40625 L 0.535156 213.859375 L 19.765625 285.503906 L 91.410156 304.703125 L 143.859375 252.25 L 125.058594 182.222656 L 171.582031 135.707031 L 240.128906 154.074219 L 270.976562 220.75 L 256.5 235.222656 L 262.28125 256.785156 L 283.84375 262.566406 L 299.632812 246.777344 L 293.851562 225.214844 L 273.761719 219.832031 L 242.917969 153.152344 L 292.804688 103.242188 L 352.136719 121.894531 L 361.648438 157.386719 L 398.726562 167.292969 L 424.71875 141.304688 L 466.230469 150.046875 L 471.554688 169.933594 L 493.121094 175.714844 L 508.902344 159.925781 Z M 140.574219 251.378906 L 90.5 301.445312 L 22.109375 283.117188 L 3.78125 214.726562 L 53.859375 164.652344 L 122.253906 182.980469 Z M 291.46875 227.59375 L 296.375 245.910156 L 282.972656 259.316406 L 264.660156 254.40625 L 259.753906 236.097656 L 273.15625 222.691406 Z M 240.726562 151.25 L 172.335938 132.917969 L 154.003906 64.5 L 204.074219 14.433594 L 272.46875 32.753906 L 290.792969 101.152344 Z M 397.878906 164.105469 L 364.078125 155.042969 L 355.011719 121.210938 L 379.773438 96.449219 L 413.574219 105.515625 L 422.636719 139.320312 Z M 492.292969 172.527344 L 473.980469 167.617188 L 469.074219 149.308594 L 482.476562 135.902344 L 500.792969 140.8125 L 505.695312 159.128906 Z M 90.242188 51.789062 L 117.382812 24.648438 L 110.890625 0.394531 L 107.871094 0.394531 L 114.136719 23.773438 L 89.375 48.539062 L 55.574219 39.476562 L 46.480469 5.636719 L 51.726562 0.394531 L 47.605469 0.394531 L 43.222656 4.777344 L 53.128906 41.851562 Z M 90.242188 51.789062 " fill-opacity="1" fill-rule="nonzero"/></g></g></g></g></g><path fill="#8c92ac" d="M 357.714844 141.429688 L 320.636719 131.492188 L 293.496094 158.632812 L 303.40625 195.710938 L 340.480469 205.617188 L 367.667969 178.480469 Z M 339.648438 202.394531 L 305.847656 193.332031 L 296.785156 159.53125 L 321.546875 134.765625 L 355.347656 143.828125 L 364.410156 177.632812 Z M 339.648438 202.394531 " fill-opacity="1" fill-rule="nonzero"/><path fill="#8c92ac" d="M 646.660156 429.109375 L 619.515625 456.257812 L 629.421875 493.335938 L 666.5 503.242188 L 693.640625 476.101562 L 683.734375 439.023438 Z M 665.660156 500.019531 L 631.859375 490.949219 L 622.796875 457.148438 L 647.558594 432.386719 L 681.359375 441.449219 L 690.429688 475.25 Z M 665.660156 500.019531 " fill-opacity="1" fill-rule="nonzero"/><path fill="#8c92ac" d="M 672.734375 351.855469 L 666.953125 330.292969 L 645.390625 324.519531 L 629.605469 340.304688 L 635.386719 361.867188 L 656.949219 367.644531 Z M 637.769531 359.484375 L 632.839844 341.171875 L 646.242188 327.769531 L 664.554688 332.675781 L 669.460938 350.988281 L 656.054688 364.390625 Z M 637.769531 359.484375 " fill-opacity="1" fill-rule="nonzero"/><path fill="#8c92ac" d="M 345.347656 71.832031 L 361.136719 56.042969 L 355.359375 34.480469 L 333.796875 28.707031 L 318.007812 44.492188 L 323.785156 66.054688 Z M 334.664062 31.957031 L 352.976562 36.863281 L 357.882812 55.175781 L 344.480469 68.578125 L 326.167969 63.671875 L 321.261719 45.363281 Z M 334.664062 31.957031 " fill-opacity="1" fill-rule="nonzero"/><path fill="#8c92ac" d="M 762.800781 73.351562 L 778.589844 57.566406 L 772.804688 36 L 751.242188 30.226562 L 735.46875 46.007812 L 741.25 67.570312 Z M 752.117188 33.472656 L 770.429688 38.378906 L 775.335938 56.695312 L 761.933594 70.101562 L 743.613281 65.195312 L 738.707031 46.882812 Z M 752.117188 33.472656 " fill-opacity="1" fill-rule="nonzero"/><path fill="#8c92ac" d="M 746.035156 470.121094 L 730.25 485.902344 L 736.027344 507.46875 L 757.589844 513.25 L 773.378906 497.460938 L 767.597656 475.898438 Z M 756.722656 509.996094 L 738.40625 505.089844 L 733.496094 486.777344 L 746.902344 473.375 L 765.214844 478.28125 L 770.121094 496.597656 Z M 756.722656 509.996094 " fill-opacity="1" fill-rule="nonzero"/><path fill="#8c92ac" d="M 751.253906 324.519531 L 735.46875 340.304688 L 741.25 361.867188 L 762.8125 367.644531 L 778.597656 351.855469 L 772.816406 330.292969 Z M 761.945312 364.390625 L 743.625 359.484375 L 738.71875 341.171875 L 752.125 327.769531 L 770.433594 332.675781 L 775.339844 350.988281 Z M 761.945312 364.390625 " fill-opacity="1" fill-rule="nonzero"/><path fill="#8c92ac" d="M 669.742188 144.5 L 692.042969 122.195312 L 683.882812 91.734375 L 653.421875 83.574219 L 631.089844 105.878906 L 639.25 136.339844 Z M 654.285156 86.804688 L 681.5 94.101562 L 688.785156 121.328125 L 668.867188 141.246094 L 641.648438 133.957031 L 634.359375 106.746094 Z M 654.285156 86.804688 " fill-opacity="1" fill-rule="nonzero"/><path fill="#8c92ac" d="M 737.328125 239.65625 L 755.171875 244.4375 L 768.230469 231.375 L 763.453125 213.53125 L 745.609375 208.746094 L 733.695312 220.6875 L 700.230469 213.636719 L 692.523438 184.851562 L 662.058594 176.691406 L 640.996094 197.742188 L 593.027344 182.660156 L 577.757812 125.65625 L 520.6875 110.367188 L 503.253906 67.820312 L 524.269531 46.800781 L 516.109375 16.339844 L 485.648438 8.179688 L 463.34375 30.476562 L 471.074219 59.320312 L 439.933594 90.40625 L 411.097656 82.675781 L 388.792969 104.976562 L 396.953125 135.441406 L 427.417969 143.601562 L 449.714844 121.304688 L 441.996094 92.472656 L 473.113281 61.363281 L 500.441406 68.691406 L 517.871094 111.234375 L 476.265625 152.839844 L 491.527344 209.796875 L 453.921875 247.425781 L 396.960938 232.164062 L 354.078125 275.050781 L 369.773438 333.632812 L 428.355469 349.332031 L 471.242188 306.445312 L 455.980469 249.488281 L 493.597656 211.871094 L 549.085938 226.738281 L 574.027344 280.714844 L 562.28125 292.464844 L 567.0625 310.308594 L 584.910156 315.089844 L 597.96875 302.027344 L 593.207031 284.152344 L 576.832031 279.765625 L 551.875 225.816406 L 592.230469 185.464844 L 640.199219 200.546875 L 647.921875 229.429688 L 678.382812 237.589844 L 699.53125 216.4375 L 732.996094 223.492188 Z M 746.476562 212 L 761.046875 215.910156 L 764.957031 230.480469 L 754.269531 241.167969 L 739.699219 237.257812 L 735.789062 222.65625 Z M 446.480469 120.449219 L 426.53125 140.351562 L 399.320312 133.058594 L 392.050781 105.878906 L 411.960938 85.921875 L 439.171875 93.21875 Z M 473.871094 58.554688 L 466.578125 31.34375 L 486.5 11.417969 L 513.714844 18.714844 L 521 45.910156 L 501.074219 65.828125 Z M 467.984375 305.59375 L 427.480469 346.097656 L 372.144531 331.273438 L 357.320312 275.90625 L 397.828125 235.402344 L 453.160156 250.230469 Z M 590.8125 286.542969 L 594.71875 301.113281 L 584.035156 311.800781 L 569.464844 307.890625 L 565.554688 293.320312 L 576.238281 282.636719 Z M 549.675781 223.894531 L 494.34375 209.03125 L 479.519531 153.667969 L 520.023438 113.164062 L 575.359375 128.023438 L 590.183594 183.390625 Z M 677.507812 234.347656 L 650.320312 227.046875 L 643.03125 199.828125 L 662.925781 179.890625 L 690.144531 187.183594 L 697.433594 214.398438 Z M 677.507812 234.347656 " fill-opacity="1" fill-rule="nonzero"/></svg>