<svg width="896" height="202" viewBox="0 0 896 202" fill="none" xmlns="http://www.w3.org/2000/svg">
<path fill-rule="evenodd" clip-rule="evenodd" d="M21.9666 196.975C30.4558 201.301 41.5688 201.301 63.7948 201.301H137.402C159.628 201.301 170.741 201.301 179.231 196.975C186.698 193.17 192.769 187.099 196.574 179.632C200.899 171.143 200.899 160.03 200.899 137.804V64.1961C200.899 41.9701 200.899 30.8571 196.574 22.3679C192.769 14.9006 186.698 8.82947 179.231 5.02469C170.741 0.699217 159.628 0.699218 137.402 0.699219L63.7948 0.699222C41.5688 0.699223 30.4558 0.699223 21.9665 5.02469C14.4992 8.82948 8.42811 14.9006 4.62332 22.3679C0.29785 30.8571 0.297851 41.9701 0.297852 64.1961L0.297855 137.804C0.297856 160.03 0.297856 171.143 4.62333 179.632C8.42811 187.099 14.4992 193.17 21.9666 196.975ZM151.399 146.257C139.53 158.126 123.432 164.794 106.646 164.794L106.646 38.2138C123.432 38.2138 139.53 44.8819 151.399 56.7511C163.268 68.6203 169.936 84.7184 169.936 101.504C169.936 118.29 163.268 134.388 151.399 146.257ZM53.6006 88.0009L78.6864 88.0009L78.6864 164.794L53.6006 164.794L53.6006 88.0009ZM66.0199 70.9714C75.0657 70.9714 82.3988 63.6384 82.3988 54.5926C82.3988 45.5469 75.0657 38.2138 66.0199 38.2138C56.9742 38.2138 49.6411 45.5469 49.6411 54.5926C49.6411 63.6384 56.9742 70.9714 66.0199 70.9714Z" fill="#93F558"/>
<path d="M806.296 46.584H840.444C850.792 46.584 860.105 48.6536 868.383 52.7927C876.765 56.9318 883.387 63.0888 888.251 71.2636C893.218 79.4384 895.701 89.3206 895.701 100.91C895.701 112.5 893.218 122.382 888.251 130.557C883.387 138.732 876.765 144.889 868.383 149.028C860.105 153.167 850.792 155.236 840.444 155.236H806.296V46.584ZM839.202 139.249C846.135 139.249 852.447 137.956 858.139 135.369C863.83 132.678 868.383 128.487 871.798 122.796C875.316 117.001 877.075 109.706 877.075 100.91C877.075 92.1145 875.316 84.8193 871.798 79.0245C868.383 73.2297 863.83 69.0388 858.139 66.4519C852.447 63.7614 846.135 62.4162 839.202 62.4162H824.146V139.249H839.202Z" fill="white"/>
<path d="M774.743 77.007H791.662V155.237H774.743V77.007ZM783.125 63.9687C780.021 63.9687 777.434 62.9339 775.364 60.8644C773.295 58.6913 772.26 56.1044 772.26 53.1035C772.26 49.9991 773.295 47.4122 775.364 45.3426C777.434 43.1695 780.021 42.083 783.125 42.083C786.333 42.083 788.972 43.1695 791.041 45.3426C793.214 47.4122 794.301 49.9991 794.301 53.1035C794.301 56.1044 793.214 58.6913 791.041 60.8644C788.972 62.9339 786.333 63.9687 783.125 63.9687Z" fill="white"/>
<path d="M749.833 156.479C746.625 156.479 743.986 155.444 741.917 153.374C739.847 151.305 738.812 148.718 738.812 145.613C738.812 142.509 739.847 139.922 741.917 137.852C743.986 135.783 746.625 134.748 749.833 134.748C753.041 134.748 755.679 135.783 757.749 137.852C759.819 139.922 760.853 142.509 760.853 145.613C760.853 148.718 759.819 151.305 757.749 153.374C755.679 155.444 753.041 156.479 749.833 156.479Z" fill="white"/>
<path d="M693.725 156.479C685.964 156.479 679.031 154.771 672.926 151.357C666.82 147.838 662.009 143.027 658.49 136.921C655.076 130.816 653.368 123.883 653.368 116.122C653.368 108.361 655.076 101.428 658.49 95.3231C662.009 89.2178 666.82 84.4578 672.926 81.043C679.031 77.5248 685.964 75.7656 693.725 75.7656C701.486 75.7656 708.419 77.5248 714.524 81.043C720.629 84.4578 725.389 89.2178 728.804 95.3231C732.322 101.428 734.081 108.361 734.081 116.122C734.081 123.883 732.322 130.816 728.804 136.921C725.389 143.027 720.629 147.838 714.524 151.357C708.419 154.771 701.486 156.479 693.725 156.479ZM670.442 116.122C670.442 123.676 672.563 129.833 676.806 134.593C681.152 139.353 686.792 141.733 693.725 141.733C700.658 141.733 706.246 139.353 710.488 134.593C714.834 129.833 717.007 123.676 717.007 116.122C717.007 108.568 714.834 102.411 710.488 97.6513C706.246 92.8913 700.658 90.5113 693.725 90.5113C686.792 90.5113 681.152 92.8913 676.806 97.6513C672.563 102.411 670.442 108.568 670.442 116.122Z" fill="white"/>
<path d="M603.309 156.479C595.548 156.479 588.822 154.771 583.131 151.357C577.543 147.942 573.248 143.182 570.247 137.077C567.35 130.971 565.901 123.986 565.901 116.122C565.901 108.258 567.35 101.273 570.247 95.1677C573.248 89.0625 577.543 84.3024 583.131 80.8877C588.718 77.4729 595.341 75.7655 602.998 75.7655C607.965 75.7655 612.57 76.8003 616.813 78.8698C621.159 80.8359 624.522 83.4746 626.902 86.7859V45.3428H643.821V155.237H626.902V145.303C625.039 148.614 621.935 151.305 617.589 153.374C613.243 155.444 608.483 156.479 603.309 156.479ZM582.82 116.122C582.82 123.78 584.89 129.988 589.029 134.748C593.168 139.405 598.652 141.733 605.482 141.733C612.311 141.733 617.796 139.405 621.935 134.748C626.074 129.988 628.144 123.78 628.144 116.122C628.144 108.361 626.074 102.153 621.935 97.496C617.796 92.8394 612.311 90.5112 605.482 90.5112C598.652 90.5112 593.168 92.8394 589.029 97.496C584.89 102.153 582.82 108.361 582.82 116.122Z" fill="white"/>
<path d="M539.804 104.636C539.804 99.8761 538.252 96.0992 535.148 93.3052C532.147 90.5113 528.059 89.1144 522.885 89.1144C518.125 89.1144 514.193 90.4596 511.089 93.15C507.984 95.737 506.174 99.3587 505.656 104.015L490.445 101.221C491.687 93.5639 495.308 87.407 501.31 82.7504C507.312 78.0939 514.504 75.7656 522.885 75.7656C533.026 75.7656 541.149 78.5078 547.255 83.9922C553.36 89.3731 556.412 96.8753 556.412 106.499V155.237H539.804V143.285C537.528 147.218 534.165 150.425 529.715 152.909C525.265 155.289 520.454 156.479 515.28 156.479C510.209 156.479 505.656 155.496 501.62 153.53C497.688 151.564 494.584 148.821 492.307 145.303C490.134 141.785 489.048 137.801 489.048 133.351C489.048 125.694 491.997 119.744 497.895 115.501C503.897 111.259 512.951 108.517 525.058 107.275L539.804 105.723V104.636ZM505.656 132.886C505.656 135.99 506.846 138.525 509.226 140.491C511.606 142.458 514.762 143.441 518.694 143.441C525.214 143.441 530.336 141.423 534.061 137.387C537.786 133.351 539.701 128.074 539.804 121.555V118.295L524.903 120.003C518.591 120.727 513.779 122.227 510.468 124.504C507.26 126.677 505.656 129.471 505.656 132.886Z" fill="white"/>
<path d="M416.788 77.0068H434.017L453.42 135.524L472.822 77.0068H490.206L461.646 155.237H445.348L416.788 77.0068Z" fill="white"/>
<path d="M394.392 77.007H411.31V155.237H394.392V77.007ZM402.773 63.9687C399.669 63.9687 397.082 62.9339 395.013 60.8644C392.943 58.6913 391.908 56.1044 391.908 53.1035C391.908 49.9991 392.943 47.4122 395.013 45.3426C397.082 43.1695 399.669 42.083 402.773 42.083C405.981 42.083 408.62 43.1695 410.69 45.3426C412.863 47.4122 413.949 49.9991 413.949 53.1035C413.949 56.1044 412.863 58.6913 410.69 60.8644C408.62 62.9339 405.981 63.9687 402.773 63.9687Z" fill="white"/>
<path d="M387.644 93.4605C384.85 92.2187 381.487 91.5978 377.555 91.5978C371.346 91.5978 366.172 94.4952 362.033 100.29C357.997 105.981 355.979 114.57 355.979 126.056V155.237H339.061V77.0074H355.979V91.9083C358.049 87.2517 361.36 83.423 365.913 80.4222C370.466 77.3178 375.123 75.7656 379.883 75.7656C383.401 75.7656 386.299 76.2313 388.575 77.1626L387.644 93.4605Z" fill="white"/>
<path d="M253.581 46.584H296.421C303.561 46.584 309.822 47.9292 315.203 50.6197C320.583 53.2066 324.723 56.9836 327.62 61.9506C330.517 66.814 331.966 72.5054 331.966 79.0245C331.966 85.5437 330.517 91.2867 327.62 96.2537C324.723 101.117 320.583 104.894 315.203 107.585C309.822 110.172 303.561 111.465 296.421 111.465H271.897V155.236H253.581V46.584ZM295.179 95.6328C300.871 95.6328 305.32 94.1841 308.528 91.2867C311.839 88.2858 313.495 84.1984 313.495 79.0245C313.495 73.8506 311.839 69.8149 308.528 66.9175C305.32 63.9166 300.871 62.4162 295.179 62.4162H271.897V95.6328H295.179Z" fill="white"/>
</svg>
