<svg xmlns="http://www.w3.org/2000/svg" xmlns:xlink="http://www.w3.org/1999/xlink" width="1366" zoomAndPan="magnify" viewBox="0 0 1024.5 576" height="768" preserveAspectRatio="xMidYMid meet" version="1.0"><path fill="#f5f1e6" d="M 356.535156 327.933594 C 385.128906 313.871094 414.816406 308.601562 446.269531 315.523438 C 470.925781 320.960938 491.570312 333.882812 510.890625 349.496094 C 523.675781 359.835938 536.414062 370.316406 549.835938 379.761719 C 567.625 392.285156 587.597656 399.496094 609.566406 399.851562 C 616.378906 399.96875 623.371094 399.722656 629.363281 395.378906 C 621.859375 394.679688 614.375 395.300781 607.035156 394.550781 C 586.867188 392.503906 569.175781 383.890625 553.226562 371.898438 C 536.984375 359.707031 521.730469 346.203125 505.308594 334.246094 C 458.488281 300.148438 408.917969 295.390625 356.976562 322.085938 C 356.976562 322.085938 344.804688 326.082031 330.164062 337.90625 L 332.191406 339.953125 Z M 356.535156 327.933594 " fill-opacity="1" fill-rule="evenodd"/><path fill="#f5f1e6" d="M 664.5625 360.90625 C 654.246094 363.859375 643.75 363.804688 634.292969 358.96875 C 621.878906 352.636719 609.675781 345.636719 598.175781 337.757812 C 576.382812 322.851562 555.515625 306.617188 533.621094 291.890625 C 508.410156 274.9375 480.816406 263.097656 450.253906 260.214844 C 401.675781 255.667969 362.917969 275.046875 331.214844 310.679688 C 330.136719 311.867188 329.054688 313.078125 327.910156 314.21875 C 327.691406 314.4375 327.167969 314.367188 325.566406 314.605469 C 326.613281 312.238281 327.121094 310.230469 328.238281 308.691406 C 350.453125 278.574219 380.492188 261.046875 417.082031 255.09375 C 464.5625 247.382812 506.511719 262.539062 545.125 288.679688 C 566.625 303.253906 587.234375 319.132812 608.417969 334.230469 C 616.171875 339.753906 624.242188 344.859375 632.320312 349.910156 C 640.21875 354.84375 648.789062 357.53125 658.242188 357.613281 C 660.289062 357.625 662.324219 359.835938 664.359375 361.03125 Z M 664.5625 360.90625 " fill-opacity="1" fill-rule="evenodd"/><path fill="#f5f1e6" d="M 604.496094 412.296875 C 593.132812 417.3125 581.851562 416.054688 570.660156 414.105469 C 548.019531 410.15625 527.96875 400.179688 509.578125 386.648438 C 500.09375 379.671875 490.878906 372.304688 481.320312 365.441406 C 467.972656 355.839844 453.359375 348.933594 436.953125 346.492188 C 412.511719 342.878906 391.296875 350.988281 372.125 365.355469 C 364.671875 370.953125 358.007812 377.582031 350.894531 383.644531 C 336.726562 395.738281 320.289062 403.328125 301.789062 404.261719 C 293.039062 404.707031 284.03125 401.445312 275.242188 399.453125 C 273.195312 398.992188 271.535156 396.84375 270.246094 394.34375 C 271.3125 394.480469 272.484375 394.355469 273.421875 394.761719 C 292.453125 402.855469 310.664062 399.359375 327.683594 389.570312 C 336.914062 384.265625 345.421875 377.367188 353.367188 370.230469 C 368.207031 356.882812 383.917969 345.34375 403.703125 340.59375 C 430.925781 334.058594 456.125 339.707031 479.460938 354.179688 C 488.753906 359.933594 497.472656 366.707031 506.019531 373.539062 C 526.386719 389.785156 547.980469 403.6875 573.914062 408.9375 C 583.730469 410.945312 593.886719 411.183594 604.496094 412.296875 Z M 604.496094 412.296875 " fill-opacity="1" fill-rule="evenodd"/><path fill="#f5f1e6" d="M 334.734375 321.722656 C 364.484375 293.582031 399.039062 277.359375 441.128906 280.195312 C 474.746094 282.46875 503.871094 295.875 530.605469 315.273438 C 551.308594 330.296875 571.410156 346.210938 592.207031 361.144531 C 606.3125 371.285156 621.859375 378.082031 639.988281 375.792969 C 643.351562 375.371094 646.722656 374.894531 650.082031 374.460938 C 650.339844 375.023438 650.578125 375.566406 650.835938 376.132812 C 648.78125 377.257812 646.839844 378.730469 644.65625 379.421875 C 629.539062 384.199219 614.339844 382.941406 600.992188 375.242188 C 583.996094 365.445312 568.121094 353.675781 551.90625 342.542969 C 534.871094 330.816406 518.523438 317.953125 500.914062 307.15625 C 479.996094 294.316406 456.628906 287.839844 432.019531 287.136719 C 402.734375 286.316406 375.972656 295.074219 351.214844 310.320312 C 345.546875 313.800781 340.21875 317.898438 334.734375 321.722656 Z M 334.734375 321.722656 " fill-opacity="1" fill-rule="evenodd"/><path fill="#f5f1e6" d="M 746.929688 245.34375 C 735.582031 250.324219 724.25 249.625 712.9375 246.699219 C 695.761719 242.257812 680.921875 233.070312 666.242188 223.574219 C 650.882812 213.613281 635.285156 204.0625 617.488281 199.011719 C 572.066406 186.117188 533.472656 198.832031 500.15625 230.71875 C 495.625 235.070312 491.742188 240.09375 487.214844 244.453125 C 485.621094 245.976562 482.992188 246.433594 480.855469 247.378906 C 481.238281 245.132812 480.914062 242.359375 482.121094 240.707031 C 516.164062 193.917969 570.964844 171.910156 629.914062 194.613281 C 643.972656 200.046875 656.914062 208.476562 670.128906 215.960938 C 680.011719 221.554688 689.328125 228.179688 699.1875 233.765625 C 712.484375 241.296875 726.792969 245.460938 742.246094 245.035156 C 743.808594 245.003906 745.359375 245.242188 746.929688 245.34375 Z M 746.929688 245.34375 " fill-opacity="1" fill-rule="evenodd"/><path fill="#f5f1e6" d="M 292.988281 288.394531 C 290.113281 287.484375 287.863281 286.792969 284.730469 285.8125 C 300.273438 251.136719 323.695312 225.269531 359.0625 212.03125 C 395.042969 198.566406 429.898438 202.925781 463.925781 221.339844 C 462.917969 222.9375 462.316406 223.890625 461.714844 224.839844 C 461.179688 225.6875 460.636719 226.527344 459.589844 228.21875 C 428.613281 212.289062 396.4375 207.363281 362.8125 219.289062 C 328.957031 231.292969 307.828125 256.226562 292.988281 288.394531 Z M 292.988281 288.394531 " fill-opacity="1" fill-rule="evenodd"/><path fill="#f5f1e6" d="M 504.40625 254.371094 C 538.164062 217.746094 589.625 203.984375 640.128906 232.429688 C 647.375 236.511719 654.304688 241.167969 661.1875 245.847656 C 672.449219 253.519531 684.390625 259.214844 698.285156 259.859375 C 698.996094 259.886719 699.699219 260.253906 700.398438 260.46875 C 700.410156 261.152344 700.421875 261.867188 700.441406 262.546875 C 695.527344 262.742188 690.542969 263.5625 685.71875 262.960938 C 671.09375 261.152344 658.5 254.183594 645.972656 246.84375 C 636.539062 241.339844 626.988281 235.703125 616.8125 231.875 C 582.988281 219.121094 552.238281 226.578125 524.042969 247.824219 C 520.484375 250.503906 517.148438 253.636719 513.226562 255.664062 C 510.851562 256.878906 507.570312 256.335938 504.691406 256.597656 C 504.601562 255.855469 504.503906 255.113281 504.40625 254.371094 Z M 504.40625 254.371094 " fill-opacity="1" fill-rule="evenodd"/><path fill="#f5f1e6" d="M 475.171875 385.980469 C 471.6875 383.835938 468.171875 381.714844 464.710938 379.542969 C 443.222656 366.195312 421.363281 365.5625 399.722656 378.601562 C 390.902344 383.921875 382.984375 390.722656 374.792969 397.03125 C 367.585938 402.636719 360.832031 408.855469 353.417969 414.175781 C 340.652344 423.335938 326.289062 428.652344 310.570312 430.117188 C 301.691406 430.933594 291.980469 428.664062 286.59375 424.003906 C 288.066406 423.765625 289.152344 423.261719 290.050781 423.503906 C 308.757812 428.484375 325.597656 422.855469 340.960938 413.058594 C 351.667969 406.207031 361.242188 397.507812 371.019531 389.300781 C 384.96875 377.582031 399.382812 366.726562 417.714844 362.988281 C 438.714844 358.699219 457.09375 364.109375 472.519531 379.039062 C 474.121094 380.5625 475.199219 382.609375 476.523438 384.40625 C 476.0625 384.933594 475.617188 385.464844 475.171875 385.980469 Z M 475.171875 385.980469 " fill-opacity="1" fill-rule="evenodd"/><path fill="#f5f1e6" d="M 373.660156 188.183594 C 370.402344 189.015625 367.125 189.886719 363.847656 190.644531 C 323.082031 200 293.964844 224.480469 273.441406 260.164062 C 271.234375 264.027344 269.179688 267.996094 267.359375 272.070312 C 264.265625 278.9375 264.375 278.988281 255.96875 278.117188 C 264.777344 233.816406 338.605469 176.578125 373.660156 188.183594 Z M 373.660156 188.183594 " fill-opacity="1" fill-rule="evenodd"/><path fill="#f5f1e6" d="M 420.292969 241.132812 C 416.589844 241.972656 412.652344 244.128906 409.261719 243.472656 C 366.945312 235.265625 333.792969 262.683594 321.34375 297.378906 C 320.792969 298.882812 320.277344 300.40625 319.734375 301.929688 C 311.546875 298.238281 311.167969 297.570312 314.582031 290.289062 C 328.589844 260.304688 350.136719 239.753906 384.136719 234.722656 C 395.753906 232.992188 410.945312 234.707031 419.773438 239.046875 C 419.949219 239.738281 420.117188 240.4375 420.292969 241.132812 Z M 420.292969 241.132812 " fill-opacity="1" fill-rule="evenodd"/><path fill="#f5f1e6" d="M 763.261719 230.007812 C 756.511719 230.007812 749.65625 230.796875 743.054688 229.839844 C 729.144531 227.855469 717.167969 220.832031 705.097656 214.039062 C 684.441406 202.421875 663.660156 191.003906 642.75 179.847656 C 637.160156 176.871094 630.855469 175.214844 624.871094 172.9375 C 624.992188 172.257812 625.117188 171.574219 625.226562 170.890625 C 628.222656 171.0625 631.261719 170.890625 634.175781 171.464844 C 654.621094 175.472656 672.734375 184.949219 690.253906 195.730469 C 697.347656 200.082031 704.375 204.546875 711.363281 209.039062 C 727.226562 219.269531 743.714844 227.773438 763.332031 227.910156 C 763.304688 228.585938 763.28125 229.296875 763.261719 230.007812 Z M 763.261719 230.007812 " fill-opacity="1" fill-rule="evenodd"/><path fill="#f5f1e6" d="M 708.082031 331.441406 C 692.820312 342.464844 675.851562 345.90625 657.90625 339.378906 C 649.828125 336.441406 642.027344 332.144531 634.90625 327.289062 C 620.699219 317.558594 607.5625 306.230469 590.109375 302.164062 C 587.636719 301.589844 585.757812 298.445312 583.601562 296.460938 C 583.902344 295.71875 584.234375 294.976562 584.550781 294.222656 C 591.40625 295.957031 598.742188 296.660156 604.996094 299.636719 C 613.898438 303.84375 622.15625 309.523438 630.457031 314.9375 C 635.886719 318.480469 640.8125 322.769531 646.128906 326.488281 C 663.640625 338.699219 682.546875 340.023438 702.390625 333.351562 C 704.304688 332.726562 706.183594 332.074219 708.082031 331.441406 Z M 708.082031 331.441406 " fill-opacity="1" fill-rule="evenodd"/><path fill="#f5f1e6" d="M 590 158.96875 C 547.941406 159.964844 510.316406 173.15625 477.207031 199.191406 C 485.246094 173.371094 566.273438 144.425781 590 158.96875 Z M 590 158.96875 " fill-opacity="1" fill-rule="evenodd"/><path fill="#f5f1e6" d="M 465.964844 404.339844 C 449.523438 398.09375 433.21875 392.828125 415.34375 398.121094 C 398.476562 403.121094 384.703125 413.039062 371.75 424.585938 C 371.183594 423.730469 370.609375 422.867188 370.046875 422 C 381.925781 406.039062 397.238281 394.746094 417.230469 389.980469 C 436.015625 385.496094 458.261719 391.597656 465.964844 404.339844 Z M 465.964844 404.339844 " fill-opacity="1" fill-rule="evenodd"/><path fill="#f5f1e6" d="M 269.476562 379.027344 C 257.761719 365.898438 245.714844 353.714844 227.40625 350.179688 C 210.144531 346.84375 193.34375 349.289062 176.507812 353.570312 C 176.410156 352.550781 176.308594 351.523438 176.191406 350.492188 C 194.113281 341.792969 212.910156 338.835938 232.855469 343.808594 C 251.5625 348.507812 268.507812 364.175781 269.476562 379.027344 Z M 269.476562 379.027344 " fill-opacity="1" fill-rule="evenodd"/><path fill="#f5f1e6" d="M 1008.96875 372.105469 C 1000.210938 376.964844 990.6875 377.617188 980.929688 376.515625 C 965.765625 374.777344 952.542969 368.070312 940.453125 359.261719 C 924.527344 347.65625 909.082031 335.40625 893.332031 323.539062 C 869.660156 305.675781 844.636719 290.359375 815.289062 283.636719 C 784.039062 276.496094 753.96875 280.667969 724.960938 293.730469 C 721.707031 295.195312 718.859375 297.851562 715.496094 298.824219 C 703.949219 302.164062 693.726562 296.886719 684.078125 292.042969 C 672.328125 286.140625 661.625 278.160156 650.054688 271.863281 C 637.441406 265 624.820312 257.710938 611.347656 253.007812 C 586.5 244.34375 562.898438 250.019531 540.703125 263.011719 C 538.964844 264.019531 537.03125 264.664062 535.183594 265.484375 C 534.910156 265.046875 534.652344 264.601562 534.382812 264.1875 C 535.292969 263.355469 536.117188 262.386719 537.125 261.699219 C 569.554688 239.695312 603.269531 239.164062 637.386719 256.910156 C 650.855469 263.929688 663.078125 273.277344 676.285156 280.835938 C 685.191406 285.96875 694.777344 289.875 704.121094 294.222656 C 709.167969 296.550781 713.796875 295.410156 718.523438 292.585938 C 743.324219 277.871094 770.132812 271.199219 798.96875 273.375 C 823.527344 275.230469 846.625 282.5 867.207031 295.660156 C 887.199219 308.425781 905.929688 323.15625 925.265625 336.960938 C 936.984375 345.324219 948.46875 354.121094 960.683594 361.714844 C 973.597656 369.746094 987.988281 373.015625 1003.34375 370.542969 C 1005.054688 370.277344 1006.855469 370.515625 1008.617188 370.515625 C 1008.742188 371.046875 1008.84375 371.582031 1008.96875 372.105469 Z M 1008.96875 372.105469 " fill-opacity="1" fill-rule="evenodd"/><path fill="#f5f1e6" d="M 559.269531 274.113281 C 571.273438 269.238281 583.867188 268.457031 596.625 270.179688 C 613.484375 272.441406 628.375 279.769531 642.234375 289.34375 C 651.921875 296.042969 661.324219 303.203125 671.292969 309.410156 C 677.019531 312.992188 683.515625 315.574219 689.949219 317.6875 C 696.128906 319.707031 702.320312 319.824219 708.675781 316.34375 C 727.027344 306.269531 746.65625 299.992188 767.683594 298.535156 C 800.121094 296.292969 829.824219 304.386719 856.113281 323.394531 C 871.550781 334.566406 886.082031 347.042969 901.054688 358.910156 C 919.085938 373.164062 938.304688 385.195312 961.628906 388.382812 C 968.148438 389.261719 974.882812 388.519531 981.605469 389.328125 C 975.503906 393.632812 968.570312 393.910156 961.660156 393.570312 C 944.242188 392.683594 927.984375 387.335938 913.679688 377.691406 C 898.726562 367.589844 884.390625 356.496094 870.34375 345.152344 C 851.257812 329.683594 831.535156 315.722656 807.230469 309.558594 C 774.078125 301.144531 742.488281 305.761719 711.839844 319.984375 C 701.429688 324.816406 690.414062 324.171875 680.4375 319.8125 C 668.832031 314.703125 657.746094 308.183594 647.03125 301.351562 C 634.1875 293.160156 622.015625 283.984375 607.234375 279.277344 C 593.945312 275.0625 580.605469 274.472656 566.953125 277.445312 C 564.523438 277.972656 561.695312 276.683594 559.042969 276.230469 C 559.132812 275.519531 559.199219 274.816406 559.269531 274.113281 Z M 559.269531 274.113281 " fill-opacity="1" fill-rule="evenodd"/><path fill="#f5f1e6" d="M 1023.445312 354.675781 C 1019.523438 355.574219 1015.644531 357.097656 1011.691406 357.214844 C 999.714844 357.582031 988.789062 353.351562 979.101562 346.875 C 960.375 334.355469 941.953125 321.347656 923.746094 308.046875 C 901.914062 292.089844 879.980469 276.429688 854.8125 265.871094 C 798.976562 242.414062 747.800781 249.425781 701.421875 288.824219 C 700.972656 289.203125 700.417969 289.421875 698.40625 288.972656 C 699.707031 286.742188 700.546875 283.984375 702.386719 282.359375 C 723.425781 263.753906 747.640625 251.683594 775.601562 247.683594 C 822.292969 241.023438 863.503906 255.890625 901.40625 281.375 C 925.679688 297.675781 948.789062 315.691406 972.566406 332.746094 C 978.984375 337.335938 985.835938 341.359375 992.679688 345.339844 C 1000.351562 349.808594 1008.625 352.28125 1017.679688 351.59375 C 1019.484375 351.460938 1021.351562 352.105469 1023.191406 352.394531 C 1023.28125 353.164062 1023.355469 353.925781 1023.445312 354.675781 Z M 1023.445312 354.675781 " fill-opacity="1" fill-rule="evenodd"/><path fill="#f5f1e6" d="M 955.75 405.308594 C 946.847656 409.984375 937.429688 409.453125 928.101562 408.054688 C 904.441406 404.480469 883.742188 393.976562 864.617188 380.09375 C 854.761719 372.929688 845.316406 365.195312 835.402344 358.125 C 819.257812 346.558594 801.527344 338.410156 781.414062 338.078125 C 759.894531 337.726562 740.910156 345.675781 724.21875 359.015625 C 716.773438 364.980469 709.890625 371.660156 702.398438 377.566406 C 688.207031 388.75 672.28125 395.878906 653.929688 396.546875 C 652.515625 396.589844 651.113281 396.398438 648.652344 394.96875 C 650.449219 393.445312 652.121094 390.832031 654.0625 390.59375 C 671.027344 388.582031 685.449219 381.261719 698.316406 370.464844 C 703.605469 366.019531 708.667969 361.320312 713.878906 356.789062 C 750.875 324.480469 796.574219 321.453125 837.257812 349.058594 C 848.679688 356.789062 859.277344 365.75 870.3125 374.042969 C 890.382812 389.074219 912.113281 400.609375 937.289062 404.300781 C 943.367188 405.179688 949.601562 405.003906 955.75 405.308594 Z M 955.75 405.308594 " fill-opacity="1" fill-rule="evenodd"/><path fill="#f5f1e6" d="M 827.875 378.640625 C 826.019531 377.59375 824.136719 376.632812 822.347656 375.488281 C 793.824219 357.304688 768.828125 358.035156 741.71875 378.363281 C 733.105469 384.820312 725.082031 392.027344 716.78125 398.871094 C 700.210938 412.496094 681.804688 421.871094 659.855469 422 C 652.535156 422.046875 645.164062 420.804688 638.972656 415.324219 C 639.84375 414.621094 640.238281 414.109375 640.4375 414.160156 C 664.769531 422.015625 685.019531 412.578125 703.953125 398.726562 C 712.292969 392.640625 719.796875 385.40625 727.738281 378.734375 C 741.3125 367.371094 756.09375 358.316406 774.011719 355.726562 C 793.765625 352.867188 810.9375 358.453125 825.542969 371.941406 C 827.078125 373.351562 828.007812 375.4375 829.214844 377.191406 C 828.757812 377.691406 828.304688 378.160156 827.875 378.640625 Z M 827.875 378.640625 " fill-opacity="1" fill-rule="evenodd"/><path fill="#f5f1e6" d="M 723.726562 417.363281 C 723.378906 408.226562 746.101562 389.796875 764.453125 384.28125 C 787.429688 377.40625 812.226562 385.097656 817.355469 395.90625 C 806.339844 393.632812 795.398438 390.445312 784.277344 389.402344 C 772.796875 388.351562 761.601562 391.941406 751.765625 397.890625 C 742.003906 403.804688 732.941406 410.875 723.726562 417.363281 Z M 723.726562 417.363281 " fill-opacity="1" fill-rule="evenodd"/><path fill="#f5f1e6" d="M 0.554688 402.828125 C 4.460938 403.695312 8.355469 405.226562 12.296875 405.347656 C 24.28125 405.707031 35.214844 401.492188 44.894531 395.007812 C 63.625 382.476562 82.054688 369.488281 100.253906 356.1875 C 122.097656 340.210938 144.019531 324.578125 169.179688 314.011719 C 225.023438 290.554688 276.199219 297.570312 322.582031 336.960938 C 323.023438 337.335938 323.578125 337.5625 325.578125 337.097656 C 324.28125 334.878906 323.441406 332.125 321.621094 330.511719 C 300.5625 311.894531 276.367188 299.824219 248.394531 295.828125 C 201.691406 289.152344 160.5 304.023438 122.589844 329.515625 C 98.335938 345.824219 75.210938 363.824219 51.433594 380.886719 C 45.015625 385.476562 38.164062 389.507812 31.324219 393.484375 C 23.648438 397.945312 15.382812 400.40625 6.320312 399.730469 C 4.5 399.59375 2.648438 400.246094 0.800781 400.523438 C 0.71875 401.292969 0.632812 402.054688 0.554688 402.828125 Z M 0.554688 402.828125 " fill-opacity="1" fill-rule="evenodd"/><path fill="#f5f1e6" d="M 38.90625 390.644531 C 48.03125 395.3125 57.683594 394.796875 67.222656 393.382812 C 91.429688 389.8125 112.644531 379.324219 132.210938 365.441406 C 142.296875 358.273438 151.988281 350.550781 162.128906 343.464844 C 178.652344 331.90625 196.804688 323.765625 217.410156 323.433594 C 239.441406 323.078125 258.878906 331.015625 275.960938 344.375 C 283.585938 350.324219 290.632812 357 298.304688 362.902344 C 312.839844 374.105469 329.136719 381.210938 347.941406 381.882812 C 349.367188 381.933594 350.816406 381.730469 353.328125 380.300781 C 351.480469 378.800781 349.769531 376.171875 347.792969 375.933594 C 330.433594 373.925781 315.667969 366.597656 302.488281 355.804688 C 297.070312 351.375 291.882812 346.675781 286.558594 342.121094 C 248.675781 309.835938 201.878906 306.800781 160.230469 334.410156 C 148.542969 342.136719 137.707031 351.089844 126.378906 359.371094 C 105.839844 374.429688 83.59375 385.960938 57.820312 389.648438 C 51.589844 390.535156 45.222656 390.339844 38.90625 390.644531 Z M 38.90625 390.644531 " fill-opacity="1" fill-rule="evenodd"/><path fill="#f5f1e6" d="M 136.691406 386.066406 C 138.527344 385.007812 140.425781 384.042969 142.207031 382.914062 C 170.722656 364.730469 195.738281 365.472656 222.847656 385.789062 C 231.441406 392.230469 239.476562 399.464844 247.78125 406.296875 C 264.355469 419.902344 282.753906 429.296875 304.703125 429.425781 C 312.03125 429.472656 319.378906 428.226562 325.574219 422.738281 C 324.707031 422.046875 324.320312 421.53125 324.113281 421.585938 C 299.792969 429.425781 279.53125 420.011719 260.605469 406.167969 C 252.261719 400.070312 244.757812 392.832031 236.820312 386.167969 C 223.234375 374.804688 208.46875 365.75 190.539062 363.152344 C 170.792969 360.304688 153.625 365.878906 139.015625 379.367188 C 137.484375 380.777344 136.554688 382.875 135.34375 384.636719 C 135.789062 385.109375 136.238281 385.585938 136.691406 386.066406 Z M 136.691406 386.066406 " fill-opacity="1" fill-rule="evenodd"/><path fill="#f5f1e6" d="M 234.007812 426.871094 C 234.355469 417.738281 211.636719 399.328125 193.285156 393.8125 C 170.304688 386.910156 145.488281 394.628906 140.367188 405.429688 C 151.390625 403.183594 162.316406 399.96875 173.449219 398.949219 C 184.929688 397.882812 196.125 401.472656 205.972656 407.425781 C 215.730469 413.335938 224.777344 420.40625 234.007812 426.871094 Z M 234.007812 426.871094 " fill-opacity="1" fill-rule="evenodd"/><path fill="#f5f1e6" d="M 664.371094 361.03125 C 671.886719 356.585938 679.410156 352.136719 687.5 347.386719 C 686.234375 356.535156 668.492188 369.210938 651.644531 373.054688 C 656.777344 368.222656 660.664062 364.5625 664.550781 360.90625 C 664.5625 360.90625 664.371094 361.03125 664.371094 361.03125 Z M 664.371094 361.03125 " fill-opacity="1" fill-rule="evenodd"/></svg>