<svg xmlns="http://www.w3.org/2000/svg" xmlns:xlink="http://www.w3.org/1999/xlink" width="1366" zoomAndPan="magnify" viewBox="0 0 1024.5 576" height="768" preserveAspectRatio="xMidYMid meet" version="1.0"><path fill="#e74c3c" d="M 979.179688 134.304688 C 941.410156 143.671875 885.417969 144.671875 846.511719 135.605469 C 807.144531 126.433594 794.816406 116.628906 760.589844 103.136719 C 765.375 102.691406 770.199219 102.316406 775.0625 102.011719 C 779.375 102.78125 824.425781 128.539062 870.964844 133.304688 C 898.105469 136.085938 914.328125 136.269531 942.257812 134.164062 C 951.183594 133.496094 960.054688 132.21875 968.851562 130.445312 C 972.289062 131.683594 975.734375 132.976562 979.179688 134.304688 Z M 979.179688 134.304688 " fill-opacity="1" fill-rule="nonzero"/><path fill="#e74c3c" d="M 1023.988281 153.972656 C 997.28125 166.472656 972.285156 174.484375 942.75 177.003906 C 795.734375 189.554688 792.796875 124.148438 674.84375 119.464844 C 679.660156 118.054688 692.914062 113.679688 697.414062 114.152344 C 767.742188 121.460938 797.75 157.722656 859.085938 167.996094 C 901.660156 175.125 947.921875 174.144531 989.238281 161.605469 C 998.824219 158.714844 1008.226562 154.992188 1017.542969 150.875 C 1019.695312 151.902344 1021.839844 152.910156 1023.988281 153.972656 Z M 1023.988281 153.972656 " fill-opacity="1" fill-rule="nonzero"/><path fill="#e74c3c" d="M 1023.988281 189.421875 C 997.503906 202.484375 972.414062 211.027344 942.851562 213.679688 C 789.875 227.421875 792.917969 152.546875 661.171875 152.6875 C 625.035156 152.730469 593.523438 157.929688 559.828125 173.070312 C 569.015625 166.753906 578.847656 160.65625 589.289062 154.867188 C 598.726562 150.914062 624.820312 147.5625 636.914062 146.496094 C 659.429688 144.515625 686.863281 145.75 709.597656 149.554688 C 772.042969 160.015625 800.972656 194.25 858.980469 204.515625 C 901.660156 212.066406 948.027344 211.027344 989.347656 197.730469 C 1001.132812 193.964844 1012.605469 188.90625 1023.988281 183.371094 Z M 1023.988281 189.421875 " fill-opacity="1" fill-rule="nonzero"/><path fill="#e74c3c" d="M 1023.988281 224.871094 C 997.6875 238.503906 972.605469 247.539062 942.953125 250.351562 C 789.898438 264.859375 792.691406 185.957031 661.171875 186.179688 C 628.015625 186.238281 598.164062 190.878906 567.234375 204.289062 C 540.757812 215.765625 519.582031 230.601562 490.828125 240.4375 C 504.78125 223.609375 490.289062 235.976562 520.621094 220.503906 C 567.878906 196.398438 584.644531 184.894531 636.835938 180.046875 C 659.375 177.953125 687.015625 179.25 709.75 183.277344 C 771.9375 194.289062 801.238281 230.285156 858.867188 241.03125 C 901.675781 249.007812 948.121094 247.917969 989.464844 233.855469 C 1001.234375 229.886719 1012.660156 224.570312 1023.988281 218.773438 Z M 1023.988281 224.871094 " fill-opacity="1" fill-rule="nonzero"/><path fill="#e74c3c" d="M 1023.988281 260.320312 C 997.832031 274.535156 972.851562 284.035156 943.0625 287.027344 C 901.730469 291.179688 860.949219 289.085938 822.210938 273.011719 C 778.660156 254.945312 753.765625 228.816406 697.128906 222.003906 C 652.410156 216.625 608.496094 219.867188 567.15625 238.734375 C 531.09375 255.191406 507.523438 275.617188 464.511719 283.929688 C 452.414062 286.261719 440.167969 288.207031 427.828125 288.507812 C 432.875 286.183594 437.816406 283.648438 442.660156 280.882812 L 451.753906 279.828125 C 475.15625 276.691406 500.226562 266.945312 520.648438 256.003906 C 567.652344 230.816406 584.34375 218.765625 636.75 213.605469 C 659.464844 211.367188 687.082031 212.761719 709.90625 217.007812 C 771.929688 228.554688 801.214844 266.230469 858.75 277.535156 C 901.585938 285.949219 948.355469 284.769531 989.582031 269.976562 C 1001.335938 265.792969 1012.714844 260.238281 1023.988281 254.179688 Z M 1023.988281 260.320312 " fill-opacity="1" fill-rule="nonzero"/><path fill="#e74c3c" d="M 1023.988281 295.777344 C 997.996094 310.558594 973.085938 320.519531 943.171875 323.695312 C 911.90625 327.011719 888.074219 326.570312 857.65625 320.40625 C 785.6875 305.820312 763.660156 253.019531 661.171875 253.175781 C 627.8125 253.230469 597.644531 258.527344 567.070312 273.183594 C 530.871094 290.535156 506.691406 311.9375 464.679688 320.425781 C 434.179688 326.582031 410.53125 327.019531 379.160156 323.695312 C 363.171875 321.988281 347.300781 318.011719 331.96875 312.109375 C 354.695312 309.695312 339.417969 310.074219 355.878906 313.394531 C 385.15625 319.296875 398.015625 319.992188 427.855469 318.890625 C 458.105469 317.773438 482.644531 310.378906 509.644531 297.410156 C 526.507812 289.3125 545.550781 276.207031 564.96875 266.816406 C 606.949219 246.511719 652.292969 242.644531 697.898438 248.636719 C 718.804688 251.386719 737.988281 257.445312 757.367188 266.804688 C 793.292969 284.160156 817.332031 305.535156 858.625 314.046875 C 890.859375 320.691406 915.703125 320.714844 948.648438 316.832031 C 974.84375 313.742188 1001.332031 302.332031 1023.988281 289.582031 Z M 1023.988281 295.777344 " fill-opacity="1" fill-rule="nonzero"/><path fill="#e74c3c" d="M 1023.988281 331.230469 C 999.128906 345.988281 972.300781 357.484375 943.289062 360.363281 C 939.203125 360.8125 935.128906 361.535156 931.035156 361.761719 C 891.746094 363.636719 858.113281 361.402344 821.828125 344.894531 C 779.683594 325.722656 763.269531 303.484375 709.238281 291.378906 C 681.792969 285.230469 640.542969 285.234375 613.101562 291.398438 C 559.042969 303.539062 542.664062 325.753906 500.515625 344.925781 C 464.433594 361.339844 430.402344 363.707031 391.300781 361.769531 C 375.8125 361.003906 351.832031 355.886719 336.757812 350.292969 C 321.910156 344.789062 299.167969 332.429688 286.066406 323.71875 C 282.296875 321.050781 278.464844 318.539062 274.589844 316.164062 C 284.683594 315.675781 281.625 314.828125 288.113281 318.800781 C 316.613281 336.226562 346.050781 350.988281 379.59375 354.199219 C 383.605469 354.628906 387.59375 355.324219 391.621094 355.539062 C 429.949219 357.292969 463.257812 354.949219 498.578125 338.746094 C 540.699219 319.429688 557.167969 296.953125 612.109375 284.484375 C 640.71875 277.988281 681.617188 277.988281 710.226562 284.484375 C 765.335938 296.996094 781.53125 319.363281 823.761719 338.738281 C 859.21875 355.003906 892.265625 357.253906 930.71875 355.546875 C 945.980469 354.871094 969.253906 349.921875 984.125 344.527344 C 997.046875 339.839844 1011.945312 332.0625 1023.988281 324.984375 Z M 1023.988281 331.230469 " fill-opacity="1" fill-rule="nonzero"/><path fill="#e74c3c" d="M 1023.988281 366.6875 C 999.320312 381.957031 972.535156 394.003906 943.414062 397.027344 C 939.3125 397.503906 935.222656 398.25 931.113281 398.5 C 891.6875 400.535156 857.769531 397.996094 821.632812 380.832031 C 779.765625 360.941406 763.226562 337.730469 709.363281 325.105469 C 681.785156 318.644531 640.554688 318.660156 612.980469 325.125 C 559.183594 337.746094 542.582031 360.964844 500.710938 380.855469 C 464.742188 397.941406 430.5 400.609375 391.21875 398.503906 C 376.566406 397.722656 350.628906 392.222656 336.546875 386.464844 C 295.382812 369.628906 267.722656 341.839844 230.410156 329.570312 C 216.78125 325.089844 208.640625 322.8125 193.808594 320.988281 C 199.832031 320.402344 205.894531 319.902344 211.988281 319.460938 C 218 319.90625 236.273438 326.382812 243.316406 329.335938 C 279.253906 344.386719 307.25 370.792969 343.890625 382.652344 C 374.257812 392.480469 396.554688 393.691406 427.957031 392.382812 C 458.273438 391.113281 483.144531 382.972656 509.808594 368.886719 C 526.707031 359.957031 545.207031 346.113281 564.625 335.820312 C 595.152344 319.632812 627.089844 312.980469 661.171875 313.007812 C 695.328125 313.035156 727.085938 319.582031 757.714844 335.800781 C 779.761719 347.480469 801.804688 364.246094 823.640625 374.703125 C 858.867188 391.578125 892.265625 394.171875 930.78125 392.289062 C 945.320312 391.582031 970.238281 386.300781 984.269531 380.722656 C 998.105469 375.210938 1011.019531 368.347656 1023.988281 360.390625 Z M 1023.988281 366.6875 " fill-opacity="1" fill-rule="nonzero"/><path fill="#e74c3c" d="M 1023.988281 402.136719 C 999.511719 417.898438 972.773438 430.519531 943.535156 433.6875 C 939.421875 434.191406 935.316406 434.960938 931.191406 435.234375 C 901.773438 436.871094 873.171875 435.988281 845.027344 426.34375 C 796.800781 409.816406 774.429688 381.644531 732.992188 365.859375 C 710.421875 357.257812 685.175781 353.625 661.171875 353.660156 C 627.839844 353.710938 595.984375 360.160156 566.792969 376.566406 C 545.125 388.742188 522.121094 406.269531 500.90625 416.773438 C 465 434.550781 430.671875 437.496094 391.148438 435.242188 C 376.605469 434.414062 350.164062 428.621094 336.34375 422.625 C 294.324219 404.390625 267.613281 376.328125 230.570312 363.5625 C 218.644531 359.453125 207.640625 356.128906 194.859375 354.707031 C 190.8125 354.199219 186.796875 353.433594 182.734375 353.144531 C 153.664062 351.421875 125.804688 352.210938 97.960938 361.554688 C 68.042969 371.59375 54.066406 382.667969 27.199219 399.609375 C 28.367188 398.003906 29.539062 396.410156 30.738281 394.871094 L 62.605469 374.191406 C 89.492188 359.066406 114.777344 350.257812 145.933594 348.761719 C 206.5 345.847656 237.597656 355.535156 288.179688 389.105469 C 316.222656 407.722656 345.53125 424.003906 379.398438 427.535156 C 383.429688 428.011719 387.441406 428.75 391.492188 429.019531 C 430.1875 431.082031 463.722656 428.175781 498.820312 410.667969 C 528.28125 395.972656 554.242188 372.105469 587.601562 359.285156 C 610.636719 350.433594 636.671875 346.480469 661.171875 346.5 C 695.085938 346.527344 728.226562 353.535156 757.886719 370.3125 C 792.722656 390.019531 818.714844 414.136719 858.226562 423.539062 C 884.816406 429.871094 902.972656 430.476562 930.84375 429.023438 C 945.179688 428.28125 970.714844 422.710938 984.417969 416.910156 C 998.8125 410.820312 1010.457031 404.4375 1023.988281 395.785156 Z M 1023.988281 402.136719 " fill-opacity="1" fill-rule="nonzero"/><path fill="#e74c3c" d="M 1023.988281 437.59375 C 1009.117188 447.539062 986.527344 460.457031 968.226562 465.171875 C 934.679688 473.304688 903.449219 474.082031 869.179688 469.304688 C 807.683594 457.632812 780.808594 418.859375 733.144531 399.894531 C 681.835938 379.488281 614.132812 383.273438 566.691406 411.046875 C 531.355469 431.730469 505.914062 456.355469 465.40625 466.367188 C 461.328125 467.34375 457.25 468.414062 453.15625 469.316406 C 420.085938 473.921875 386.738281 473.085938 354.113281 465.164062 C 331.027344 459.195312 304.203125 441.886719 285.960938 429.054688 C 258.199219 409.527344 229.128906 392.273438 194.964844 388.3125 C 190.910156 387.78125 186.875 386.984375 182.800781 386.671875 C 153.550781 384.828125 125.699219 385.773438 97.800781 395.492188 C 54.519531 410.566406 36.96875 432.902344 0 451.035156 C 1.285156 447.636719 1.582031 448.6875 8.378906 444.621094 C 49.316406 420.144531 72.015625 394.996094 121.1875 385.34375 C 155.132812 378.679688 205.609375 380.5 237.890625 395.0625 C 282.726562 415.289062 310.082031 445.953125 355.296875 459.226562 C 392.292969 468.003906 416.933594 468.003906 452.328125 462.949219 C 506.6875 454.085938 542.785156 411.257812 587.382812 393.351562 C 632 375.4375 691.054688 375.742188 734.953125 393.339844 C 783.246094 412.703125 809.605469 451.277344 870.011719 462.949219 C 906.441406 468.148438 930.675781 467.898438 967.042969 459.234375 C 985.527344 454.554688 1009.039062 441.117188 1023.988281 431.183594 Z M 1023.988281 437.59375 " fill-opacity="1" fill-rule="nonzero"/><path fill="#e74c3c" d="M 794.324219 471.644531 C 774.855469 458.070312 755.175781 443.019531 733.304688 433.945312 C 722.492188 429.460938 719.71875 429.109375 709.769531 426.324219 C 690.480469 420.925781 668.855469 420.308594 648.929688 421.199219 C 618.972656 422.539062 592.347656 429.84375 566.59375 445.527344 C 553.464844 453.296875 540.945312 462.679688 528.078125 471.644531 L 516.804688 471.644531 C 539.222656 456.535156 562.03125 437.941406 587.160156 427.429688 C 598.324219 422.757812 601.105469 422.394531 611.394531 419.484375 C 631.300781 413.855469 653.121094 413.113281 673.667969 414.078125 C 704.394531 415.53125 731.871094 423.210938 758.246094 439.359375 C 775.339844 449.828125 789.289062 460.636719 805.574219 471.644531 Z M 296.34375 471.644531 C 275.054688 456.695312 255.390625 440.882812 230.894531 431.546875 C 219.328125 427.140625 207.359375 423.398438 195.070312 421.917969 C 191.007812 421.359375 186.957031 420.546875 182.875 420.210938 C 143.375 417.574219 109.6875 420.9375 74.511719 439.480469 L 52.511719 452.929688 C 43.449219 459.023438 34.527344 465.507812 25.429688 471.644531 L 21.972656 471.644531 C 56.503906 447.902344 78.855469 427.625 121.035156 419 C 140.980469 414.921875 163.050781 414.664062 183.144531 415.8125 C 197.398438 416.628906 224.886719 422.84375 238.105469 429.1875 C 271.492188 445.210938 278.609375 453.714844 305.921875 471.644531 Z M 296.34375 471.644531 " fill-opacity="1" fill-rule="nonzero"/><path fill="#e74c3c" d="M 740.945312 471.644531 C 726.125 464.261719 723.429688 463.996094 709.910156 460.078125 C 690.425781 454.429688 669.03125 453.789062 648.890625 454.71875 C 627.964844 455.683594 608.082031 459.730469 588.886719 468.027344 C 577.675781 472.871094 585.898438 471.644531 567.546875 471.644531 C 577.226562 465.824219 593.636719 457.941406 605.046875 454.886719 C 630.832031 447.980469 647.628906 446.320312 673.722656 447.597656 C 703.292969 449.042969 729.433594 456.367188 754.832031 471.644531 Z M 244.121094 471.644531 C 228.902344 463.917969 212.128906 457.617188 195.179688 455.523438 C 191.105469 454.953125 187.042969 454.113281 182.953125 453.738281 C 151.609375 451.484375 126.898438 452.976562 97.453125 463.390625 C 91.015625 465.527344 84.824219 468.535156 78.671875 471.644531 L 72.335938 471.644531 C 85.320312 463.582031 105.367188 455.957031 120.875 452.664062 C 140.792969 448.433594 163.144531 448.125 183.226562 449.351562 C 197.378906 450.21875 225.433594 456.757812 238.316406 463.3125 L 254.347656 471.644531 Z M 244.121094 471.644531 " fill-opacity="1" fill-rule="nonzero"/></svg>